<svg id="Layer_1" data-name="Layer 1" xmlns="http://www.w3.org/2000/svg" viewBox="0 0 72.43 119.41"><path d="M21.12,34.43h15c3.67,0,8.47,0,10.94,1.47a9.65,9.65,0,0,1,4.87,8.42,9.21,9.21,0,0,1-6.15,9v.15c5.1,1,7.87,4.76,7.87,9.74,0,5.94-4.34,11.58-12.51,11.58h-20Zm5.54,17.36h11c6.21,0,8.76-2.19,8.76-6.44,0-5.57-4-6.38-8.76-6.38h-11Zm0,18.46H40.45c4.72,0,7.71-2.85,7.71-7.25,0-5.27-4.34-6.74-9-6.74H26.66Z"/><path d="M67.64,54.65c0,16.92-14.09,30.7-31.39,30.7S4.87,71.57,4.87,54.65,19,24,36.25,24,67.64,37.65,67.64,54.65ZM36.25,19.27C16.25,19.27.07,35.09.07,54.65S16.25,90,36.25,90,72.43,74.21,72.43,54.65,56.25,19.27,36.25,19.27Z"/><path d="M72.35,97.43H.22v4.62H72.35Z"/><path d="M70.11,92.31h.22a.27.27,0,0,0,.23-.08.16.16,0,0,0,.15-.14.29.29,0,0,0,.07-.22.27.27,0,0,0-.07-.22c0-.08-.08-.08-.15-.15s-.08-.07-.15-.07h-.75v.8h.45Zm.15-1.1a1.56,1.56,0,0,1,.67.14.68.68,0,0,1,.23.52.66.66,0,0,1-.23.51l-.45.22.75,1.1h-.45l-.67-1h-.45v1h-.38V91.21Zm-1.8,2a1.56,1.56,0,0,0,.37.59,1.74,1.74,0,0,0,.6.37,2.36,2.36,0,0,0,.68.14,1.89,1.89,0,0,0,.67-.14,2.56,2.56,0,0,0,.6-.37,1.71,1.71,0,0,0,.38-.59,1.85,1.85,0,0,0,0-1.46,1.71,1.71,0,0,0-.38-.59,1.63,1.63,0,0,0-.6-.36,2,2,0,0,0-.67-.15,1.71,1.71,0,0,0-.68.15,3,3,0,0,0-.6.36,1.56,1.56,0,0,0-.37.59,2.25,2.25,0,0,0-.15.73C68.39,92.67,68.39,93,68.46,93.18Zm-.3-1.53.45-.66a1.72,1.72,0,0,1,.67-.44,2.61,2.61,0,0,1,.83-.15,2.5,2.5,0,0,1,.82.15,3.26,3.26,0,0,1,.68.44,1.85,1.85,0,0,1,.45.66,1.52,1.52,0,0,1,.15.8,2.78,2.78,0,0,1-.15.81,1.57,1.57,0,0,1-.45.66,1.87,1.87,0,0,1-.68.44,3.36,3.36,0,0,1-.82.14,2.94,2.94,0,0,1-.83-.14,1.11,1.11,0,0,1-.67-.44,1.85,1.85,0,0,1-.45-.66,1.44,1.44,0,0,1-.15-.81A1,1,0,0,1,68.16,91.65Z"/><path d="M8.91,3.74A2,2,0,0,0,8.24,3a1.82,1.82,0,0,0-.9-.44,1.87,1.87,0,0,0-.9-.22,3.66,3.66,0,0,0-1.65.37,3.68,3.68,0,0,0-1.12,1,3.91,3.91,0,0,0-.6,1.39,5.55,5.55,0,0,0-.22,1.61,5.46,5.46,0,0,0,.22,1.54,4.65,4.65,0,0,0,.6,1.39,2.76,2.76,0,0,0,1.12.95A2.85,2.85,0,0,0,6.44,11a2.54,2.54,0,0,0,2-.81,3.18,3.18,0,0,0,.9-2h2.77a5.18,5.18,0,0,1-.6,2.2,4.29,4.29,0,0,1-1.19,1.61,5.13,5.13,0,0,1-1.73,1,7.15,7.15,0,0,1-2.24.36,5.87,5.87,0,0,1-2.62-.51,5.94,5.94,0,0,1-2-1.39A6.85,6.85,0,0,1,.45,9.3,6.8,6.8,0,0,1,0,6.74,7.54,7.54,0,0,1,.45,4.1,6.8,6.8,0,0,1,1.72,2a5.17,5.17,0,0,1,2-1.47A6.13,6.13,0,0,1,6.44,0a5.84,5.84,0,0,1,2,.29,6.54,6.54,0,0,1,1.73.88,4.93,4.93,0,0,1,1.27,1.47,5.6,5.6,0,0,1,.6,2H9.29A1.58,1.58,0,0,0,8.91,3.74Z"/><path d="M15.88,10.84a2.33,2.33,0,0,0,1.65.59,2.66,2.66,0,0,0,1.35-.37,1.4,1.4,0,0,0,.67-.8h2.32a4.06,4.06,0,0,1-1.65,2.34,4.73,4.73,0,0,1-2.77.73,5.81,5.81,0,0,1-2-.36,3.66,3.66,0,0,1-1.5-1,4.07,4.07,0,0,1-1-1.54,5.14,5.14,0,0,1,0-3.88,4.07,4.07,0,0,1,1-1.54,4.17,4.17,0,0,1,1.5-1,5.73,5.73,0,0,1,1.95-.37A4.64,4.64,0,0,1,19.47,4,4.05,4.05,0,0,1,21,5.27,4.76,4.76,0,0,1,21.8,7,6.31,6.31,0,0,1,22,9.08H15.13A3.17,3.17,0,0,0,15.88,10.84ZM18.8,6a1.68,1.68,0,0,0-1.42-.52,2.3,2.3,0,0,0-1.05.22,2,2,0,0,0-.6.52,3.19,3.19,0,0,0-.38.66c-.07.22-.07.44-.14.58h4.26A2.46,2.46,0,0,0,18.8,6Z"/><path d="M25.69,3.81V5.49a2.93,2.93,0,0,1,.53-.8A6.15,6.15,0,0,1,27,4a4.32,4.32,0,0,1,.83-.37,4,4,0,0,1,1-.14,2,2,0,0,1,.6.07V5.93c-.15,0-.3-.07-.45-.07h-.52a2.86,2.86,0,0,0-1.2.22,2.35,2.35,0,0,0-.82.66,2.14,2.14,0,0,0-.45,1,5.26,5.26,0,0,0-.15,1.17V13H23.22V3.81Z"/><path d="M36.25,3.81V5.49H34.38V10a1.26,1.26,0,0,0,.22.88,1.36,1.36,0,0,0,.9.22H36a.66.66,0,0,0,.38-.08v2c-.23,0-.45.07-.75.07h-.75A6,6,0,0,1,33.71,13a3.89,3.89,0,0,1-1-.29,1.48,1.48,0,0,1-.67-.66,2.42,2.42,0,0,1-.23-1.1V5.49H30.26V3.81h1.57V1h2.62V3.81Z"/><path d="M37.75,2.42V.29h2.62V2.42Zm2.62,1.39V13H37.75V3.81Z"/><path d="M41.42,5.49V3.81H43V3.08a2.91,2.91,0,0,1,.75-2,3.34,3.34,0,0,1,2.4-.81h.67a2.25,2.25,0,0,1,.68.07V2.2h-1a1,1,0,0,0-.75.22,1.14,1.14,0,0,0-.22.8v.59h1.8V5.49h-1.8V13H42.92V5.49Z"/><path d="M49.14,2.42V.29h2.54V2.42Zm2.54,1.39V13H49.06V3.81Z"/><path d="M55.8,10.84a2.35,2.35,0,0,0,1.65.59,2.66,2.66,0,0,0,1.35-.37,1.36,1.36,0,0,0,.67-.8h2.25a4.1,4.1,0,0,1-1.65,2.34,4.75,4.75,0,0,1-2.77.73,5.81,5.81,0,0,1-2-.36,3.6,3.6,0,0,1-1.5-1,4.07,4.07,0,0,1-1-1.54,5.14,5.14,0,0,1,0-3.88,4.07,4.07,0,0,1,1-1.54,4.17,4.17,0,0,1,1.5-1,5.71,5.71,0,0,1,1.94-.37,4.68,4.68,0,0,1,2.1.44,4.05,4.05,0,0,1,1.5,1.24A4.91,4.91,0,0,1,61.64,7a6,6,0,0,1,.15,2.05H55A3.85,3.85,0,0,0,55.8,10.84ZM58.72,6a1.68,1.68,0,0,0-1.42-.52,2.3,2.3,0,0,0-1,.22,1.65,1.65,0,0,0-.67.52,1.34,1.34,0,0,0-.3.58c-.08.22-.08.44-.15.59h4.19A2.36,2.36,0,0,0,58.72,6Z"/><path d="M69.88,11.87A2.48,2.48,0,0,1,68.69,13a4.18,4.18,0,0,1-1.65.36A5,5,0,0,1,65.16,13a5,5,0,0,1-1.34-1.1,3.54,3.54,0,0,1-.75-1.61,7.85,7.85,0,0,1-.3-1.84,5.13,5.13,0,0,1,.3-1.83,5,5,0,0,1,.75-1.54A4.62,4.62,0,0,1,65.09,4a3.51,3.51,0,0,1,1.8-.37A3.81,3.81,0,0,1,68.46,4a2.72,2.72,0,0,1,1.2,1V.29h2.62V13H69.81Zm-.15-4.54a3.55,3.55,0,0,0-.37-1,1.53,1.53,0,0,0-.67-.66,2.62,2.62,0,0,0-2.1,0,1.5,1.5,0,0,0-.68.66,3.55,3.55,0,0,0-.37,1,5.11,5.11,0,0,0-.15,1.09,5.11,5.11,0,0,0,.15,1.1,3.55,3.55,0,0,0,.37,1,2.22,2.22,0,0,0,.75.66,2.28,2.28,0,0,0,1,.29,2.18,2.18,0,0,0,1.05-.22,1.48,1.48,0,0,0,.67-.66,3.85,3.85,0,0,0,.38-1,5.86,5.86,0,0,0,.07-1.1A5.77,5.77,0,0,0,69.73,7.33Z"/><path d="M6.52,111.21a2,2,0,0,0-2-1.54c-1.79,0-2.47,1.54-2.47,3.07s.68,3,2.47,3a2.06,2.06,0,0,0,2.1-2H8.54a3.84,3.84,0,0,1-4,3.66A4.35,4.35,0,0,1,0,112.74C0,110.11,1.65,108,4.49,108a3.7,3.7,0,0,1,4,3.23Z"/><path d="M12.81,110.47a3.45,3.45,0,0,1,0,6.89,3.25,3.25,0,0,1-3.45-3.44A3.21,3.21,0,0,1,12.81,110.47Zm0,5.5c1.27,0,1.65-1,1.65-2s-.38-2.13-1.65-2.13-1.58,1-1.58,2.13S11.53,116,12.81,116Z"/><path d="M17.38,110.62H19.1v1.17a2.3,2.3,0,0,1,2.1-1.39c.15,0,.3,0,.37.07v1.69a2,2,0,0,0-.67-.07c-1.35,0-1.8,1-1.8,2.12v2.93H17.3v-6.52Z"/><path d="M22.32,110.62H24v.81a2.28,2.28,0,0,1,1.95-1c2.1,0,3,1.61,3,3.52,0,1.75-1,3.37-2.92,3.37a2.54,2.54,0,0,1-2-1v3.08H22.25v-8.79Zm4.94,3.3c0-1-.45-2.13-1.57-2.13s-1.57,1-1.57,2.13.37,2,1.57,2S27.26,114.94,27.26,113.92Z"/><path d="M33.11,110.47a3.45,3.45,0,0,1,0,6.89,3.25,3.25,0,0,1-3.45-3.44A3.21,3.21,0,0,1,33.11,110.47Zm0,5.5c1.27,0,1.64-1,1.64-2s-.37-2.13-1.64-2.13-1.58,1-1.58,2.13S31.91,116,33.11,116Z"/><path d="M37.67,110.62H39.4v1.17a2.3,2.3,0,0,1,2.09-1.39.62.62,0,0,1,.38.07v1.69a2,2,0,0,0-.67-.07c-1.35,0-1.8,1-1.8,2.12v2.93H37.6v-6.52Z"/><path d="M42.54,112.67c.08-1.68,1.65-2.2,3.15-2.2s2.92.3,2.92,1.83v3.37a3.76,3.76,0,0,0,.23,1.47H47a2.25,2.25,0,0,1-.15-.66,3.12,3.12,0,0,1-2.24.81c-1.28,0-2.25-.59-2.25-2s1.12-1.83,2.25-2,2.17-.15,2.17-.88-.53-.88-1.2-.88a1.06,1.06,0,0,0-1.2,1h-1.8Zm4.2,1.32c-.3.29-1,.29-1.5.37s-1.05.29-1.05,1,.53.8,1.12.8a1.34,1.34,0,0,0,1.5-1.46V114Z"/><path d="M52.28,110.62h1.35v1.17H52.28V115c0,.58.15.73.75.73a1.53,1.53,0,0,0,.6-.08v1.4a4.91,4.91,0,0,1-1.05.07c-1.12,0-2.1-.22-2.1-1.54v-3.81H49.36v-1.17h1.12v-2h1.8Z"/><path d="M56.85,109.59h-1.8v-1.46h1.8Zm-1.87,1h1.8v6.52H55Z"/><path d="M61.49,110.47a3.45,3.45,0,1,1-3.44,3.45A3.21,3.21,0,0,1,61.49,110.47Zm0,5.5c1.28,0,1.65-1,1.65-2s-.37-2.13-1.65-2.13-1.57,1-1.57,2.13S60.22,116,61.49,116Z"/><path d="M66.14,110.62h1.72v.88h.08a2.39,2.39,0,0,1,2-1.1c2,0,2.4,1.1,2.4,2.71v4h-1.8v-3.66c0-1.1-.3-1.61-1.2-1.61s-1.42.51-1.42,1.83v3.44h-1.8Z"/></svg>