<svg id="Layer_1" data-name="Layer 1" xmlns="http://www.w3.org/2000/svg" viewBox="0 0 270.33 123.86"><defs><style>.cls-1,.cls-2,.cls-3,.cls-4,.cls-5{fill:none;stroke:#000;}.cls-1{stroke-width:0.86px;}.cls-2{stroke-width:0.22px;}.cls-3{stroke-width:0.38px;}.cls-4{stroke-width:0.28px;}.cls-5{stroke-width:0.19px;}</style></defs><path class="cls-1" d="M9.59.43H260.74a9.12,9.12,0,0,1,9.16,9.21V114.21a9.13,9.13,0,0,1-9.16,9.22H9.59a9.13,9.13,0,0,1-9.16-9.22V9.64A9.4,9.4,0,0,1,9.59.43Z"/><path d="M27.7,111.43,26,105.64h1.07l.85,3.43.43,1.29a3.18,3.18,0,0,0,.21-1.29l.85-3.43h1.07l.85,3.43.21,1.07.43-1.07L33,105.64h1.07l-1.92,5.79H31.11L30.25,108,30,106.93l-1.28,4.5Z"/><path d="M36,111.43l-1.7-5.79h1.07l.85,3.43.42,1.29a3.06,3.06,0,0,0,.22-1.29l.85-3.43h1.06l.86,3.43.21,1.07.42-1.07,1.07-3.43h1.06l-1.91,5.79H39.41L38.56,108l-.21-1.07-1.28,4.5Z"/><path d="M44.31,111.43l-1.7-5.79h1.06l.86,3.43.42,1.29a3.18,3.18,0,0,0,.21-1.29l.86-3.43h1.06l.85,3.43.22,1.07,1.28-4.5H50.7l-1.91,5.79H47.72L46.87,108l-.21-1.07-1.28,4.5Z"/><path d="M52,110.36H50.92v1.07H52Z"/><path d="M53.69,111.43v-5.15h-.86v-.85h.86v-.65c0-.42,0-.64.21-.85,0-.22.21-.43.42-.65a1.63,1.63,0,0,1,1.07-.21h.85l-.21.86h-.64a.79.79,0,0,0-.64.21.8.8,0,0,0-.21.64v.43H55.6v.86H54.54v5.14h-.85Z"/><path d="M56.24,109.71l1.07-.21a1.13,1.13,0,0,0,.42.86,1.63,1.63,0,0,0,1.07.21,1.6,1.6,0,0,0,1.06-.21c.22-.22.43-.43.43-.65s0-.43-.21-.43-.43-.21-1.07-.42a8.26,8.26,0,0,0-1.49-.43c-.21-.22-.43-.22-.64-.65-.21-.21-.21-.42-.21-.85a.81.81,0,0,1,.21-.65c.21-.21.21-.42.43-.64a.78.78,0,0,1,.64-.21c.21,0,.63-.22.85-.22a2.65,2.65,0,0,1,1.28.22c.42.21.63.21.85.43s.21.42.42.85l-1.06.22c0-.22-.21-.65-.43-.65-.21-.21-.42-.21-.85-.21s-.85,0-.85.21a.68.68,0,0,0-.21.43c0,.22,0,.22.21.43,0,.22.21.22.42.22a2.26,2.26,0,0,0,.86.21,9,9,0,0,0,1.49.43c.21.21.42.21.64.43s.21.43.21.85,0,.65-.21.86a2.86,2.86,0,0,1-.86.64,2.59,2.59,0,0,1-1.27.22,3.34,3.34,0,0,1-1.71-.43C56.67,110.78,56.45,110.36,56.24,109.71Z"/><path d="M66,109.28l1.07.22c-.22.64-.43,1.28-.86,1.5a2.38,2.38,0,0,1-1.7.64,2.07,2.07,0,0,1-1.92-.86,3.46,3.46,0,0,1-.64-2.35c0-.65.22-1.29.22-1.72a2.11,2.11,0,0,1,.85-1.07,3.08,3.08,0,0,1,1.49-.43,3.12,3.12,0,0,1,1.49.43,4.35,4.35,0,0,1,.85,1.29l-1.06.21a1.14,1.14,0,0,0-.43-.86c-.21-.21-.42-.21-.85-.21a3,3,0,0,0-1.28.43,3.71,3.71,0,0,0,0,3.43c.21.43.64.43,1.07.43s.64-.22,1.06-.43C65.83,110.14,66,109.71,66,109.28Z"/><path d="M69.24,110.36H68.17v1.07h1.07Z"/><path d="M71.15,108.43a4.1,4.1,0,0,0,.43,1.71,1.52,1.52,0,0,0,1.28.64,1.85,1.85,0,0,0,1.28-.64c.42-.43.42-.86.42-1.71a4.11,4.11,0,0,0-.42-1.72,1.52,1.52,0,0,0-1.28-.64,1.83,1.83,0,0,0-1.28.64A4.1,4.1,0,0,0,71.15,108.43Zm-1.06,0a2.68,2.68,0,0,1,.85-2.36,2.6,2.6,0,0,1,1.92-.64,2.06,2.06,0,0,1,1.91.85,3.28,3.28,0,0,1,.86,2.15,3.37,3.37,0,0,1-.43,1.71,2.54,2.54,0,0,1-1.06,1.07,3.05,3.05,0,0,1-1.5.43,2,2,0,0,1-1.91-.86A3.81,3.81,0,0,1,70.09,108.43Z"/><path d="M76.69,111.43v-5.79h.85v.86a3.24,3.24,0,0,1,.64-.86.8.8,0,0,1,.64-.21c.43,0,.64.21,1.07.43l-.43.85a.78.78,0,0,0-.64-.21.8.8,0,0,0-.64.21,1.72,1.72,0,0,0-.42.65,1.87,1.87,0,0,0-.22,1.07v3Z"/><path d="M81,108.43a3.37,3.37,0,0,0,.43,1.71c.21.43.64.43,1.06.43a1.59,1.59,0,0,0,1.07-.43,3.38,3.38,0,0,0,.42-1.71,4.11,4.11,0,0,0-.42-1.72,1.21,1.21,0,0,0-2.13,0A4.1,4.1,0,0,0,81,108.43Zm-.85,3.43,1.07.21c0,.21.21.43.42.64s.64.22,1.07.22.85,0,1.06-.22a1.12,1.12,0,0,0,.43-.85v-1.29a2.64,2.64,0,0,1-1.71.86,2.06,2.06,0,0,1-1.91-.86,3.61,3.61,0,0,1-.64-2.14,3.22,3.22,0,0,1,.21-1.5,2.12,2.12,0,0,1,.85-1.07,3,3,0,0,1,1.28-.43,1.92,1.92,0,0,1,1.7.85v-.64h.86v5.14a4.64,4.64,0,0,1-.22,1.93,1.62,1.62,0,0,1-.85.86,3.08,3.08,0,0,1-1.49.43,4,4,0,0,1-1.7-.43A4.89,4.89,0,0,1,80.1,111.86Z"/><path d="M56,9.22C38.14,9.22,32,37.07,26,59.36c-2.13-2.15-8.73-8.79-8.73-8.57a2.65,2.65,0,0,0-3.84,3.64s9,8.78,11.93,11.78a2.63,2.63,0,0,0,3.2.65A3.52,3.52,0,0,0,30,64.71C40.69,18,50.06,14.57,56,14.57A10.89,10.89,0,0,1,66.89,25.93C74.56,25.93,79.25,36,73.07,42c5.11,2.36,7.24,5.57,7.24,9.21a7.84,7.84,0,0,1-7.88,7.72c-4.69,0-7-3-10.65-3a2.47,2.47,0,0,0-2.56,2.57v9.64H52.41V58.71a2.43,2.43,0,0,0-2.35-2.57h-.63l-9.16,1.07a2.76,2.76,0,0,0-2.13,2.58,2.64,2.64,0,0,0,2.76,2.57h.43l5.75-.65v9.43a2.57,2.57,0,0,0,2.56,2.36H61.78a2.6,2.6,0,0,0,2.56-2.57V62.36a17.43,17.43,0,0,0,7.88,2.14A13.18,13.18,0,0,0,85.43,51.21,13.46,13.46,0,0,0,79.89,40.5a14.72,14.72,0,0,0-8.74-19.07A15.24,15.24,0,0,0,56,9.22Z"/><path d="M48.36,83.78c0,2.15,2.34,3.43,6.39,5.36,3.2,1.5,5.11,3,5.11,4.29,0,2.14-2.13,2.78-4.26,2.78-3.19,0-5.11-1.28-6.17-4.07v-.21h-.22c-.64,0-1.06,0-1.28.43a1,1,0,0,0,0,1.07l.64,3c.22.64.43.85,1.71,1.07.42,0,3.19.43,5.32.43,6.18,0,8.95-2.57,8.95-4.93,0-1.72-1.7-3.43-5.54-5.36l-1.7-.86c-2.56-1.28-4.26-1.92-4.26-3.42,0-1.29,1.7-2.15,4-2.15a3.91,3.91,0,0,1,4.26,3.22v.21c.64,0,1.07,0,1.28-.43a.77.77,0,0,0,.22-.64L62.63,81c0-.86-.64-.86-1.49-1.07a19,19,0,0,0-4-.43C51.56,79.5,48.36,81,48.36,83.78Z"/><path d="M66,88.93c0,4.5,3.84,9,11.29,9a15.26,15.26,0,0,0,7.46-1.72l.42-.21-.64-.86c-.21-.21-.21-.21-.64-.21l-.42.21a13.27,13.27,0,0,1-5.33,1.07,7.61,7.61,0,0,1-7.88-7.93c0-5.14,4.48-7.07,8.31-7.07,2.77,0,4.26,1.07,4.47,3v.43h.43c.42,0,1.28,0,1.28-.64V81c0-.64-.86-.86-1.28-.86h-.43a16.51,16.51,0,0,0-3.83-.21C71.58,79.5,66,83.36,66,88.93Z"/><path d="M38.35,79.71H26.63a.57.57,0,0,0-.64.65c0,.21,0,.85.64.85,2.77,0,2.77.22,2.77,1.29V95.57c0,.43,0,.64-2.34.64-.64,0-1.07.22-1.07.86,0,.21,0,.64.64.64h10c.43,0,1.07,0,1.07-.64s-.64-.86-1.71-.86c-2.34,0-2.34-.43-2.34-.64,0-1.07-.21-2.79-.21-3.86V89.57h1.92c3,0,3.4,0,3.83,2.36.21.43.43.64.85.64.64,0,.85-.43.85-.64V85.5c0-.64-.63-.64-1.06-.64-.64,0-.64.42-1.07,2.14-.21.64-1.49,1.07-3.4,1.07H33.66V82.71c0-1.5.21-1.5.64-1.5,1.07,0,4.05-.21,4.9-.21a4.19,4.19,0,0,1,1.92.43,13.71,13.71,0,0,1,2.77,1.93c.42.42.64.64,1.06.64.21,0,.85,0,.85-.64,0-.22,0-.22-.21-.65a24.54,24.54,0,0,0-1.28-2.78c-.21-.43-.64-.43-1.49-.43Z"/><path d="M80.53,14.57h.85c.42,0,.64,0,.85-.21s.21-.22.21-.64c0-.22,0-.43-.21-.43-.21-.22-.43-.22-1.06-.22h-.64Zm3.19,2.79H82.66a9.92,9.92,0,0,1-1.07-1.93.78.78,0,0,0-.64-.21h-.42v1.92h-.86v-4.5h2.77c.22,0,.43.22.64.43a.79.79,0,0,1,.22.65,1.12,1.12,0,0,1-.43.85A1.59,1.59,0,0,1,81.8,15c.22,0,.64.43,1.07,1.29Zm-2.13,1.28a3.49,3.49,0,0,0,2.56-1.07,3.65,3.65,0,0,0,0-5.14,4,4,0,0,0-2.56-1.07A3.55,3.55,0,0,0,79,12.43a3.65,3.65,0,0,0,0,5.14A3.51,3.51,0,0,0,81.59,18.64Zm0-8.14A4.38,4.38,0,0,1,86.06,15a3.9,3.9,0,0,1-1.27,3,4.48,4.48,0,0,1-7.67-3.21,4.36,4.36,0,0,1,1.28-3.22A5.2,5.2,0,0,1,81.59,10.5Z"/><path class="cls-2" d="M80.53,14.57h.85c.42,0,.64,0,.85-.21s.21-.22.21-.64c0-.22,0-.43-.21-.43-.21-.22-.43-.22-1.06-.22h-.64Zm3.19,2.79H82.66a9.92,9.92,0,0,1-1.07-1.93.78.78,0,0,0-.64-.21h-.42v1.92h-.86v-4.5h2.77c.22,0,.43.22.64.43a.79.79,0,0,1,.22.65,1.12,1.12,0,0,1-.43.85A1.59,1.59,0,0,1,81.8,15c.22,0,.64.43,1.07,1.29Zm-2.13,1.28a3.49,3.49,0,0,0,2.56-1.07,3.65,3.65,0,0,0,0-5.14,4,4,0,0,0-2.56-1.07A3.55,3.55,0,0,0,79,12.43a3.65,3.65,0,0,0,0,5.14A3.51,3.51,0,0,0,81.59,18.64Zm0-8.14A4.38,4.38,0,0,1,86.06,15a4.36,4.36,0,0,1-4.47,4.5A4.38,4.38,0,0,1,77.12,15a4.39,4.39,0,0,1,4.47-4.5Z"/><path d="M180,38.57h-1.92V26.14l-4.26,12.43h-1.71l-4.26-12.64V38.57H166V23.79h3l3.41,10.5a9.47,9.47,0,0,1,.64,2.14c.21-.64.42-1.29.85-2.36l3.62-10.28H180Z"/><path class="cls-3" d="M180,38.57h-1.92V26.14l-4.26,12.43h-1.71l-4.26-12.64V38.57H166V23.79h3l3.41,10.5a9.47,9.47,0,0,1,.64,2.14c.21-.64.42-1.29.85-2.36l3.62-10.28H180Z"/><path d="M186.18,23.79h-1.91V38.57h1.91Z"/><path class="cls-3" d="M186.18,23.79h-1.91V38.57h1.91Z"/><path d="M202.59,38.57h-2.35l-3-4.28c-.64-1.08-1.28-1.72-1.28-2.15,0,.22-1.49,2.15-4.47,6.22h-2.34l5.75-7.72-5.11-7.07h2.34l3.19,4.5a1.85,1.85,0,0,1,.64,1.29c.22-.43,1.71-2.36,4.05-5.57h2.13l-5.11,6.85Z"/><path class="cls-3" d="M202.59,38.57h-2.35l-3-4.28c-.64-1.08-1.28-1.72-1.28-2.15,0,.22-1.49,2.15-4.47,6.22h-2.34l5.75-7.72-5.11-7.07h2.34l3.19,4.5a1.85,1.85,0,0,1,.64,1.29c.22-.43,1.71-2.36,4.05-5.57h2.13l-5.11,6.85Z"/><path d="M145.28,58.5h2.77c1.71,0,2.56-.64,2.56-1.93a1.59,1.59,0,0,0-.43-1.07c-.21-.43-.42-.64-.85-.64s-.85-.22-1.49-.22h-2.77V58.5Zm-1.49-5.36h6a3.13,3.13,0,0,1,1.28.43,2.16,2.16,0,0,1,.85,1.07,3.72,3.72,0,0,1,.21,1.5A2.78,2.78,0,0,1,151,58.5a4.43,4.43,0,0,1-3.2.86h-2.77v4.5h-1.49V53.14Z"/><path class="cls-4" d="M145.28,58.5h2.77c1.71,0,2.56-.64,2.56-1.93a1.59,1.59,0,0,0-.43-1.07c-.21-.43-.42-.64-.85-.64s-.85-.22-1.49-.22h-2.77V58.5Zm-1.49-5.36h6a3.13,3.13,0,0,1,1.28.43,2.16,2.16,0,0,1,.85,1.07,3.72,3.72,0,0,1,.21,1.5A2.78,2.78,0,0,1,151,58.5a4.43,4.43,0,0,1-3.2.86h-2.77v4.5h-1.49V53.14Z"/><path d="M159.56,60.86v-.43a22,22,0,0,1-2.56.64c-1.06.22-1.49.64-1.49,1.29a1.07,1.07,0,0,0,.43.85,1.74,1.74,0,0,0,1.27.43,2.42,2.42,0,0,0,1.71-.64A3.68,3.68,0,0,0,159.56,60.86Zm1.91,3.43H160a1.67,1.67,0,0,1-.21-1.08,4.19,4.19,0,0,1-3,1.29,2.6,2.6,0,0,1-1.92-.64,2.62,2.62,0,0,1,0-3.43,5.05,5.05,0,0,1,2.56-.86l1.27-.21a8.79,8.79,0,0,0,1.07-.22v-.85c0-.22,0-.43-.21-.43a1.11,1.11,0,0,0-.86-.43c-.21-.22-.63-.22-1.06-.22a1.81,1.81,0,0,0-1.28.43,1.32,1.32,0,0,0-.64,1.29l-1.28-.22a2.89,2.89,0,0,1,1.07-1.92,4.51,4.51,0,0,1,2.56-.65,5.41,5.41,0,0,1,2.13.43,2.22,2.22,0,0,1,.85,1.07,3.25,3.25,0,0,1,.21,1.5v4.07C161.05,63.64,161.26,63.86,161.47,64.29Z"/><path class="cls-4" d="M159.56,60.86v-.43a22,22,0,0,1-2.56.64c-1.06.22-1.49.64-1.49,1.29a1.07,1.07,0,0,0,.43.85,1.74,1.74,0,0,0,1.27.43,2.42,2.42,0,0,0,1.71-.64A3.68,3.68,0,0,0,159.56,60.86Zm1.91,3.43H160a1.67,1.67,0,0,1-.21-1.08,4.19,4.19,0,0,1-3,1.29,2.6,2.6,0,0,1-1.92-.64,2.62,2.62,0,0,1,0-3.43,5.05,5.05,0,0,1,2.56-.86l1.27-.21a8.79,8.79,0,0,0,1.07-.22v-.85c0-.22,0-.43-.21-.43a1.11,1.11,0,0,0-.86-.43c-.21-.22-.63-.22-1.06-.22a1.81,1.81,0,0,0-1.28.43,1.32,1.32,0,0,0-.64,1.29l-1.28-.22a2.89,2.89,0,0,1,1.07-1.92,4.51,4.51,0,0,1,2.56-.65,5.41,5.41,0,0,1,2.13.43,2.22,2.22,0,0,1,.85,1.07,3.25,3.25,0,0,1,.21,1.5v4.07C161.05,63.64,161.26,63.86,161.47,64.29Z"/><path d="M167,63.43a1.61,1.61,0,0,0,1.49-.86,3.44,3.44,0,0,0,.64-2.36,3.81,3.81,0,0,0-.64-2.35A2.14,2.14,0,0,0,167,57a1.41,1.41,0,0,0-1.49.86,4.65,4.65,0,0,0,0,4.71A1.62,1.62,0,0,0,167,63.43Zm-2.13-6a2.45,2.45,0,0,1,2.35-1.29,3.52,3.52,0,0,1,2.55,1.07,4.56,4.56,0,0,1,.85,3,5.29,5.29,0,0,1-1.06,3.22A2.85,2.85,0,0,1,167,64.5a3,3,0,0,1-2.13-1.07v3.86H163.6V56.14h1.28Z"/><path class="cls-4" d="M167,63.43a1.61,1.61,0,0,0,1.49-.86,3.44,3.44,0,0,0,.64-2.36,3.81,3.81,0,0,0-.64-2.35A2.14,2.14,0,0,0,167,57a1.41,1.41,0,0,0-1.49.86,4.65,4.65,0,0,0,0,4.71A1.62,1.62,0,0,0,167,63.43Zm-2.13-6a2.45,2.45,0,0,1,2.35-1.29,3.52,3.52,0,0,1,2.55,1.07,4.56,4.56,0,0,1,.85,3,5.29,5.29,0,0,1-1.06,3.22A2.85,2.85,0,0,1,167,64.5a3,3,0,0,1-2.13-1.07v3.86H163.6V56.14h1.28Z"/><path d="M178.52,59.57c0-.86-.22-1.5-.86-1.71a2,2,0,0,0-3,0,2.42,2.42,0,0,0-.64,1.71Zm1.27,1.07h-6a2.78,2.78,0,0,0,.85,2.15,2.46,2.46,0,0,0,1.7.64,3,3,0,0,0,1.28-.43c.43-.21.64-.64.86-1.29l1.49.22a3.15,3.15,0,0,1-1.28,1.93,3.81,3.81,0,0,1-2.35.64,3.65,3.65,0,0,1-2.76-1.07,4.74,4.74,0,0,1,0-6,3.14,3.14,0,0,1,2.76-1.29,5.12,5.12,0,0,1,1.71.43,2.51,2.51,0,0,1,1.28,1.29A8.53,8.53,0,0,1,179.79,60.64Z"/><path class="cls-4" d="M178.52,59.57c0-.86-.22-1.5-.86-1.71a2,2,0,0,0-3,0,2.42,2.42,0,0,0-.64,1.71Zm1.27,1.07h-6a2.78,2.78,0,0,0,.85,2.15,2.46,2.46,0,0,0,1.7.64,3,3,0,0,0,1.28-.43c.43-.21.64-.64.86-1.29l1.49.22a3.15,3.15,0,0,1-1.28,1.93,3.81,3.81,0,0,1-2.35.64,3.65,3.65,0,0,1-2.76-1.07,4.74,4.74,0,0,1,0-6,3.14,3.14,0,0,1,2.76-1.29,5.12,5.12,0,0,1,1.71.43,2.51,2.51,0,0,1,1.28,1.29A8.53,8.53,0,0,1,179.79,60.64Z"/><path d="M186.4,56.57,186,57.86c-.43-.22-.64-.43-1.06-.43a1.17,1.17,0,0,0-1.07.64,4.34,4.34,0,0,0-.43,1.93v4.29h-1.27V56.36h1.27v1.07a2,2,0,0,1,1.71-1.29A1.57,1.57,0,0,1,186.4,56.57Z"/><path class="cls-4" d="M186.4,56.57,186,57.86c-.43-.22-.64-.43-1.06-.43a1.17,1.17,0,0,0-1.07.64,4.34,4.34,0,0,0-.43,1.93v4.29h-1.27V56.36h1.27v1.07a2,2,0,0,1,1.71-1.29A1.57,1.57,0,0,1,186.4,56.57Z"/><path d="M196.41,53.14l-.21,1.29h-.86c-.42,0-.63,0-.85.21s-.21.43-.21,1.07v.86h1.49v.86h-1.49V64.5H193V57.43h-1.28V56.36H193V55.5a1.62,1.62,0,0,1,.21-1.07c0-.43.22-.64.64-.86a3.15,3.15,0,0,1,1.49-.43C195.56,52.93,196,53.14,196.41,53.14Z"/><path class="cls-4" d="M196.41,53.14l-.21,1.29h-.86c-.42,0-.63,0-.85.21s-.21.43-.21,1.07v.86h1.49v.86h-1.49V64.5H193V57.43h-1.28V56.36H193V55.5a1.62,1.62,0,0,1,.21-1.07c0-.43.22-.64.64-.86a3.15,3.15,0,0,1,1.49-.43C195.56,52.93,196,53.14,196.41,53.14Z"/><path d="M202,56.57l-.43,1.29a1.85,1.85,0,0,0-1.06-.22,1.17,1.17,0,0,0-1.07.65,4.3,4.3,0,0,0-.42,1.92V64.5h-1.28V56.57H199v.86a2,2,0,0,1,1.7-1.29A1.56,1.56,0,0,1,202,56.57Z"/><path class="cls-4" d="M202,56.57l-.43,1.29a1.85,1.85,0,0,0-1.06-.22,1.17,1.17,0,0,0-1.07.65,4.3,4.3,0,0,0-.42,1.92V64.5h-1.28V56.57H199v.86a2,2,0,0,1,1.7-1.29A1.56,1.56,0,0,1,202,56.57Z"/><path d="M206.63,63.43a1.74,1.74,0,0,0,1.71-.86,4.65,4.65,0,0,0,0-4.71,2.64,2.64,0,0,0-1.71-.86,1.92,1.92,0,0,0-1.7.86,3.42,3.42,0,0,0-.64,2.35,3.83,3.83,0,0,0,.64,2.36A1.94,1.94,0,0,0,206.63,63.43Zm0-7.29a4.47,4.47,0,0,1,2.77,1.07,4.27,4.27,0,0,1,1.07,3,5,5,0,0,1-1.07,3.43,4.35,4.35,0,0,1-2.55,1.07,3.49,3.49,0,0,1-2.56-1.07c-.85-.64-1.06-1.71-1.06-3.21a4.47,4.47,0,0,1,1.06-3.22A2.32,2.32,0,0,1,206.63,56.14Z"/><path class="cls-4" d="M206.63,63.43a1.74,1.74,0,0,0,1.71-.86,4.65,4.65,0,0,0,0-4.71,2.64,2.64,0,0,0-1.71-.86,1.92,1.92,0,0,0-1.7.86,3.42,3.42,0,0,0-.64,2.35,3.83,3.83,0,0,0,.64,2.36A1.94,1.94,0,0,0,206.63,63.43Zm0-7.29a4.47,4.47,0,0,1,2.77,1.07,4.27,4.27,0,0,1,1.07,3,5,5,0,0,1-1.07,3.43,4.35,4.35,0,0,1-2.55,1.07,3.49,3.49,0,0,1-2.56-1.07c-.85-.64-1.06-1.71-1.06-3.21a4.47,4.47,0,0,1,1.06-3.22A2.32,2.32,0,0,1,206.63,56.14Z"/><path d="M223.46,64.29h-1.27v-6c0-.22-.22-.43-.43-.65s-.43-.21-1.07-.21a1.5,1.5,0,0,0-1.27.64,2.43,2.43,0,0,0-.64,1.72V64.5H217.5V59.36a3,3,0,0,0-.43-1.5,1.59,1.59,0,0,0-1.06-.43,1.91,1.91,0,0,0-1.49.64,3.09,3.09,0,0,0-.64,2.36V64.5H212.6V56.57h1.28v.86a2.66,2.66,0,0,1,2.34-1.29,3.08,3.08,0,0,1,1.49.43,2.11,2.11,0,0,1,.85,1.07,3.26,3.26,0,0,1,2.56-1.5,2.28,2.28,0,0,1,2.56,2.57v5.58Z"/><path class="cls-4" d="M223.46,64.29h-1.27v-6c0-.22-.22-.43-.43-.65s-.43-.21-1.07-.21a1.5,1.5,0,0,0-1.27.64,2.43,2.43,0,0,0-.64,1.72V64.5H217.5V59.36a3,3,0,0,0-.43-1.5,1.59,1.59,0,0,0-1.06-.43,1.91,1.91,0,0,0-1.49.64,3.09,3.09,0,0,0-.64,2.36V64.5H212.6V56.57h1.28v.86a2.66,2.66,0,0,1,2.34-1.29,3.08,3.08,0,0,1,1.49.43,2.11,2.11,0,0,1,.85,1.07,3.26,3.26,0,0,1,2.56-1.5,2.28,2.28,0,0,1,2.56,2.57v5.58Z"/><path d="M114.61,73.93l-.43,1.28a1.93,1.93,0,0,0-1.06-.21,1.18,1.18,0,0,0-1.07.64,4.35,4.35,0,0,0-.42,1.93v4.29h-1.28V73.71h1.28V75c.42-.86,1.06-1.5,1.7-1.5A3,3,0,0,1,114.61,73.93Z"/><path class="cls-4" d="M114.61,73.93l-.43,1.28a1.93,1.93,0,0,0-1.06-.21,1.18,1.18,0,0,0-1.07.64,4.35,4.35,0,0,0-.42,1.93v4.29h-1.28V73.71h1.28V75c.42-.86,1.06-1.5,1.7-1.5A3,3,0,0,1,114.61,73.93Z"/><path d="M121.64,76.93c0-.86-.21-1.5-.85-1.72a2.07,2.07,0,0,0-3,0,2.47,2.47,0,0,0-.63,1.72Zm1.49,1.28h-6a2.09,2.09,0,0,0,.85,1.93,2.38,2.38,0,0,0,1.7.64,3.07,3.07,0,0,0,1.28-.42,2,2,0,0,0,.85-1.29l1.49.21a3.11,3.11,0,0,1-1.28,1.93,3.76,3.76,0,0,1-2.34.65A3.65,3.65,0,0,1,117,80.78a4.78,4.78,0,0,1,0-6,3.17,3.17,0,0,1,2.77-1.28,4.89,4.89,0,0,1,1.71.43,2.47,2.47,0,0,1,1.27,1.28A9.81,9.81,0,0,1,123.13,78.21Z"/><path class="cls-4" d="M121.64,76.93c0-.86-.21-1.5-.85-1.72a2.07,2.07,0,0,0-3,0,2.47,2.47,0,0,0-.63,1.72Zm1.49,1.28h-6a2.09,2.09,0,0,0,.85,1.93,2.38,2.38,0,0,0,1.7.64,3.07,3.07,0,0,0,1.28-.42,2,2,0,0,0,.85-1.29l1.49.21a3.11,3.11,0,0,1-1.28,1.93,3.76,3.76,0,0,1-2.34.65A3.65,3.65,0,0,1,117,80.78a4.78,4.78,0,0,1,0-6,3.17,3.17,0,0,1,2.77-1.28,4.89,4.89,0,0,1,1.71.43,2.47,2.47,0,0,1,1.27,1.28A9.81,9.81,0,0,1,123.13,78.21Z"/><path d="M129.73,76.07a1.64,1.64,0,0,0-.42-1.07,1.79,1.79,0,0,0-1.28-.43,2.74,2.74,0,0,0-1.28.21,1.13,1.13,0,0,0-.42.86c0,.22.21.64.42.64.21.22.85.22,1.49.43a10,10,0,0,1,1.92.65c.43.21.64.42,1.06.64a1.77,1.77,0,0,1,.43,1.28A2,2,0,0,1,130.8,81a3.8,3.8,0,0,1-2.34.64,3.42,3.42,0,0,1-2.35-.64,2.87,2.87,0,0,1-1.06-1.93l1.28-.21a1.29,1.29,0,0,0,.63,1.28,3.05,3.05,0,0,0,1.5.43,1.76,1.76,0,0,0,1.27-.43,1.56,1.56,0,0,0,.43-.86.8.8,0,0,0-.21-.64c-.43.22-.43.22-.64,0-.22,0-.64-.21-1.49-.43a4.77,4.77,0,0,1-2.35-1.07,2,2,0,0,1-.64-1.5,2,2,0,0,1,.86-1.71,3.56,3.56,0,0,1,2.13-.64,3.17,3.17,0,0,1,2.13.64,2.24,2.24,0,0,1,.85,1.71Z"/><path class="cls-4" d="M129.73,76.07a1.64,1.64,0,0,0-.42-1.07,1.79,1.79,0,0,0-1.28-.43,2.74,2.74,0,0,0-1.28.21,1.13,1.13,0,0,0-.42.86c0,.22.21.64.42.64.21.22.85.22,1.49.43a10,10,0,0,1,1.92.65c.43.21.64.42,1.06.64a1.77,1.77,0,0,1,.43,1.28A2,2,0,0,1,130.8,81a3.8,3.8,0,0,1-2.34.64,3.42,3.42,0,0,1-2.35-.64,2.87,2.87,0,0,1-1.06-1.93l1.28-.21a1.29,1.29,0,0,0,.63,1.28,3.05,3.05,0,0,0,1.5.43,1.76,1.76,0,0,0,1.27-.43,1.56,1.56,0,0,0,.43-.86.8.8,0,0,0-.21-.64c-.43.22-.43.22-.64,0-.22,0-.64-.21-1.49-.43a4.77,4.77,0,0,1-2.35-1.07,2,2,0,0,1-.64-1.5,2,2,0,0,1,.86-1.71,3.56,3.56,0,0,1,2.13-.64,3.17,3.17,0,0,1,2.13.64,2.24,2.24,0,0,1,.85,1.71Z"/><path d="M137,80.78a1.62,1.62,0,0,0,1.49-.85,3.51,3.51,0,0,0,.64-2.36,3.93,3.93,0,0,0-.64-2.36,2.16,2.16,0,0,0-1.49-.85,1.44,1.44,0,0,0-1.5.85,4.74,4.74,0,0,0,0,4.72A1.62,1.62,0,0,0,137,80.78Zm-2.13-6a2.44,2.44,0,0,1,2.34-1.28,3.51,3.51,0,0,1,2.55,1.07,4.55,4.55,0,0,1,.86,3,5.24,5.24,0,0,1-1.07,3.21A2.85,2.85,0,0,1,137,81.86a2.91,2.91,0,0,1-2.13-1.08v3.86h-1.28V73.5h1.28Z"/><path class="cls-4" d="M137,80.78a1.62,1.62,0,0,0,1.49-.85,3.51,3.51,0,0,0,.64-2.36,3.93,3.93,0,0,0-.64-2.36,2.16,2.16,0,0,0-1.49-.85,1.44,1.44,0,0,0-1.5.85,4.74,4.74,0,0,0,0,4.72A1.62,1.62,0,0,0,137,80.78Zm-2.13-6a2.44,2.44,0,0,1,2.34-1.28,3.51,3.51,0,0,1,2.55,1.07,4.55,4.55,0,0,1,.86,3,5.24,5.24,0,0,1-1.07,3.21A2.85,2.85,0,0,1,137,81.86a2.91,2.91,0,0,1-2.13-1.08v3.86h-1.28V73.5h1.28Z"/><path d="M146.14,80.78a1.72,1.72,0,0,0,1.7-.85,4.67,4.67,0,0,0,0-4.72,2.61,2.61,0,0,0-1.7-.85,2,2,0,0,0-1.71.85,3.51,3.51,0,0,0-.64,2.36,3.93,3.93,0,0,0,.64,2.36A2,2,0,0,0,146.14,80.78Zm0-7.28a4.52,4.52,0,0,1,2.77,1.07,4.28,4.28,0,0,1,1.06,3A5.1,5.1,0,0,1,148.91,81a4.46,4.46,0,0,1-2.56,1.07A3.53,3.53,0,0,1,143.79,81c-.85-.64-1.06-1.72-1.06-3.22a4.83,4.83,0,0,1,1.06-3.21A2.76,2.76,0,0,1,146.14,73.5Z"/><path class="cls-4" d="M146.14,80.78a1.72,1.72,0,0,0,1.7-.85,4.67,4.67,0,0,0,0-4.72,2.61,2.61,0,0,0-1.7-.85,2,2,0,0,0-1.71.85,3.51,3.51,0,0,0-.64,2.36,3.93,3.93,0,0,0,.64,2.36A2,2,0,0,0,146.14,80.78Zm0-7.28a4.52,4.52,0,0,1,2.77,1.07,4.28,4.28,0,0,1,1.06,3A5.1,5.1,0,0,1,148.91,81a4.46,4.46,0,0,1-2.56,1.07A3.53,3.53,0,0,1,143.79,81c-.85-.64-1.06-1.72-1.06-3.22a4.83,4.83,0,0,1,1.06-3.21A2.76,2.76,0,0,1,146.14,73.5Z"/><path d="M158.49,81.86h-1.28V76.93a3.39,3.39,0,0,0-.42-1.72,1.83,1.83,0,0,0-1.28-.43,1.57,1.57,0,0,0-1.07.22,1.7,1.7,0,0,0-.85.86,3.2,3.2,0,0,0-.21,1.5v4.5H152.1V73.71h1.28v1.07a2.66,2.66,0,0,1,1.06-1.07,3.16,3.16,0,0,1,1.5-.42,2.7,2.7,0,0,1,1.27.21c.43.21.64.43,1.07.64a1.66,1.66,0,0,1,.42,1.07v6.65Z"/><path class="cls-4" d="M158.49,81.86h-1.28V76.93a3.39,3.39,0,0,0-.42-1.72c-.22-.43-.64-.43-1.28-.43a1.57,1.57,0,0,0-1.07.22,1.7,1.7,0,0,0-.85.86,3.2,3.2,0,0,0-.21,1.5v4.5H152.1V73.71h1.28v1.07a2.66,2.66,0,0,1,1.06-1.07,3.16,3.16,0,0,1,1.5-.42,2.7,2.7,0,0,1,1.27.21c.43.21.64.43,1.07.64a1.66,1.66,0,0,1,.42,1.07v6.65Z"/><path d="M165.73,76.07a1.64,1.64,0,0,0-.42-1.07,1.77,1.77,0,0,0-1.28-.43,2.74,2.74,0,0,0-1.28.21c-.42.22-.42.43-.42.86,0,.22.21.64.42.64.21.22.85.22,1.49.43a9.73,9.73,0,0,1,1.92.65,4.43,4.43,0,0,1,1.07.64,1.81,1.81,0,0,1,.42,1.28A2,2,0,0,1,166.8,81a4.62,4.62,0,0,1-4.69,0,2.87,2.87,0,0,1-1.06-1.93l1.28-.21a1.29,1.29,0,0,0,.63,1.28,3.05,3.05,0,0,0,1.5.43,1.74,1.74,0,0,0,1.27-.43,1.56,1.56,0,0,0,.43-.86.8.8,0,0,0-.21-.64c-.22-.21-.43-.21-.64-.43-.21,0-.64-.21-1.49-.43a4.77,4.77,0,0,1-2.35-1.07,2.11,2.11,0,0,1,.22-3.21,3.13,3.13,0,0,1,2.13-.64,3.17,3.17,0,0,1,2.13.64,2.25,2.25,0,0,1,.85,1.71Z"/><path class="cls-4" d="M165.73,76.07a1.64,1.64,0,0,0-.42-1.07,1.77,1.77,0,0,0-1.28-.43,2.74,2.74,0,0,0-1.28.21c-.42.22-.42.43-.42.86,0,.22.21.64.42.64.21.22.85.22,1.49.43a9.73,9.73,0,0,1,1.92.65,4.43,4.43,0,0,1,1.07.64,1.81,1.81,0,0,1,.42,1.28A2,2,0,0,1,166.8,81a4.62,4.62,0,0,1-4.69,0,2.87,2.87,0,0,1-1.06-1.93l1.28-.21a1.29,1.29,0,0,0,.63,1.28,3.05,3.05,0,0,0,1.5.43,1.74,1.74,0,0,0,1.27-.43,1.56,1.56,0,0,0,.43-.86.8.8,0,0,0-.21-.64c-.22-.21-.43-.21-.64-.43-.21,0-.64-.21-1.49-.43a4.77,4.77,0,0,1-2.35-1.07,2.11,2.11,0,0,1,.22-3.21,3.13,3.13,0,0,1,2.13-.64,3.17,3.17,0,0,1,2.13.64,2.25,2.25,0,0,1,.85,1.71Z"/><path d="M170.85,72.21h-1.28v-1.5h1.28Zm0,9.65h-1.28V73.71h1.28Z"/><path class="cls-4" d="M170.85,72.21h-1.28v-1.5h1.28Zm0,9.65h-1.28V73.71h1.28Z"/><path d="M177,80.78a1.62,1.62,0,0,0,1.5-.85,3.93,3.93,0,0,0,.63-2.36,3.23,3.23,0,0,0-.63-2.14,1.61,1.61,0,0,0-1.5-.86,1.43,1.43,0,0,0-1.49.86,3.66,3.66,0,0,0-.64,2.14c0,.86,0,1.5.22,1.71a1.62,1.62,0,0,0,.85.86C176.17,80.78,176.6,80.78,177,80.78Zm-2.13-6A2.63,2.63,0,0,1,177,73.71a3.53,3.53,0,0,1,2.56,1.07,4.56,4.56,0,0,1,.85,3A4.46,4.46,0,0,1,179.37,81,3.42,3.42,0,0,1,177,82.07a2.35,2.35,0,0,1-2.13-1.29v1.08h-1.27V70.71h1.27Z"/><path class="cls-4" d="M177,80.78a1.62,1.62,0,0,0,1.5-.85,3.93,3.93,0,0,0,.63-2.36,3.23,3.23,0,0,0-.63-2.14,1.61,1.61,0,0,0-1.5-.86,1.43,1.43,0,0,0-1.49.86,3.66,3.66,0,0,0-.64,2.14c0,.86,0,1.5.22,1.71a1.62,1.62,0,0,0,.85.86C176.17,80.78,176.6,80.78,177,80.78Zm-2.13-6A2.63,2.63,0,0,1,177,73.71a3.53,3.53,0,0,1,2.56,1.07,4.56,4.56,0,0,1,.85,3A4.46,4.46,0,0,1,179.37,81,3.42,3.42,0,0,1,177,82.07a2.35,2.35,0,0,1-2.13-1.29v1.08h-1.27V70.71h1.27Z"/><path d="M184.05,70.71h-1.27V81.86h1.27Z"/><path class="cls-4" d="M184.05,70.71h-1.27V81.86h1.27Z"/><path d="M192.36,76.93c0-.86-.21-1.5-.85-1.72a2.05,2.05,0,0,0-3,0,2.43,2.43,0,0,0-.64,1.72Zm1.49,1.28h-6a2.09,2.09,0,0,0,.85,1.93,2.4,2.4,0,0,0,1.7.64,3,3,0,0,0,1.28-.42,2,2,0,0,0,.85-1.29l1.5.21a3.15,3.15,0,0,1-1.28,1.93,3.81,3.81,0,0,1-2.35.65,3.66,3.66,0,0,1-2.77-1.08,4.78,4.78,0,0,1,0-6,3.18,3.18,0,0,1,2.77-1.28,4.89,4.89,0,0,1,1.71.43,1.93,1.93,0,0,1,1.28,1.28A10.19,10.19,0,0,1,193.85,78.21Z"/><path class="cls-4" d="M192.36,76.93c0-.86-.21-1.5-.85-1.72a2.05,2.05,0,0,0-3,0,2.43,2.43,0,0,0-.64,1.72Zm1.49,1.28h-6a2.09,2.09,0,0,0,.85,1.93,2.4,2.4,0,0,0,1.7.64,3,3,0,0,0,1.28-.42,2,2,0,0,0,.85-1.29l1.5.21a3.15,3.15,0,0,1-1.28,1.93,3.81,3.81,0,0,1-2.35.65,3.66,3.66,0,0,1-2.77-1.08,4.78,4.78,0,0,1,0-6,3.18,3.18,0,0,1,2.77-1.28,4.89,4.89,0,0,1,1.71.43,1.93,1.93,0,0,1,1.28,1.28A10.19,10.19,0,0,1,193.85,78.21Z"/><path d="M205.36,76.07a1.64,1.64,0,0,0-.43-1.07,1.77,1.77,0,0,0-1.28-.43,2.76,2.76,0,0,0-1.28.21c-.42.22-.42.43-.42.86,0,.22.21.64.42.64.22.22.86.22,1.49.43a9.5,9.5,0,0,1,1.92.65,4.43,4.43,0,0,1,1.07.64,1.81,1.81,0,0,1,.42,1.28,2,2,0,0,1-.85,1.72,4.62,4.62,0,0,1-4.69,0,2.91,2.91,0,0,1-1.06-1.93l1.28-.21a1.28,1.28,0,0,0,.64,1.28,3,3,0,0,0,1.49.43,1.79,1.79,0,0,0,1.28-.43.86.86,0,0,0,.42-.86.8.8,0,0,0-.21-.64c-.21-.21-.43-.21-.64-.43-.21,0-.64-.21-1.49-.43a4.68,4.68,0,0,1-2.34-1.07,2.11,2.11,0,0,1,.21-3.21,3.86,3.86,0,0,1,4.26,0,2.25,2.25,0,0,1,.85,1.71Z"/><path class="cls-4" d="M205.36,76.07a1.64,1.64,0,0,0-.43-1.07,1.77,1.77,0,0,0-1.28-.43,2.76,2.76,0,0,0-1.28.21c-.42.22-.42.43-.42.86,0,.22.21.64.42.64.22.22.86.22,1.49.43a9.5,9.5,0,0,1,1.92.65,4.43,4.43,0,0,1,1.07.64,1.81,1.81,0,0,1,.42,1.28,2,2,0,0,1-.85,1.72,4.62,4.62,0,0,1-4.69,0,2.91,2.91,0,0,1-1.06-1.93l1.28-.21a1.28,1.28,0,0,0,.64,1.28,3,3,0,0,0,1.49.43,1.79,1.79,0,0,0,1.28-.43.86.86,0,0,0,.42-.86.8.8,0,0,0-.21-.64c-.21-.21-.43-.21-.64-.43-.21,0-.64-.21-1.49-.43a4.68,4.68,0,0,1-2.34-1.07,2.11,2.11,0,0,1,.21-3.21,3.86,3.86,0,0,1,4.26,0,2.25,2.25,0,0,1,.85,1.71Z"/><path d="M212.6,80.78a1.72,1.72,0,0,0,1.7-.85,4.67,4.67,0,0,0,0-4.72,2.58,2.58,0,0,0-1.7-.85,2,2,0,0,0-1.71.85,3.51,3.51,0,0,0-.63,2.36,3.93,3.93,0,0,0,.63,2.36A2,2,0,0,0,212.6,80.78Zm0-7.28a4.5,4.5,0,0,1,2.77,1.07,3.49,3.49,0,0,1,1.06,3A5,5,0,0,1,215.37,81a4.44,4.44,0,0,1-2.56,1.07A3.51,3.51,0,0,1,210.26,81a4.46,4.46,0,0,1-1.07-3.22,4.83,4.83,0,0,1,1.07-3.21A2.73,2.73,0,0,1,212.6,73.5Z"/><path class="cls-4" d="M212.6,80.78a1.72,1.72,0,0,0,1.7-.85,4.67,4.67,0,0,0,0-4.72,2.58,2.58,0,0,0-1.7-.85,2,2,0,0,0-1.71.85,3.51,3.51,0,0,0-.63,2.36,3.93,3.93,0,0,0,.63,2.36A2,2,0,0,0,212.6,80.78Zm0-7.28a4.5,4.5,0,0,1,2.77,1.07,4.24,4.24,0,0,1,1.06,3A5,5,0,0,1,215.37,81a4.44,4.44,0,0,1-2.56,1.07A3.51,3.51,0,0,1,210.26,81a4.46,4.46,0,0,1-1.07-3.22,4.83,4.83,0,0,1,1.07-3.21A2.73,2.73,0,0,1,212.6,73.5Z"/><path d="M225,81.86h-1.27V80.57a3,3,0,0,1-2.56,1.29,3.08,3.08,0,0,1-1.49-.43,1.43,1.43,0,0,1-.85-1.07,4.11,4.11,0,0,1-.22-1.72V73.71h1.28v6a1.13,1.13,0,0,0,.64.86,1.62,1.62,0,0,0,1.07.21,4,4,0,0,0,1.49-.42,2.9,2.9,0,0,0,.64-2.15V73.93H225Z"/><path class="cls-4" d="M225,81.86h-1.27V80.57a3,3,0,0,1-2.56,1.29,3.08,3.08,0,0,1-1.49-.43,1.43,1.43,0,0,1-.85-1.07,4.11,4.11,0,0,1-.22-1.72V73.71h1.28v6a1.13,1.13,0,0,0,.64.86,1.62,1.62,0,0,0,1.07.21,4,4,0,0,0,1.49-.42,2.9,2.9,0,0,0,.64-2.15V73.93H225v7.93Z"/><path d="M232,73.93l-.42,1.28a2,2,0,0,0-1.07-.21,1.16,1.16,0,0,0-1.06.64,4.34,4.34,0,0,0-.43,1.93v4.29h-1.28V73.71H229V75c.43-.86,1.07-1.5,1.71-1.5A2.91,2.91,0,0,1,232,73.93Z"/><path class="cls-4" d="M232,73.93l-.42,1.28a2,2,0,0,0-1.07-.21,1.16,1.16,0,0,0-1.06.64,4.34,4.34,0,0,0-.43,1.93v4.29h-1.28V73.71H229V75c.43-.86,1.07-1.5,1.71-1.5A2.91,2.91,0,0,1,232,73.93Z"/><path d="M240.08,79.07a3.11,3.11,0,0,1-1.28,2.14,3.58,3.58,0,0,1-2.13.65,4,4,0,0,1-2.77-1.08,5.61,5.61,0,0,1-.21-5.57A3.52,3.52,0,0,1,235,73.93a4.79,4.79,0,0,1,1.7-.43,3.58,3.58,0,0,1,2.13.64,2.87,2.87,0,0,1,1.06,1.93l-1.27.21A8,8,0,0,0,238,75a1.79,1.79,0,0,0-1.28-.43,1.71,1.71,0,0,0-1.7.86,4.65,4.65,0,0,0,0,4.71,1.72,1.72,0,0,0,1.7.86,1.83,1.83,0,0,0,1.28-.43,2,2,0,0,0,.64-1.5Z"/><path class="cls-4" d="M240.08,79.07a3.11,3.11,0,0,1-1.28,2.14,3.58,3.58,0,0,1-2.13.65,4,4,0,0,1-2.77-1.08,5.61,5.61,0,0,1-.21-5.57A3.52,3.52,0,0,1,235,73.93a4.79,4.79,0,0,1,1.7-.43,3.58,3.58,0,0,1,2.13.64,2.87,2.87,0,0,1,1.06,1.93l-1.27.21A8,8,0,0,0,238,75a1.79,1.79,0,0,0-1.28-.43,1.71,1.71,0,0,0-1.7.86,4.65,4.65,0,0,0,0,4.71,1.72,1.72,0,0,0,1.7.86,1.83,1.83,0,0,0,1.28-.43,2,2,0,0,0,.64-1.5Z"/><path d="M247.32,76.93c0-.86-.21-1.5-.85-1.72a2.05,2.05,0,0,0-3,0,2.43,2.43,0,0,0-.64,1.72Zm1.49,1.28h-6a2.09,2.09,0,0,0,.85,1.93,2.38,2.38,0,0,0,1.7.64,3.07,3.07,0,0,0,1.28-.42,2,2,0,0,0,.85-1.29l1.49.21a3.14,3.14,0,0,1-1.27,1.93,3.81,3.81,0,0,1-2.35.65,3.65,3.65,0,0,1-2.77-1.08,4.78,4.78,0,0,1,0-6,3.17,3.17,0,0,1,2.77-1.28,4.89,4.89,0,0,1,1.71.43,1.9,1.9,0,0,1,1.27,1.28A9.81,9.81,0,0,1,248.81,78.21Z"/><path class="cls-4" d="M247.32,76.93c0-.86-.21-1.5-.85-1.72a2.05,2.05,0,0,0-3,0,2.43,2.43,0,0,0-.64,1.72Zm1.49,1.28h-6a2.09,2.09,0,0,0,.85,1.93,2.38,2.38,0,0,0,1.7.64,3.07,3.07,0,0,0,1.28-.42,2,2,0,0,0,.85-1.29l1.49.21a3.14,3.14,0,0,1-1.27,1.93,3.81,3.81,0,0,1-2.35.65,3.65,3.65,0,0,1-2.77-1.08,4.78,4.78,0,0,1,0-6,3.17,3.17,0,0,1,2.77-1.28,4.89,4.89,0,0,1,1.71.43,1.9,1.9,0,0,1,1.27,1.28A9.81,9.81,0,0,1,248.81,78.21Z"/><path d="M255.41,76.07A1.64,1.64,0,0,0,255,75a1.77,1.77,0,0,0-1.28-.43,2.74,2.74,0,0,0-1.28.21,1.13,1.13,0,0,0-.42.86c0,.22.21.64.42.64.22.22.85.22,1.49.43a9.73,9.73,0,0,1,1.92.65,4.43,4.43,0,0,1,1.07.64,1.81,1.81,0,0,1,.42,1.28,2,2,0,0,1-.85,1.72,4.62,4.62,0,0,1-4.69,0,2.87,2.87,0,0,1-1.06-1.93l1.28-.21a1.28,1.28,0,0,0,.64,1.28,3,3,0,0,0,1.49.43,1.74,1.74,0,0,0,1.27-.43,1.56,1.56,0,0,0,.43-.86.8.8,0,0,0-.21-.64c-.22-.21-.43-.21-.64-.43-.21,0-.64-.21-1.49-.43a4.77,4.77,0,0,1-2.35-1.07,2.11,2.11,0,0,1,.22-3.21,3.86,3.86,0,0,1,4.26,0,2.25,2.25,0,0,1,.85,1.71Z"/><path class="cls-4" d="M255.41,76.07A1.64,1.64,0,0,0,255,75a1.77,1.77,0,0,0-1.28-.43,2.74,2.74,0,0,0-1.28.21,1.13,1.13,0,0,0-.42.86c0,.22.21.64.42.64.22.22.85.22,1.49.43a9.73,9.73,0,0,1,1.92.65,4.43,4.43,0,0,1,1.07.64,1.81,1.81,0,0,1,.42,1.28,2,2,0,0,1-.85,1.72,4.62,4.62,0,0,1-4.69,0,2.87,2.87,0,0,1-1.06-1.93l1.28-.21a1.28,1.28,0,0,0,.64,1.28,3,3,0,0,0,1.49.43,1.74,1.74,0,0,0,1.27-.43,1.56,1.56,0,0,0,.43-.86.8.8,0,0,0-.21-.64c-.22-.21-.43-.21-.64-.43-.21,0-.64-.21-1.49-.43a4.77,4.77,0,0,1-2.35-1.07,2.11,2.11,0,0,1,.22-3.21,3.86,3.86,0,0,1,4.26,0,2.25,2.25,0,0,1,.85,1.71Z"/><path d="M121.21,98.14h-7.88v4.72h6.82v1.71h-6.82v6.64h-1.92V96.43h9.8Z"/><path class="cls-3" d="M121.21,98.14h-7.88v4.72h6.82v1.71h-6.82v6.64h-1.92V96.43h9.8Z"/><path d="M133.36,100.71a2.65,2.65,0,0,0-1.07-2.14,5.42,5.42,0,0,0-5.11,0,1.74,1.74,0,0,0-.85,1.71,1.94,1.94,0,0,0,.63,1.5,10.43,10.43,0,0,0,2.77.86,27.55,27.55,0,0,1,3,.86,3.06,3.06,0,0,1,1.91,1.28,3,3,0,0,1,.86,2.36,3.87,3.87,0,0,1-1.5,3.22,6.13,6.13,0,0,1-4,1.28,7.27,7.27,0,0,1-4.69-1.28,5.38,5.38,0,0,1-1.7-3.65l1.91-.21a3,3,0,0,0,1.28,2.57,4.89,4.89,0,0,0,3,.86,4.51,4.51,0,0,0,2.56-.65,2.24,2.24,0,0,0,1.07-1.92,1.71,1.71,0,0,0-1.07-1.72,15.22,15.22,0,0,0-3.62-1.07,9.7,9.7,0,0,1-3.62-1.5A3.55,3.55,0,0,1,124,100.5a3.49,3.49,0,0,1,1.49-3c.86-.86,2.13-1.07,3.84-1.07a7.6,7.6,0,0,1,4.05,1.07,3.88,3.88,0,0,1,1.49,3.21Z"/><path class="cls-3" d="M133.36,100.71a2.65,2.65,0,0,0-1.07-2.14,5.42,5.42,0,0,0-5.11,0,1.74,1.74,0,0,0-.85,1.71,1.94,1.94,0,0,0,.63,1.5,10.43,10.43,0,0,0,2.77.86,27.55,27.55,0,0,1,3,.86,3.06,3.06,0,0,1,1.91,1.28,3,3,0,0,1,.86,2.36,3.87,3.87,0,0,1-1.5,3.22,6.13,6.13,0,0,1-4,1.28,7.27,7.27,0,0,1-4.69-1.28,5.38,5.38,0,0,1-1.7-3.65l1.91-.21a3,3,0,0,0,1.28,2.57,4.89,4.89,0,0,0,3,.86,4.51,4.51,0,0,0,2.56-.65,2.24,2.24,0,0,0,1.07-1.92,1.71,1.71,0,0,0-1.07-1.72,15.22,15.22,0,0,0-3.62-1.07,9.7,9.7,0,0,1-3.62-1.5A3.55,3.55,0,0,1,124,100.5a3.49,3.49,0,0,1,1.49-3c.86-.86,2.13-1.07,3.84-1.07a7.6,7.6,0,0,1,4.05,1.07,3.88,3.88,0,0,1,1.49,3.21Z"/><path d="M151.67,106.5a5.71,5.71,0,0,1-2.34,3.64,5.89,5.89,0,0,1-3.83,1.29,6.32,6.32,0,0,1-5.33-2.36,9.63,9.63,0,0,1-1.7-5.57,7.7,7.7,0,0,1,1.91-5.57A6.89,6.89,0,0,1,145.5,96a6.61,6.61,0,0,1,3.62,1.07,5.11,5.11,0,0,1,2.13,3.21l-1.92.43a6.25,6.25,0,0,0-1.49-2.35,3.36,3.36,0,0,0-2.56-.86,4.12,4.12,0,0,0-3.62,1.5,6.83,6.83,0,0,0-1.28,4.28c0,2.15.43,3.65,1.28,4.5a4.75,4.75,0,0,0,6.18.65,5,5,0,0,0,1.49-2.79Z"/><path class="cls-3" d="M151.67,106.5a5.71,5.71,0,0,1-2.34,3.64,5.89,5.89,0,0,1-3.83,1.29,6.32,6.32,0,0,1-5.33-2.36,9.63,9.63,0,0,1-1.7-5.57,7.7,7.7,0,0,1,1.91-5.57A6.89,6.89,0,0,1,145.5,96a6.61,6.61,0,0,1,3.62,1.07,5.11,5.11,0,0,1,2.13,3.21l-1.92.43a6.25,6.25,0,0,0-1.49-2.35,3.36,3.36,0,0,0-2.56-.86,4.12,4.12,0,0,0-3.62,1.5,6.83,6.83,0,0,0-1.28,4.28c0,2.15.43,3.65,1.28,4.5a4.75,4.75,0,0,0,6.18.65,5,5,0,0,0,1.49-2.79Z"/><path d="M156.15,100.07H157c.43,0,.64,0,.85-.21s.22-.22.22-.43,0-.43-.22-.43c-.21-.22-.42-.22-.85-.22h-.85Zm2.77,2.14h-.85c-.43-.85-.86-1.5-1.07-1.5a.79.79,0,0,0-.64-.21h-.42v1.71h-.64V98.14h2.55c.22,0,.43.22.64.43a.79.79,0,0,1,.21.64c0,.22-.21.65-.21.86a1.1,1.1,0,0,1-.85.43c.21,0,.64.43.85,1.07Zm-1.71,1.07a2.45,2.45,0,0,0,2.13-.85,3,3,0,0,0,.86-2.36,2.49,2.49,0,0,0-.86-2.14,2.87,2.87,0,0,0-2.34-.86,3.16,3.16,0,0,0-2.34.86,2.74,2.74,0,0,0-.85,2.14,2.48,2.48,0,0,0,.85,2.14A3.34,3.34,0,0,0,157.21,103.28Zm0-6.85A4.47,4.47,0,0,1,160,97.5a3.3,3.3,0,0,1,1.07,2.78,4.53,4.53,0,0,1-1.07,2.79,3.25,3.25,0,0,1-2.77,1.07,4.52,4.52,0,0,1-2.77-1.07,4.12,4.12,0,0,1-1.06-2.79,4.57,4.57,0,0,1,1.06-2.78A4.52,4.52,0,0,1,157.21,96.43Z"/><path class="cls-5" d="M156.15,100.07H157c.43,0,.64,0,.85-.21s.22-.22.22-.43,0-.43-.22-.43c-.21-.22-.42-.22-.85-.22h-.85Zm2.77,2.14h-.85c-.43-.85-.86-1.5-1.07-1.5a.79.79,0,0,0-.64-.21h-.42v1.71h-.64V98.14h2.55c.22,0,.43.22.64.43a.79.79,0,0,1,.21.64c0,.22-.21.65-.21.86a1.1,1.1,0,0,1-.85.43c.21,0,.64.43.85,1.07Zm-1.71,1.07a2.45,2.45,0,0,0,2.13-.85,3,3,0,0,0,.86-2.36,2.49,2.49,0,0,0-.86-2.14,2.87,2.87,0,0,0-2.34-.86,3.16,3.16,0,0,0-2.34.86,2.74,2.74,0,0,0-.85,2.14,2.48,2.48,0,0,0,.85,2.14A3.34,3.34,0,0,0,157.21,103.28Zm0-6.85A4.47,4.47,0,0,1,160,97.5a3.3,3.3,0,0,1,1.07,2.78,4.53,4.53,0,0,1-1.07,2.79,3.25,3.25,0,0,1-2.77,1.07,4.52,4.52,0,0,1-2.77-1.07,4.12,4.12,0,0,1-1.06-2.79,4.57,4.57,0,0,1,1.06-2.78A4.52,4.52,0,0,1,157.21,96.43Z"/><path d="M182.78,106.5a5.76,5.76,0,0,1-2.35,3.64,5.89,5.89,0,0,1-3.83,1.29,6.32,6.32,0,0,1-5.33-2.36,9.63,9.63,0,0,1-1.7-5.57,7.66,7.66,0,0,1,1.92-5.57A6.85,6.85,0,0,1,176.6,96a6.61,6.61,0,0,1,3.62,1.07,5.11,5.11,0,0,1,2.13,3.21l-1.71.65a6.3,6.3,0,0,0-1.49-2.36,4.54,4.54,0,0,0-2.55-.86,4.11,4.11,0,0,0-3.62,1.5,6.78,6.78,0,0,0-1.28,4.29c0,2.14.42,3.64,1.28,4.5a4.72,4.72,0,0,0,6.17.64,5,5,0,0,0,1.49-2.78Z"/><path class="cls-3" d="M182.78,106.5a5.76,5.76,0,0,1-2.35,3.64,5.89,5.89,0,0,1-3.83,1.29,6.32,6.32,0,0,1-5.33-2.36,9.63,9.63,0,0,1-1.7-5.57,7.66,7.66,0,0,1,1.92-5.57A6.85,6.85,0,0,1,176.6,96a6.61,6.61,0,0,1,3.62,1.07,5.11,5.11,0,0,1,2.13,3.21l-1.71.65a6.3,6.3,0,0,0-1.49-2.36,4.54,4.54,0,0,0-2.55-.86,4.11,4.11,0,0,0-3.62,1.5,6.78,6.78,0,0,0-1.28,4.29c0,2.14.42,3.64,1.28,4.5a4.72,4.72,0,0,0,6.17.64,5,5,0,0,0,1.49-2.78Z"/><path d="M192.15,111.21h-1.92V99.64a11.47,11.47,0,0,1-3.62,2.14v-1.71a9.18,9.18,0,0,0,4.26-3.64h1.28Z"/><path class="cls-3" d="M192.15,111.21h-1.92V99.64a11.47,11.47,0,0,1-3.62,2.14v-1.71a9.18,9.18,0,0,0,4.26-3.64h1.28v14.78Z"/><path d="M204.5,111.21h-1.91V99.64a11.53,11.53,0,0,1-3.63,2.14v-1.71a9.21,9.21,0,0,0,4.27-3.64h1.27Z"/><path class="cls-3" d="M204.5,111.21h-1.91V99.64a11.53,11.53,0,0,1-3.63,2.14v-1.71a9.21,9.21,0,0,0,4.27-3.64h1.27v14.78Z"/><path d="M215.79,106.07V99.43l-4.47,6.64Zm3.84,1.71h-1.92v3.43h-1.92v-3.43H209.4v-1.71l6.82-9.64h1.49v9.64h1.92Z"/><path class="cls-3" d="M215.79,106.07V99.43l-4.47,6.64Zm3.84,1.71h-1.92v3.43h-1.92v-3.43H209.4v-1.71l6.82-9.64h1.49v9.64h1.92Z"/><path d="M227.3,109.93a2.25,2.25,0,0,0,1.92-1.07,4.58,4.58,0,0,0,.85-2.36,3.27,3.27,0,0,0-.85-2.36,2.48,2.48,0,0,0-2.13-.86,2.75,2.75,0,0,0-2.14.86,3,3,0,0,0-.85,2.36,3.46,3.46,0,0,0,.85,2.57A3.23,3.23,0,0,0,227.3,109.93Zm-3.41-6.22a4,4,0,0,1,3.62-1.93,3.55,3.55,0,0,1,3,1.29,4.85,4.85,0,0,1,1.28,3.43,5.38,5.38,0,0,1-1.28,3.64,4,4,0,0,1-3.4,1.5,4.68,4.68,0,0,1-3.63-1.5c-1.06-1.07-1.49-3-1.49-5.57a11.44,11.44,0,0,1,1.28-6,4.29,4.29,0,0,1,3.84-1.93,3.9,3.9,0,0,1,2.76.86,4,4,0,0,1,1.5,2.78l-1.71.22c-.42-1.5-1.06-2.36-2.55-2.36a2.94,2.94,0,0,0-2.35,1.29A9.31,9.31,0,0,0,223.89,103.71Z"/><path class="cls-3" d="M227.3,109.93a2.25,2.25,0,0,0,1.92-1.07,4.58,4.58,0,0,0,.85-2.36,3.27,3.27,0,0,0-.85-2.36,2.48,2.48,0,0,0-2.13-.86,2.75,2.75,0,0,0-2.14.86,3,3,0,0,0-.85,2.36,3.46,3.46,0,0,0,.85,2.57A3.23,3.23,0,0,0,227.3,109.93Zm-3.41-6.22a4,4,0,0,1,3.62-1.93,3.55,3.55,0,0,1,3,1.29,4.85,4.85,0,0,1,1.28,3.43,5.38,5.38,0,0,1-1.28,3.64,4,4,0,0,1-3.4,1.5,4.68,4.68,0,0,1-3.63-1.5c-1.06-1.07-1.49-3-1.49-5.57a11.44,11.44,0,0,1,1.28-6,4.29,4.29,0,0,1,3.84-1.93,3.9,3.9,0,0,1,2.76.86,4,4,0,0,1,1.5,2.78l-1.71.22c-.42-1.5-1.06-2.36-2.55-2.36a2.94,2.94,0,0,0-2.35,1.29A9.31,9.31,0,0,0,223.89,103.71Z"/><path d="M239.23,109.93a2.92,2.92,0,0,0,3-3,2.78,2.78,0,0,0-.85-2.15,2.73,2.73,0,0,0-2.13-.85,2.45,2.45,0,0,0-2.13.85,3.11,3.11,0,0,0,0,4.29A2.73,2.73,0,0,0,239.23,109.93Zm0-7.29a2.4,2.4,0,0,0,1.7-.64,2.62,2.62,0,0,0,0-3.43,2.4,2.4,0,0,0-1.7-.64,2.42,2.42,0,0,0-1.71.64,2.35,2.35,0,0,0-.64,1.5,2.45,2.45,0,0,0,.64,1.71A1.93,1.93,0,0,0,239.23,102.64Zm2.13.64a3.7,3.7,0,0,1,2.77,3.86,4.4,4.4,0,0,1-1.28,3.22,4.85,4.85,0,0,1-3.41,1.28,4.51,4.51,0,0,1-3.41-1.28,4.4,4.4,0,0,1-1.28-3.22,3.25,3.25,0,0,1,.86-2.36,3.56,3.56,0,0,1,2.13-1.28,2.79,2.79,0,0,1-2.13-3,4.54,4.54,0,0,1,1.06-2.79,4.6,4.6,0,0,1,3-1.07,5.23,5.23,0,0,1,3.2,1.07,3.81,3.81,0,0,1,1.28,2.79A5.07,5.07,0,0,1,241.36,103.28Z"/><path class="cls-3" d="M239.23,109.93a2.92,2.92,0,0,0,3-3,2.78,2.78,0,0,0-.85-2.15,2.73,2.73,0,0,0-2.13-.85,2.45,2.45,0,0,0-2.13.85,3.11,3.11,0,0,0,0,4.29A2.73,2.73,0,0,0,239.23,109.93Zm0-7.29a2.4,2.4,0,0,0,1.7-.64,2.62,2.62,0,0,0,0-3.43,2.4,2.4,0,0,0-1.7-.64,2.42,2.42,0,0,0-1.71.64,2.35,2.35,0,0,0-.64,1.5,2.45,2.45,0,0,0,.64,1.71A1.93,1.93,0,0,0,239.23,102.64Zm2.13.64a3.7,3.7,0,0,1,2.77,3.86,4.4,4.4,0,0,1-1.28,3.22,4.85,4.85,0,0,1-3.41,1.28,4.51,4.51,0,0,1-3.41-1.28,4.4,4.4,0,0,1-1.28-3.22,3.25,3.25,0,0,1,.86-2.36,3.56,3.56,0,0,1,2.13-1.28,2.79,2.79,0,0,1-2.13-3,4.54,4.54,0,0,1,1.06-2.79,4.6,4.6,0,0,1,3-1.07,5.23,5.23,0,0,1,3.2,1.07,3.81,3.81,0,0,1,1.28,2.79A5.07,5.07,0,0,1,241.36,103.28Z"/><path d="M256.48,98.14a20.57,20.57,0,0,0-3.83,6,21.57,21.57,0,0,0-1.92,7.29h-1.92a16.56,16.56,0,0,1,1.49-6.65,20,20,0,0,1,3.62-6.21h-7.24V96.86h9.59v1.28Z"/><path class="cls-3" d="M256.48,98.14a20.57,20.57,0,0,0-3.83,6,21.57,21.57,0,0,0-1.92,7.29h-1.92a16.56,16.56,0,0,1,1.49-6.65,20,20,0,0,1,3.62-6.21h-7.24V96.86h9.59v1.28Z"/></svg>