<svg width="133" height="129" viewBox="0 0 133 129" fill="none" xmlns="http://www.w3.org/2000/svg">
<g clip-path="url(#clip0)">
<path d="M80.9565 5.74261L78.0413 5.13566L77.2289 8.91742L75.7952 8.63729L77.7068 0.0466309L79.1405 0.326761L78.328 3.96846L81.2432 4.5754L82.0557 0.93371L83.4894 1.21384L81.5778 9.8045L80.1441 9.52437L80.9565 5.74261Z" fill="#FF663E"/>
<path d="M86.3568 11.532C85.8311 11.3452 85.401 11.0651 85.0664 10.7383C84.7319 10.4115 84.5407 9.99126 84.3974 9.57106C84.3018 9.10418 84.254 8.59061 84.3496 8.03035C84.4452 7.47008 84.5885 6.81645 84.8753 6.16281C85.1142 5.50917 85.401 4.90222 85.7355 4.43534C86.07 3.96846 86.4046 3.54826 86.7869 3.31482C87.1692 3.03469 87.5993 2.89462 88.0772 2.84793C88.5551 2.80125 89.033 2.84793 89.5587 3.08138C90.0844 3.31482 90.5145 3.54826 90.849 3.87508C91.1836 4.2019 91.3747 4.62209 91.5181 5.04229C91.6137 5.50917 91.6615 6.02274 91.5659 6.58301C91.4703 7.14327 91.3269 7.7969 91.088 8.45054C90.849 9.15087 90.5623 9.71113 90.2278 10.178C89.8932 10.6449 89.5587 11.0184 89.1764 11.2985C88.7941 11.5787 88.364 11.7187 87.8861 11.7654C87.3604 11.8121 86.8825 11.7654 86.3568 11.532ZM86.7391 10.4581C87.3604 10.6916 87.8383 10.5982 88.2684 10.2714C88.6985 9.89788 89.033 9.33762 89.3198 8.59061L89.8454 7.18995C90.1322 6.44294 90.2278 5.7893 90.1322 5.22904C90.0366 4.66878 89.7021 4.29527 89.0808 4.10852C88.4595 3.92177 87.9816 3.96846 87.5515 4.29527C87.1214 4.66878 86.7869 5.22904 86.5001 5.97606L85.9744 7.37671C85.6877 8.12372 85.5921 8.77736 85.6877 9.33762C85.7833 9.85119 86.1656 10.2247 86.7391 10.4581Z" fill="#FF663E"/>
<path d="M97.4442 11.8121L98.7823 9.52435L98.6867 9.47766L94.9113 12.6058L95.5326 7.79688L95.437 7.75019L94.1944 10.0846L92.1395 13.773L90.9925 13.166L95.2936 5.41577L96.8707 6.25616L96.3928 9.99123L96.4884 10.0379L99.4036 7.61013L100.885 8.40383L96.5839 16.1541L95.437 15.5472L97.4442 11.8121Z" fill="#FF663E"/>
<path d="M98.3521 17.2747L103.705 10.2247L108.245 13.4929L107.528 14.4267L104.135 11.9989L102.558 14.0532L105.807 16.3876L105.091 17.3214L101.841 14.9869L100.216 17.1346L103.609 19.5624L102.892 20.4962L98.3521 17.2747Z" fill="#FF663E"/>
<path d="M112.116 30.2073C111.399 29.3203 111.208 28.4332 111.542 27.4994C111.877 26.5656 112.594 25.6786 113.788 24.7915C114.983 23.9044 116.035 23.4375 117.038 23.3908C118.042 23.3441 118.854 23.7643 119.571 24.6514C119.858 24.9782 120.001 25.3051 120.144 25.6319C120.24 25.9587 120.288 26.2388 120.288 26.5656C120.288 26.8925 120.192 27.1726 120.097 27.4527C120.001 27.7328 119.81 28.013 119.667 28.2931L118.52 27.5461C118.663 27.3593 118.759 27.1726 118.854 27.0325C118.95 26.8458 118.998 26.7057 119.045 26.519C119.045 26.3322 119.045 26.1454 118.998 25.9587C118.95 25.7719 118.854 25.5852 118.711 25.3984C118.328 24.8849 117.851 24.6981 117.277 24.7448C116.704 24.7915 116.082 25.0716 115.461 25.5852L114.266 26.4723C113.597 26.9858 113.167 27.4527 112.976 27.9663C112.785 28.4799 112.88 28.9934 113.263 29.4603C113.406 29.6471 113.597 29.7871 113.741 29.8805C113.932 29.9739 114.075 30.0206 114.266 30.0673C114.457 30.0673 114.649 30.0673 114.84 30.0206C115.031 29.9739 115.222 29.9272 115.461 29.8338L115.891 31.0944C115.604 31.1878 115.27 31.2812 114.983 31.3279C114.696 31.3745 114.362 31.3745 114.075 31.2812C113.788 31.2345 113.502 31.0944 113.215 30.9077C112.641 30.8143 112.355 30.5342 112.116 30.2073Z" fill="#FF663E"/>
<path d="M116.369 36.557C116.082 36.0901 115.939 35.6232 115.939 35.1563C115.939 34.6894 116.034 34.2692 116.226 33.849C116.417 33.4289 116.751 33.0087 117.181 32.6352C117.612 32.2616 118.137 31.8881 118.806 31.5146C119.428 31.1411 120.049 30.9077 120.622 30.7209C121.196 30.5342 121.722 30.4875 122.199 30.5342C122.677 30.5809 123.107 30.7209 123.49 30.9544C123.872 31.1878 124.207 31.5613 124.493 32.0749C124.78 32.5418 124.923 33.0087 124.923 33.4755C124.923 33.9424 124.828 34.3626 124.637 34.7828C124.446 35.203 124.111 35.6232 123.681 35.9967C123.251 36.3702 122.677 36.7437 122.056 37.1172C121.435 37.4907 120.814 37.7242 120.24 37.9109C119.667 38.0977 119.141 38.1444 118.663 38.0977C118.185 38.051 117.755 37.9109 117.373 37.6775C116.99 37.3974 116.656 37.0239 116.369 36.557ZM117.42 35.9967C117.755 36.557 118.185 36.8371 118.711 36.7904C119.236 36.7437 119.905 36.557 120.622 36.1835L121.96 35.4365C122.677 35.0163 123.203 34.5961 123.49 34.1292C123.776 33.6623 123.776 33.1487 123.442 32.6352C123.107 32.0749 122.677 31.7948 122.152 31.8414C121.578 31.8414 120.957 32.0749 120.24 32.4484L118.902 33.1954C118.185 33.6156 117.659 34.0358 117.373 34.5027C117.086 34.9229 117.086 35.4365 117.42 35.9967Z" fill="#FF663E"/>
<path d="M124.684 43.7469L127.217 42.8131L127.17 42.7198H122.199L125.831 39.4049L125.784 39.3115L123.299 40.292L119.284 41.8327L118.806 40.6655L127.17 37.444L127.791 39.0314L124.971 41.5525L125.019 41.6459H128.842L129.463 43.14L121.1 46.3615L120.622 45.1942L124.684 43.7469Z" fill="#FF663E"/>
<path d="M121.722 48.4624L130.467 46.4548L131.232 49.6763C131.423 50.5167 131.327 51.1704 130.993 51.7306C130.611 52.2909 130.037 52.6177 129.225 52.8045C128.412 52.9912 127.695 52.9445 127.122 52.6177C126.548 52.2909 126.166 51.7306 125.975 50.8902L125.545 49.0694L122.056 49.8631L121.722 48.4624ZM126.74 48.7893L127.122 50.4233C127.313 51.2637 127.839 51.5906 128.651 51.4038L129.177 51.2637C129.989 51.077 130.276 50.5634 130.085 49.723L129.703 48.0889L126.74 48.7893Z" fill="#FF663E"/>
<path d="M123.538 58.9207C123.49 58.3604 123.538 57.8935 123.729 57.4733C123.92 57.0531 124.159 56.6796 124.541 56.3995C124.923 56.1194 125.354 55.8859 125.927 55.6992C126.501 55.5124 127.122 55.419 127.886 55.3257C128.603 55.279 129.272 55.279 129.846 55.3257C130.419 55.3724 130.945 55.5591 131.375 55.7925C131.805 56.026 132.14 56.3061 132.379 56.7263C132.618 57.0998 132.761 57.5667 132.809 58.127C132.857 58.6872 132.809 59.1541 132.618 59.5743C132.427 59.9945 132.188 60.368 131.805 60.6481C131.423 60.9283 130.945 61.1617 130.419 61.3485C129.846 61.5352 129.225 61.6286 128.46 61.722C127.743 61.7687 127.074 61.7687 126.453 61.722C125.879 61.6286 125.354 61.4885 124.923 61.2551C124.493 61.0216 124.159 60.7415 123.92 60.3213C123.729 59.9478 123.585 59.4809 123.538 58.9207ZM124.685 58.8273C124.732 59.4342 125.019 59.8544 125.545 60.0879C126.07 60.3213 126.739 60.368 127.552 60.3213L129.081 60.1813C129.894 60.0879 130.563 59.9011 130.993 59.621C131.471 59.3409 131.662 58.874 131.614 58.2203C131.566 57.6134 131.28 57.1932 130.754 56.9598C130.228 56.7263 129.559 56.6796 128.747 56.7263L127.217 56.8664C126.405 56.9598 125.736 57.1465 125.306 57.4266C124.828 57.7068 124.637 58.1737 124.685 58.8273Z" fill="#FF663E"/>
<path d="M123.681 66.7176C123.729 65.9706 123.872 65.3169 124.207 64.8034C124.493 64.2898 124.876 63.8696 125.354 63.5895L126.214 64.5232C125.784 64.8501 125.449 65.1769 125.258 65.5504C125.067 65.9239 124.923 66.3441 124.923 66.811C124.876 67.3712 125.019 67.7914 125.258 68.1182C125.497 68.4451 125.879 68.5851 126.357 68.6318C126.739 68.6318 127.074 68.5384 127.265 68.3517C127.504 68.1649 127.647 67.7914 127.791 67.2312L127.982 66.2974C128.078 65.8772 128.221 65.5504 128.364 65.2703C128.556 64.9901 128.747 64.7567 128.986 64.6166C129.225 64.4299 129.464 64.3365 129.75 64.2898C130.037 64.2431 130.324 64.1964 130.61 64.1964C131.471 64.2431 132.092 64.5232 132.522 65.0835C132.952 65.6438 133.143 66.3908 133.096 67.3245C133.048 68.0249 132.904 68.6318 132.665 69.0987C132.427 69.5656 132.092 69.9391 131.662 70.2659L130.802 69.3321C131.136 69.0987 131.375 68.8186 131.566 68.4918C131.757 68.1649 131.901 67.7447 131.901 67.2779C131.949 66.7643 131.853 66.3441 131.614 66.064C131.375 65.7838 131.088 65.6438 130.61 65.5971C130.228 65.5971 129.941 65.6905 129.702 65.8772C129.464 66.064 129.32 66.4375 129.177 66.9977L128.986 67.9315C128.794 68.7252 128.46 69.2855 128.03 69.6123C127.552 69.9391 127.026 70.1259 126.405 70.0792C125.975 70.0792 125.64 69.9858 125.306 69.799C124.971 69.659 124.685 69.4255 124.446 69.1454C124.207 68.8653 124.063 68.5384 123.92 68.1182C123.729 67.6981 123.681 67.2312 123.681 66.7176Z" fill="#FF663E"/>
<path d="M130.419 76.7557L122.773 75.3083L123.06 73.9077L130.706 75.355L131.232 72.6471L132.427 72.8805L131.088 79.697L129.894 79.4636L130.419 76.7557Z" fill="#FF663E"/>
<path d="M120.144 84.1791L122.63 84.3192L123.538 81.6579L121.483 80.2573L121.96 78.9033L129.607 84.1791L128.986 85.9999L119.619 85.5798L120.144 84.1791ZM127.934 84.646L127.982 84.5526L124.589 82.2649L123.824 84.4125L127.934 84.646Z" fill="#FF663E"/>
<path d="M126.979 91.0889L125.545 93.7969C125.162 94.4972 124.685 94.9641 124.111 95.1508C123.538 95.3376 122.916 95.2909 122.247 94.9641C121.769 94.7306 121.483 94.4505 121.291 94.077C121.1 93.7035 121.1 93.33 121.196 92.8631L121.148 92.8164C120.814 93.2366 120.383 93.47 119.953 93.6101C119.523 93.7502 118.998 93.6568 118.472 93.3767C118.137 93.1899 117.851 93.0032 117.659 92.7697C117.42 92.5363 117.277 92.2561 117.182 91.976C117.086 91.6959 117.038 91.3691 117.086 91.0422C117.134 90.7154 117.229 90.3886 117.373 90.0618L118.95 87.0737L126.979 91.0889ZM118.567 90.2018C118.328 90.622 118.281 90.9956 118.328 91.3224C118.376 91.6492 118.615 91.8826 118.998 92.0694L119.428 92.2561C119.81 92.4429 120.145 92.4896 120.431 92.3495C120.718 92.2095 121.005 91.9293 121.196 91.5091L121.913 90.1085L119.284 88.8012L118.567 90.2018ZM122.247 91.7893C122.056 92.1628 121.961 92.5363 122.008 92.8164C122.056 93.0965 122.247 93.33 122.63 93.5167L123.06 93.7035C123.442 93.8902 123.729 93.9369 124.016 93.7969C124.302 93.6568 124.493 93.4233 124.732 93.0032L125.354 91.7893L122.916 90.5754L122.247 91.7893Z" fill="#FF663E"/>
<path d="M114.935 94.2638L122.295 99.3061L121.483 100.473L115.126 96.0846L112.785 99.3528L111.781 98.6525L114.935 94.2638Z" fill="#FF663E"/>
<path d="M110.3 100.427L116.895 106.449L113.024 110.465L112.116 109.671L114.983 106.683L113.071 104.955L110.3 107.85L109.392 107.056L112.163 104.162L110.156 102.341L107.289 105.329L106.381 104.535L110.3 100.427Z" fill="#FF663E"/>
<path d="M95.5802 112.239C96.5838 111.679 97.4919 111.585 98.3999 111.959C99.3079 112.332 100.12 113.173 100.885 114.433C101.65 115.694 101.984 116.768 101.936 117.748C101.889 118.682 101.363 119.476 100.359 120.036C99.9769 120.269 99.6424 120.409 99.3079 120.456C98.9734 120.503 98.6388 120.549 98.3521 120.456C98.0653 120.363 97.7786 120.316 97.4919 120.176C97.2051 120.036 96.9662 119.849 96.7272 119.662L97.6352 118.635C97.7786 118.775 97.9698 118.915 98.1131 119.009C98.2565 119.102 98.4477 119.195 98.6388 119.242C98.83 119.289 99.0211 119.289 99.2123 119.289C99.4035 119.289 99.5946 119.195 99.8336 119.055C100.359 118.729 100.646 118.308 100.646 117.748C100.646 117.188 100.455 116.581 100.025 115.881L99.2601 114.62C98.83 113.92 98.3521 113.453 97.8742 113.173C97.3963 112.892 96.8706 112.939 96.2971 113.266C96.0581 113.406 95.9148 113.546 95.8192 113.686C95.7236 113.826 95.628 114.013 95.5802 114.153C95.5325 114.34 95.5325 114.527 95.5325 114.713C95.5325 114.9 95.5803 115.087 95.628 115.32L94.2899 115.6C94.2421 115.274 94.1943 114.993 94.1943 114.667C94.1943 114.34 94.2421 114.06 94.3377 113.78C94.4333 113.499 94.5767 113.219 94.8156 112.986C94.9112 112.706 95.1979 112.472 95.5802 112.239Z" fill="#FF663E"/>
<path d="M86.7391 116.628L88.3161 118.542L90.9446 117.468L90.6579 115.04L91.996 114.48L93.0474 123.584L91.2313 124.331L85.3531 117.188L86.7391 116.628ZM91.5659 122.604L91.6615 122.557L91.1358 118.588L88.9852 119.476L91.5659 122.604Z" fill="#FF663E"/>
<path d="M83.7284 117.655L86.0223 126.152L82.7726 126.992C81.9601 127.226 81.2433 127.132 80.6698 126.806C80.0963 126.479 79.714 125.872 79.5228 125.078C79.3317 124.284 79.3795 123.584 79.6662 123.024C79.953 122.464 80.5742 122.09 81.3867 121.857L83.2505 121.39L82.3425 117.981L83.7284 117.655ZM83.5372 122.557L81.9124 122.977C81.0521 123.211 80.7176 123.677 80.9088 124.471L81.0521 124.985C81.2433 125.778 81.8168 126.059 82.677 125.825L84.3019 125.405L83.5372 122.557Z" fill="#FF663E"/>
<path d="M73.1667 119.616C73.9314 119.522 74.6004 119.569 75.1739 119.802C75.7474 120.036 76.2253 120.316 76.6076 120.689L75.7952 121.67C75.4129 121.296 75.0306 121.063 74.6004 120.923C74.1703 120.783 73.7402 120.736 73.2623 120.783C72.6888 120.829 72.2587 121.016 72.0198 121.296C71.733 121.576 71.6374 121.95 71.6852 122.417C71.733 122.79 71.8764 123.07 72.1153 123.257C72.3543 123.444 72.7366 123.537 73.3101 123.584L74.3137 123.631C74.7438 123.631 75.1261 123.724 75.4129 123.864C75.6996 124.004 75.9863 124.144 76.1775 124.331C76.3687 124.518 76.5598 124.751 76.6554 124.985C76.751 125.218 76.8466 125.498 76.8944 125.825C76.9899 126.665 76.7988 127.319 76.2731 127.786C75.7474 128.253 75.0305 128.58 74.0747 128.673C73.3579 128.766 72.7366 128.72 72.2109 128.533C71.6852 128.393 71.2551 128.113 70.8728 127.739L71.6852 126.759C71.972 127.039 72.3065 127.226 72.641 127.366C73.0234 127.506 73.4057 127.553 73.9314 127.506C74.4571 127.459 74.8394 127.272 75.1261 127.039C75.4129 126.806 75.4607 126.432 75.4129 126.012C75.3651 125.638 75.2217 125.358 74.9828 125.218C74.7438 125.031 74.3137 124.938 73.788 124.891L72.8322 124.845C72.0198 124.798 71.3985 124.564 70.9684 124.191C70.5383 123.817 70.2993 123.304 70.2515 122.697C70.2037 122.277 70.2515 121.903 70.3471 121.576C70.4427 121.25 70.6339 120.923 70.8728 120.643C71.1118 120.363 71.4463 120.176 71.8286 119.989C72.1631 119.802 72.641 119.709 73.1667 119.616Z" fill="#FF663E"/>
<path d="M66.3328 128.953L66.4762 123.537C66.4762 123.164 66.4762 122.837 66.4762 122.557C66.4762 122.277 66.4284 121.997 66.285 121.81C66.1894 121.623 66.046 121.436 65.8549 121.343C65.6637 121.25 65.377 121.156 64.9947 121.156C64.6123 121.156 64.3256 121.203 64.1344 121.296C63.9433 121.39 63.7521 121.577 63.6565 121.763C63.561 121.95 63.4654 122.23 63.4654 122.51C63.4654 122.79 63.4176 123.117 63.4176 123.491L63.2742 128.907L61.8405 128.86L61.9839 123.724C61.9839 123.117 62.0317 122.557 62.1273 122.09C62.2228 121.623 62.3662 121.203 62.6052 120.923C62.8441 120.596 63.1308 120.363 63.5132 120.223C63.8955 120.083 64.4212 119.989 65.0425 120.036C65.6637 120.036 66.1894 120.129 66.5717 120.316C66.9541 120.503 67.2408 120.736 67.4797 121.063C67.6709 121.39 67.8143 121.763 67.8621 122.277C67.9099 122.744 67.9577 123.304 67.9099 123.958L67.7665 129.093L66.3328 128.953Z" fill="#FF663E"/>
<path d="M59.4509 119.802L57.9695 128.486L56.5357 128.253L57.8261 120.736L53.7639 120.082L53.9551 118.915L59.4509 119.802Z" fill="#FF663E"/>
<path d="M51.8045 118.355L49.0805 126.759L43.728 125.078L44.1103 123.958L48.1247 125.172L48.9371 122.744L45.0661 121.577L45.4484 120.456L49.3194 121.623L50.1318 119.055L46.1175 117.841L46.4998 116.721L51.8045 118.355Z" fill="#FF663E"/>
<path d="M41.7686 114.527C42.4855 114.853 43.0112 115.274 43.3935 115.74C43.7758 116.207 44.0148 116.721 44.1103 117.235L42.8678 117.608C42.7244 117.094 42.5333 116.674 42.2943 116.347C42.0554 116.021 41.673 115.74 41.2429 115.554C40.7172 115.32 40.2871 115.227 39.9048 115.32C39.5225 115.414 39.2357 115.694 38.9968 116.114C38.8056 116.441 38.8056 116.768 38.9012 117.048C38.9968 117.328 39.2835 117.608 39.7137 117.935L40.5261 118.495C40.8606 118.729 41.1474 119.009 41.3385 119.242C41.5297 119.522 41.673 119.756 41.7208 120.036C41.7686 120.316 41.8164 120.596 41.7686 120.83C41.7208 121.11 41.6253 121.39 41.5297 121.623C41.1474 122.37 40.6217 122.837 39.9526 122.977C39.2835 123.117 38.4711 123.024 37.6109 122.604C36.9896 122.324 36.4639 121.95 36.1294 121.53C35.7949 121.11 35.5559 120.689 35.4603 120.176L36.6551 119.756C36.7507 120.129 36.894 120.456 37.133 120.783C37.3719 121.11 37.7065 121.343 38.1366 121.577C38.6145 121.81 39.0446 121.857 39.3791 121.81C39.7137 121.717 40.0004 121.483 40.1916 121.11C40.3349 120.783 40.3827 120.456 40.2871 120.176C40.1916 119.896 39.9048 119.616 39.4269 119.289L38.6623 118.729C37.9932 118.262 37.6109 117.748 37.4675 117.188C37.3241 116.628 37.3719 116.067 37.6587 115.507C37.8498 115.134 38.0888 114.853 38.3277 114.62C38.6145 114.387 38.9012 114.2 39.2835 114.106C39.6659 114.013 40.0482 114.013 40.4783 114.06C40.8606 114.2 41.2907 114.34 41.7686 114.527Z" fill="#FF663E"/>
<path d="M25.2809 107.15C25.4721 107.337 25.6155 107.523 25.7588 107.71C25.8544 107.943 25.9978 108.177 26.0934 108.41C26.1889 108.644 26.2845 108.831 26.3801 109.064C26.4757 109.297 26.5713 109.438 26.7146 109.531C26.9058 109.671 27.097 109.764 27.2881 109.718C27.4793 109.671 27.7182 109.624 28.005 109.484L28.5307 110.465C28.1005 110.745 27.6704 110.885 27.2403 110.885C26.8102 110.885 26.3801 110.745 25.9978 110.418C25.8066 110.231 25.6632 110.044 25.5199 109.858C25.4243 109.624 25.2809 109.391 25.1853 109.157C25.0898 108.924 24.9942 108.737 24.8986 108.504C24.803 108.317 24.7074 108.13 24.5641 108.037C24.3729 107.897 24.1818 107.803 23.9906 107.85C23.7994 107.897 23.5605 107.943 23.2737 108.084L22.748 107.103C23.1782 106.823 23.6083 106.683 24.0384 106.683C24.5163 106.636 24.8986 106.823 25.2809 107.15Z" fill="#FF663E"/>
<path d="M17.9691 93.8436C18.2558 94.3105 18.447 94.7773 18.4948 95.2442C18.5426 95.7111 18.447 96.1313 18.2558 96.5515C18.0647 96.9717 17.7779 97.3919 17.3478 97.8121C16.9177 98.2323 16.392 98.6058 15.7707 98.9793C15.1495 99.3528 14.576 99.6329 14.0025 99.8664C13.429 100.1 12.9033 100.147 12.4254 100.147C11.9475 100.147 11.5174 100.006 11.0873 99.773C10.705 99.5396 10.3227 99.166 10.0359 98.6992C9.74918 98.2323 9.55802 97.7654 9.51023 97.2985C9.46244 96.8316 9.55802 96.4114 9.74918 95.9912C9.94034 95.5711 10.2271 95.1509 10.6572 94.7307C11.0873 94.3105 11.613 93.937 12.2343 93.5634C12.8555 93.1899 13.429 92.9098 14.0025 92.6764C14.576 92.4429 15.0539 92.3962 15.5796 92.3962C16.0575 92.3962 16.4876 92.5363 16.9177 92.7697C17.3478 93.0032 17.6823 93.3767 17.9691 93.8436ZM16.9655 94.4505C16.631 93.937 16.1531 93.6568 15.6274 93.7035C15.0539 93.7502 14.4326 93.9836 13.7158 94.4038L12.4254 95.1975C11.7086 95.6177 11.2307 96.0846 10.9439 96.5515C10.6572 97.0184 10.705 97.532 11.0395 98.0455C11.374 98.5591 11.8519 98.8392 12.3776 98.7925C12.9511 98.7459 13.5724 98.5124 14.2415 98.0922L15.5318 97.2985C16.2486 96.8783 16.7265 96.4114 17.0133 95.9446C17.3478 95.4777 17.3 94.9641 16.9655 94.4505Z" fill="#FF663E"/>
<path d="M14.576 88.1943L15.1494 89.4549L6.92954 93.0499L5.54363 90.0618C5.2091 89.3148 5.16131 88.6145 5.40026 88.0075C5.63921 87.4006 6.1649 86.9337 6.92954 86.6069C7.55082 86.3267 8.1243 86.2334 8.69778 86.3734C9.22347 86.5135 9.70137 86.7936 10.0359 87.3539L12.6166 83.9923L13.2856 85.4397L10.7528 88.6145L11.2307 89.6883L14.576 88.1943ZM9.51021 88.5678C9.12789 87.7741 8.6022 87.5406 7.83756 87.8675L7.31187 88.1009C6.54722 88.4277 6.35606 88.988 6.73838 89.7817L7.45524 91.3224L10.2271 90.1085L9.51021 88.5678Z" fill="#FF663E"/>
<path d="M9.60582 78.2964L9.65361 78.3898C9.84477 78.4365 10.0359 78.4365 10.2271 78.5298C10.4182 78.5765 10.6094 78.6699 10.7528 78.7633C10.9439 78.8567 11.0873 79.0434 11.2307 79.2302C11.3741 79.4169 11.4696 79.6504 11.5652 79.9305C11.8042 80.8176 11.613 81.5646 10.9917 82.2182C10.3705 82.8719 9.31908 83.3854 7.93316 83.8056C6.45167 84.2258 5.25691 84.2725 4.3489 83.9924C3.44089 83.7122 2.81961 83.0119 2.48508 81.9848C2.34171 81.5646 2.29392 81.1911 2.34171 80.8643C2.34171 80.5374 2.43729 80.2106 2.58066 79.9305C2.72403 79.6504 2.8674 79.4169 3.10636 79.1835C3.34531 78.95 3.58426 78.7633 3.82321 78.6232L4.58785 79.7437C4.39669 79.8838 4.25332 79.9772 4.10995 80.1172C3.96658 80.2573 3.82321 80.3974 3.72763 80.5374C3.63205 80.6775 3.58426 80.8643 3.53647 81.051C3.48868 81.2378 3.53647 81.4245 3.58426 81.7046C3.77542 82.3116 4.10995 82.6384 4.68343 82.7785C5.25691 82.9185 5.87818 82.8719 6.69062 82.6384L8.07653 82.2649C8.45885 82.1715 8.84117 82.0315 9.12791 81.8914C9.46245 81.7513 9.7014 81.5646 9.89256 81.3778C10.0837 81.1911 10.2271 80.9576 10.2749 80.7242C10.3227 80.4907 10.3227 80.2106 10.2271 79.8838C10.0837 79.3702 9.79698 79.0434 9.46245 78.8567C9.12791 78.6699 8.65001 78.6699 8.17211 78.81L7.40747 79.0434L7.88537 80.6775L6.83399 80.9576L5.97376 78.063L10.4182 76.8024L10.8006 78.0163L9.60582 78.2964Z" fill="#FF663E"/>
<path d="M9.31902 69.799L7.0251 70.7795L7.40742 73.5341L9.89251 73.8609L10.0837 75.2616L0.812376 73.9076L0.525635 71.9934L9.08007 68.2583L9.31902 69.799ZM2.10271 72.8338V72.9271L6.16487 73.4874L5.83034 71.2464L2.10271 72.8338Z" fill="#FF663E"/>
<path d="M2.10277 65.4103V65.5037L9.03234 65.5971V66.811L0 66.7176L0.0477902 64.8967L7.02515 62.4223V62.3289L0.0955803 62.2355V61.0216L9.08013 61.1617L9.03234 62.9825L2.10277 65.4103Z" fill="#FF663E"/>
<path d="M9.22344 58.874L8.12427 58.7339L8.41101 56.6797L1.6726 55.7459L1.38586 57.8002L0.286682 57.6601L1.09911 52.1509L2.19829 52.2909L1.91155 54.3452L8.64996 55.279L8.9367 53.2247L10.0359 53.3648L9.22344 58.874Z" fill="#FF663E"/>
<path d="M11.5175 48.1823C11.183 49.2562 10.5617 49.9565 9.65368 50.2366C8.74567 50.5167 7.55091 50.4701 6.11721 50.0966C4.6835 49.723 3.67991 49.1161 3.05864 48.3691C2.43736 47.6221 2.29399 46.735 2.58073 45.6612C2.72411 45.241 2.86748 44.9141 3.05864 44.634C3.2498 44.3539 3.48875 44.1671 3.7277 43.9804C3.96665 43.8403 4.25339 43.7002 4.58792 43.6069C4.87466 43.5135 5.20919 43.4668 5.54372 43.4668L5.59151 44.8208C5.35256 44.8208 5.1614 44.8674 4.97024 44.8674C4.77908 44.9141 4.58792 44.9608 4.44455 45.0542C4.30118 45.1476 4.15781 45.2876 4.01444 45.4277C3.87107 45.5678 3.77549 45.7545 3.7277 45.988C3.53654 46.5949 3.63212 47.1085 4.06223 47.482C4.44455 47.9022 5.01803 48.1823 5.83047 48.4158L7.31196 48.836C8.12439 49.0694 8.79346 49.1161 9.31915 48.976C9.89263 48.836 10.2272 48.4625 10.4183 47.8555C10.5139 47.6221 10.5139 47.3886 10.4661 47.2019C10.4183 47.0151 10.3705 46.8284 10.2749 46.6883C10.1794 46.5482 10.0838 46.4082 9.94042 46.2681C9.79705 46.128 9.60589 46.0347 9.46252 45.8946L10.2272 44.7741C10.5139 44.9608 10.7529 45.1476 10.944 45.381C11.1352 45.6145 11.3263 45.8479 11.4697 46.128C11.6131 46.4082 11.6609 46.6883 11.7087 47.0151C11.7564 47.3419 11.6609 47.8088 11.5175 48.1823Z" fill="#FF663E"/>
<path d="M18.2081 33.9424C17.5868 34.8762 16.8222 35.3897 15.8186 35.3897C14.815 35.3897 13.7158 35.0629 12.4733 34.2692C11.2307 33.4755 10.4183 32.6818 9.9882 31.7947C9.55809 30.9077 9.70146 30.0206 10.3227 29.0401C10.5617 28.6666 10.8006 28.3865 11.0874 28.1997C11.3741 28.013 11.6609 27.8262 11.9476 27.7795C12.2343 27.6862 12.5211 27.6395 12.8556 27.6862C13.1901 27.6862 13.4769 27.7329 13.8114 27.8262L13.4769 29.1335C13.2857 29.0868 13.0468 29.0401 12.8556 29.0401C12.6644 29.0401 12.4733 29.0401 12.2821 29.0401C12.091 29.0868 11.9476 29.1335 11.7564 29.2736C11.6131 29.3669 11.4697 29.5537 11.3263 29.7405C10.9918 30.254 10.944 30.7676 11.183 31.2812C11.4219 31.7947 11.8998 32.2616 12.6167 32.6818L13.907 33.4755C14.6238 33.8957 15.2451 34.1292 15.8186 34.1292C16.3921 34.1292 16.8222 33.8957 17.2045 33.3821C17.3479 33.1487 17.4435 32.9619 17.4435 32.7752C17.4435 32.5884 17.4435 32.4017 17.4435 32.2149C17.3957 32.0282 17.3479 31.8881 17.2045 31.7014C17.1089 31.5146 16.9656 31.3745 16.8222 31.1878L17.8736 30.3474C18.0647 30.5808 18.2559 30.861 18.3993 31.1411C18.5426 31.4212 18.6382 31.7014 18.686 31.9815C18.7338 32.2616 18.7338 32.5884 18.6382 32.9153C18.5426 33.2421 18.4471 33.5689 18.2081 33.9424Z" fill="#FF663E"/>
<path d="M22.8437 27.8262C22.4614 28.2464 22.079 28.5266 21.6489 28.7133C21.2188 28.9001 20.7409 28.9468 20.3108 28.9001C19.8329 28.8534 19.355 28.7133 18.8293 28.4332C18.3036 28.1531 17.7779 27.7796 17.2044 27.3127C16.631 26.8458 16.2008 26.3789 15.8185 25.912C15.4362 25.4451 15.1972 24.9783 15.1017 24.5581C14.9583 24.0912 14.9583 23.671 15.1017 23.2041C15.1972 22.7372 15.4362 22.317 15.8185 21.8968C16.2008 21.4766 16.5832 21.1965 17.0133 21.0097C17.4434 20.823 17.9213 20.7763 18.3514 20.823C18.8293 20.8697 19.3072 21.0097 19.8329 21.2899C20.3586 21.57 20.8843 21.9435 21.4578 22.4104C22.0312 22.8773 22.4614 23.3442 22.8437 23.811C23.226 24.2779 23.4172 24.7448 23.5605 25.165C23.7039 25.6319 23.7039 26.0521 23.5605 26.519C23.4649 26.9392 23.226 27.4061 22.8437 27.8262ZM21.9357 27.0792C22.3658 26.6124 22.4614 26.0988 22.2702 25.5852C22.079 25.0716 21.6489 24.5581 21.0276 24.0445L19.8807 23.064C19.2594 22.5505 18.6381 22.2236 18.1124 22.1303C17.5868 22.0369 17.1089 22.2236 16.6787 22.6905C16.2486 23.1574 16.1531 23.671 16.3442 24.1846C16.5354 24.6981 16.9655 25.2117 17.5868 25.7253L18.7337 26.7057C19.355 27.2193 19.9763 27.5461 20.502 27.6395C21.0276 27.7329 21.5056 27.5461 21.9357 27.0792Z" fill="#FF663E"/>
<path d="M26.2846 23.8577L20.3108 17.2746L24.6597 13.5396L25.4721 14.4266L22.2224 17.2279L23.9428 19.1422L26.9058 16.5743L27.7183 17.4614L24.7553 20.0292L27.3837 22.9239L26.2846 23.8577Z" fill="#FF663E"/>
<path d="M32.4495 18.7686L27.4794 11.4385L32.3062 8.31042L32.9752 9.29088L29.3432 11.6253L30.7769 13.773L34.0744 11.6253L34.7435 12.6058L31.446 14.7534L33.6443 17.9749L32.4495 18.7686Z" fill="#FF663E"/>
<path d="M39.2835 14.5667L35.4125 6.62964L40.4782 4.24854L41.0039 5.32237L37.2285 7.09653L38.3755 9.38426L42.0075 7.70348L42.5332 8.77731L38.9012 10.4581L40.0959 12.8859L43.8713 11.1117L44.397 12.1856L39.2835 14.5667Z" fill="#FF663E"/>
<path d="M58.065 5.64925C57.7783 5.69594 57.5393 5.69594 57.3004 5.64925C57.0614 5.60257 56.7747 5.55588 56.5357 5.4625C56.2968 5.36912 56.0578 5.32243 55.8667 5.27575C55.6755 5.22906 55.4366 5.22906 55.2454 5.22906C55.0065 5.27575 54.8631 5.36912 54.7197 5.55588C54.6241 5.74263 54.5286 5.97607 54.433 6.2562L53.3338 6.02276C53.3816 5.50919 53.525 5.08899 53.8117 4.76217C54.0984 4.43535 54.4808 4.20191 54.9587 4.10854C55.1976 4.06185 55.4844 4.06185 55.7233 4.10854C55.9623 4.15522 56.249 4.20191 56.488 4.29529C56.7269 4.38867 56.9659 4.43536 57.157 4.48204C57.3482 4.52873 57.5871 4.52873 57.7783 4.52873C58.0172 4.48204 58.1606 4.38867 58.304 4.20191C58.4474 4.01516 58.4951 3.78172 58.5907 3.50159L59.6899 3.73503C59.6421 4.2486 59.4987 4.6688 59.212 4.99562C58.9253 5.32243 58.5429 5.60257 58.065 5.64925Z" fill="#FF663E"/>
</g>
<defs>
<clipPath id="clip0">
<rect width="133" height="129" fill="white"/>
</clipPath>
</defs>
</svg>
