<svg width="70" height="72" viewBox="0 0 70 72" fill="none" xmlns="http://www.w3.org/2000/svg">
<path d="M16.2052 60.2499L10.0239 66.0832L11.1933 67.4165L17.3747 61.4999L16.2052 60.2499Z" fill="black" stroke="black" stroke-width="0.5" stroke-miterlimit="10"/>
<path d="M8.68736 40.5831C8.68736 39.2498 8.10264 38.3331 7.01672 37.7498C6.26493 37.3331 5.26254 37.0831 4.17662 37.1665C3.75896 37.1665 3.25777 37.2498 2.75658 37.3331C2.25538 37.4165 1.83772 37.6665 1.42006 37.9998C0.918868 38.4165 0.584739 38.9165 0.417675 39.4998C0.334143 39.8331 0.25061 40.3331 0.25061 40.8331L0.334143 44.4998L8.7709 44.3331L8.68736 40.5831ZM1.75419 42.7498V41.0831C1.75419 40.2498 1.92125 39.7498 2.42245 39.4165C2.84011 39.1665 3.50837 38.9998 4.42722 38.9998C5.01195 38.9998 5.59667 39.0831 6.01433 39.2498C6.84966 39.5831 7.26732 40.1665 7.26732 40.9998V42.6665L1.75419 42.7498Z" fill="black" stroke="black" stroke-width="0.5" stroke-miterlimit="10"/>
<path d="M18.7112 15.4165L15.3699 18.7499L13.8663 17.1665L16.79 14.2499L15.7876 13.1665L12.864 16.0832L11.611 14.8332L14.7852 11.5832L13.6993 10.4999L9.18854 15.0832L15.2029 21.1665L19.7136 16.5832L18.7112 15.4165Z" fill="black" stroke="black" stroke-width="0.5" stroke-miterlimit="10"/>
<path d="M37.2554 8.74984V6.24984H41.432V4.58317H37.2554V2.9165H41.432V1.24984L35.5848 1.1665L35.5012 9.58317H42.2673V8.74984H37.2554Z" fill="black" stroke="black" stroke-width="0.5" stroke-miterlimit="10"/>
<path d="M60.0597 17.3332L64.9881 12.4165L63.7351 11.1665L57.7208 17.1665L61.8974 21.4165L61.9809 21.4998L63.0668 20.4165C62.9833 20.2498 62.8162 20.1665 62.7327 19.9998L60.0597 17.3332Z" fill="black" stroke="black" stroke-width="0.5" stroke-miterlimit="10"/>
<path d="M69.7494 40.0832C69.7494 57.4999 55.716 71.7499 38.5084 71.7499C33.9141 71.7499 29.4034 70.7499 25.2267 68.7499L25.8115 67.4165C29.821 69.3332 33.9976 70.2499 38.4248 70.2499C54.8807 70.2499 68.2458 56.7499 68.2458 40.0832C68.2458 33.2499 65.9069 26.6665 61.8139 21.3332C60.7279 19.9999 59.5585 18.7499 58.3055 17.5832L59.3079 16.4999C59.5585 16.7499 59.8091 16.9999 60.0597 17.2499L59.9761 17.3332L62.5656 19.9999C62.6492 20.1665 62.8162 20.2499 62.8998 20.4165C67.327 25.9999 69.7494 32.9165 69.7494 40.0832Z" fill="black" stroke="black" stroke-width="0.5" stroke-miterlimit="10"/>
</svg>
