<svg width="70" height="71" viewBox="0 0 70 71" fill="none" xmlns="http://www.w3.org/2000/svg">
<g clip-path="url(#clip0)">
<path d="M16.2052 59.25L10.0239 65.0833L11.1933 66.4167L17.3747 60.5L16.2052 59.25Z" fill="white" stroke="white" stroke-width="0.5" stroke-miterlimit="10"/>
<path d="M8.68734 39.5835C8.68734 38.2502 8.10262 37.3335 7.0167 36.7502C6.26491 36.3335 5.26252 36.0835 4.1766 36.1668C3.75894 36.1668 3.25775 36.2502 2.75655 36.3335C2.25536 36.4168 1.8377 36.6668 1.42004 37.0002C0.918845 37.4168 0.584716 37.9168 0.417652 38.5002C0.33412 38.8335 0.250587 39.3335 0.250587 39.8335L0.33412 43.5002L8.77087 43.3335L8.68734 39.5835ZM1.75417 41.7502V40.0835C1.75417 39.2502 1.92123 38.7502 2.42243 38.4168C2.84009 38.1668 3.50834 38.0002 4.4272 38.0002C5.01192 38.0002 5.59665 38.0835 6.01431 38.2502C6.84963 38.5835 7.26729 39.1668 7.26729 40.0002V41.6668L1.75417 41.7502Z" fill="white" stroke="white" stroke-width="0.5" stroke-miterlimit="10"/>
<path d="M18.7112 14.4167L15.3699 17.75L13.8663 16.1667L16.79 13.25L15.7876 12.1667L12.864 15.0833L11.611 13.8333L14.7852 10.5833L13.6993 9.5L9.18854 14.0833L15.2029 20.1667L19.7136 15.5833L18.7112 14.4167Z" fill="white" stroke="white" stroke-width="0.5" stroke-miterlimit="10"/>
<path d="M37.2554 7.75008V5.25008H41.432V3.58342H37.2554V1.91675H41.432V0.250081L35.5847 0.166748L35.5012 8.58342H42.2673V7.75008H37.2554Z" fill="white" stroke="white" stroke-width="0.5" stroke-miterlimit="10"/>
<path d="M60.0596 16.3334L64.9881 11.4167L63.7351 10.1667L57.7207 16.1667L61.8974 20.4167L61.9809 20.5001L63.0668 19.4167C62.9833 19.2501 62.8162 19.1667 62.7327 19.0001L60.0596 16.3334Z" fill="white" stroke="white" stroke-width="0.5" stroke-miterlimit="10"/>
<path d="M69.7494 39.0833C69.7494 56.5 55.716 70.75 38.5084 70.75C33.9141 70.75 29.4033 69.75 25.2267 67.75L25.8115 66.4167C29.821 68.3333 33.9976 69.25 38.4248 69.25C54.8807 69.25 68.2458 55.75 68.2458 39.0833C68.2458 32.25 65.9069 25.6667 61.8138 20.3333C60.7279 19 59.5585 17.75 58.3055 16.5833L59.3079 15.5C59.5585 15.75 59.8091 16 60.0597 16.25L59.9761 16.3333L62.5656 19C62.6492 19.1667 62.8162 19.25 62.8998 19.4167C67.327 25 69.7494 31.9167 69.7494 39.0833Z" fill="white" stroke="white" stroke-width="0.5" stroke-miterlimit="10"/>
</g>
<defs>
<clipPath id="clip0">
<rect width="70" height="71" fill="white"/>
</clipPath>
</defs>
</svg>
