<svg id="Layer_1" data-name="Layer 1" xmlns="http://www.w3.org/2000/svg" xmlns:xlink="http://www.w3.org/1999/xlink" width="555" height="335" viewBox="0 0 555 335"><defs><style>.cls-1{fill:none;}.cls-2{clip-path:url(#clip-path);}.cls-3{fill:#4b5952;}.cls-3,.cls-5{fill-rule:evenodd;}.cls-4{clip-path:url(#clip-path-2);}.cls-5{fill:#ff663e;}</style><clipPath id="clip-path"><rect class="cls-1" x="0.29" y="0.43" width="555" height="335"/></clipPath><clipPath id="clip-path-2"><rect class="cls-1" x="317.29" y="146.43" width="39" height="62"/></clipPath></defs><g class="cls-2"><path class="cls-3" d="M554.74,305.53c-.78.11-1.55.6-2.33,0-.27-1.11-.27-2.27-1.1-3.21s-.5-1.82-.5-2.82c-.17-.44-.28-.88-.5-1.32-.33-.61-.5-1.55-1.38-1.22-.72.28-.72,1.11-.55,1.82s.22,1.39.27,2.1c.17,1.11.22,2.21.5,3.32,0,.61-.11,1.22-.11,1.82-.28.39-.55.72-.83,1.11a3.79,3.79,0,0,0-1.88,4.86c.17.5-.11,1.05.06,1.61a7,7,0,0,1,.22,1c-.34.44-.28.94.16,1.55a1.85,1.85,0,0,0,1.5-.78,75.94,75.94,0,0,0,6.91-8.67A.82.82,0,0,0,554.74,305.53Z"/><path class="cls-3" d="M519.23,275.24c0-1.22,0-2.49,0-3.71a5.86,5.86,0,0,1-1.16-2.26,8.63,8.63,0,0,1-1.43-3.15c-.17-1.22-1-1.88-2.11-1.22-.05-.5-.11-1-.11-1.43a8.36,8.36,0,0,0-3.87-4.7,1.74,1.74,0,0,1-.88-1.77c.11-2.27-1.28-4.2-1.11-6.41a1.37,1.37,0,0,0-.94-1.5c-1.49-.27-1.44-1.38-1.6-2.48a5.41,5.41,0,0,0-1-2.66c.06-.33.06-.6.11-.94-1.6-.82-1,.67-1.27,1.28a4.39,4.39,0,0,0-.83,2.59,32.54,32.54,0,0,1-1.33,6.58c-.66,1.82-1.6,2.6-3.43,1.38-.6-1.43-2.15-1.66-3.26-2.37-.39-.83-1.16-1.05-1.93-1.33-.5-.5-1.39-.83-.83-1.82a2.77,2.77,0,0,0,.77-2.38l.11-.06c1.49-.16,1.66-1,1.27-2.26-.38,0-.83.16-1.21.22-.11-.11-.28-.17-.39-.28-1.83,0-3.43-.83-5.09-1.38a2,2,0,0,0-1,.39,2.53,2.53,0,0,0-1.38.44c.06.05.11.05.17.11a4.12,4.12,0,0,0-2.21,1.27c-.34.89-1.11,1.49-1.39,2.32-.49,1.55-1.38,1.61-2.54.83a3,3,0,0,0-.61-.22,2.49,2.49,0,0,0-.61-.22A1,1,0,0,0,477,248h-1.06a7.11,7.11,0,0,0-3.15,2.38,4.34,4.34,0,0,0-.27,1.16l-1,1-.11.11c-.33.17-.66.28-1,.44a2.25,2.25,0,0,0-1.82,2.33,3.73,3.73,0,0,1-.28.66c-.05.16-.11.33-.16.5-.83.83-1.22,2.21-2.55,2.43a44.31,44.31,0,0,0-10.23,3.37,14.78,14.78,0,0,1-1.71.5c-1.55.77-1.33,2.48-1.88,3.81a14.58,14.58,0,0,0,.44,3.1,14.36,14.36,0,0,1-.39,3.09c.22.28.44.61.66.89a73.43,73.43,0,0,1,1.28,9.23,4.92,4.92,0,0,1-1.22,4.14c-.94.94-.55,1.55.17,2.32,1.71,1.88,3.54,1.72,6.63-.61,3-1.1,6.58.45,9.46-2.43,2.16-2.15,5.64-1.77,8.46-2.37,3.76-.78,8.57,1.49,8.52,6.74,0,.28,0,.66.44.72,1.11-.44,1.55-1.94,2.77-2.27.16.22.33.5.49.72a3.73,3.73,0,0,1-1.05,2.27c-.66.6.17.6.5.83.33-.28.61-.56.94-.83.17.33.33.6.5.94a1.44,1.44,0,0,0,.83.94,4.62,4.62,0,0,1,.61,3.31,3.09,3.09,0,0,0,2,3.7,5.13,5.13,0,0,1,2.55,1.88c1.16-.49,2.32-1,3.54-1.49.94,2.71,1,2.71,3.09,1.16a5.32,5.32,0,0,1,3.54-1.43c1.28,0,1.83-.72,2.11-2a22.16,22.16,0,0,1,5.25-9.79c3.21-3.48,3.87-7.85,5.42-11.88A3.61,3.61,0,0,1,519.23,275.24Zm-58.57,12.93c-.17.06-.28.06-.44.11A1.09,1.09,0,0,1,460.66,288.17Z"/><path class="cls-3" d="M317.25,23.2v.94c.06.28.33.33.44.5.33,0,.67-.06,1-.06.11-.11.33-.16.39-.33a2.4,2.4,0,0,0,.88.11,1.06,1.06,0,0,0,.33-.22c1.33.83,2.1-.06,2.93-1a3.19,3.19,0,0,1,2.38-.93v-.45c.11-.05.22-.05.39-.11.11-.72-.66-1.21-.33-2,.49-1.1-.56-1.49-1.11-1.66-1.05-.33-.83.83-1,1.39a6.06,6.06,0,0,0-.17,1.82c-.33.17-.66.33-.94.5-.33-.5-.66-.94-1-1.44.83-1.33-.38-1.71-1-2.43-.17-.44-.28-.94-.44-1.38-.45-.17-.83-.28-1.28-.45-.16.67-.33,1.28-.55,1.94-.17.28-.28.61-.44.88-.67.5.94,1.5-.33,1.88a5.05,5.05,0,0,0-.11.56v.94A1,1,0,0,0,317.25,23.2Z"/><path class="cls-3" d="M324.83,13.8c-.06-.11-.17-.27-.22-.27s-.22.11-.34.22c.06.11.17.22.23.33C324.61,14,324.72,13.91,324.83,13.8Z"/><path class="cls-3" d="M442.63,16.4c.17-.11.28-.27.44-.39.61-.77.39-1.76-.38-1.87-1.66-.23-3.38-1.22-5.09-.12-.5.39-.39.94-.45,1.44A5,5,0,0,0,442.63,16.4Z"/><path class="cls-3" d="M542.24,313.65c-.17,1.49-1.33,2.16-2.33,3a3,3,0,0,0-.83,1.71.74.74,0,0,0,.12.33c-.06.06-.17.11-.23.17l-.49-.17c-.83,0-1.17.72-1.72,1.16-2.1,2.05-5.09,3-6.75,5.58-.55.89-1.54,1.66-.77,2.93,3.32,1.66,4,1.61,6-.66a4.27,4.27,0,0,0,.77-1.16c1.22-2.21,2.66-4.2,5.2-5a3.69,3.69,0,0,0,1.22-1.83.53.53,0,0,1,.16-.39c.11-1.1,1.17-1.27,1.77-1.93,1-.66.56-1.82,1.05-2.71C544.28,314.92,543.73,312.6,542.24,313.65Z"/><path class="cls-3" d="M513.37,240.31c1.32,1.05,2.87.71,4.48,1-.33-.94-.72-1.44-1.55-1.49-.78-1.05-1.55-2.1-2.38-3.15-.39-.5-1.11-1-.72-1.6,1.22-1.61-.11-1.77-1.05-2.27a6.41,6.41,0,0,1-1-.55,1.71,1.71,0,0,0-.44-.45.42.42,0,0,1-.11-.27,1.19,1.19,0,0,0-1.21-1.22c-.34-.11-.67-.16-.95-.27-.38-.28-.71-.56-1.1-.89a1.88,1.88,0,0,0-1.72-.72l-1.82-.66c-1.22-1-2.93-.61-4.2-1.44a.9.9,0,0,1-1-.33c-1.11-1.05-2.1-1.49-2.77.39-1.38.22-1.88,1.49-2.71,2.37-.66-.44-1.27-.88-1.93-1.38-.5-1.16.17-2.54-.44-3.7l.05-.06c-1.44-.49-3-1.71-4.26.28V224a.72.72,0,0,0-.33.11V225l1.83,1.49a.46.46,0,0,0,0,.22,1.06,1.06,0,0,0-.33.22c-.55,2.1.11,3.21,2.05,3.32a13.48,13.48,0,0,1,2.21.55c1.82.5,3.54,1.33,5.36,1.77a.22.22,0,0,0,.11.05,3,3,0,0,0,.39.17c.17.44.28.83.44,1.27,0,.61-.05,1.16-.05,1.77-.44.33-.83.72-1.22,1a2.13,2.13,0,0,1,.44.55c1.17.55,2.55-.5,3.65.33a.66.66,0,0,1,.06.34c1.16,1.43,2.76,1.43,4.37,1.32,1,0,1.22-.33.88-1,1-1,1.61-3.1,3.6-1.16l1.27.16a2.6,2.6,0,0,0,1.83,1.88l.05-.05A.78.78,0,0,0,513.37,240.31Z"/><path class="cls-3" d="M521.94,229.25c-1.38.67-2.05,2.43-3.76,2.49a.89.89,0,0,1-.39-.06c-.66.78-1.82.11-2.6,1,2.21,1.88,4.21,1.16,6.25-.17l.5-1.32a.48.48,0,0,0,.28-.06,6.76,6.76,0,0,1,1.1.06c0-.28.06-.61.06-.89C522.88,229.92,522.71,229.09,521.94,229.25Z"/><path class="cls-3" d="M501.92,309.67c-1.66.22-3.38-1.44-4.37-.94-1.49.78.17,3.1-.66,4.31-.11,2.38.77,3.76,1.88,3.15a7.58,7.58,0,0,0,4-5.25C503,310.17,502.58,309.62,501.92,309.67Z"/><path class="cls-3" d="M503.25,307.18c.05.23.16.39.22.61a3.25,3.25,0,0,1,.38-.49l-.44-.45A.68.68,0,0,0,503.25,307.18Z"/><path class="cls-3" d="M505.57,107.77c1.16-.28.83-1.5,1.38-2.1v-.34c-.44.17-.83.34-1.27.5C505.9,106.44,505.07,107,505.57,107.77Z"/><path class="cls-3" d="M514.86,87c.77,1.71,1.6,2.26,2.66,2.43A5.3,5.3,0,0,0,514.86,87Z"/><path class="cls-3" d="M295.52,28.23a1.13,1.13,0,0,0,1-.83c0-.39-.22-.55-.55-.5s-.89.28-1,.83C294.91,28.12,295.18,28.28,295.52,28.23Z"/><path class="cls-3" d="M315,27l1-.49c-.5-1.05-.94-.83-1.44,0C314.71,26.68,314.82,26.85,315,27Z"/><path class="cls-3" d="M214,12.31c.28.22.45-.16.56-.44-.28-.17-.56-.33-.89-.5C213.77,11.7,213.77,12.15,214,12.31Z"/><path class="cls-3" d="M309,24.19c1.44.23.78-.93.89-1.49a1.37,1.37,0,0,1-.17.28.32.32,0,0,1,.17-.28c.33-.16.66-.27,1-.44,0,.33,1.16.33.16,1.11-.66.49-.44,1.71.22,2.48.33.39,1.22.61,1.44.11.61-1.43,2.21-2.37,1.94-4.2-.39-.38-.5-1.27-1.33-.94-.61.22-.61.83-.61,1.39-.5.05-.94.05-1.44.11-.05-.11-.11-.17-.16-.17-1-.77-1.83-.33-2.6.55C307.79,23.42,308,23.92,309,24.19Z"/><path class="cls-3" d="M488,294.14l-.94.17c0,.66.49.72.88.88.28-.16.78-.22.72-.66C488.76,294.36,488.31,294.25,488,294.14Z"/><path class="cls-3" d="M324.72,25.19c.22-.28.44-.61.16-1a.7.7,0,0,0-.55-.11c-.39.23-.17.67-.22,1C324.33,25.13,324.5,25.13,324.72,25.19Z"/><path class="cls-3" d="M359,14.25v.44c-.22.16-.44.27-.66.44,0,.17.16.39.22.55.17,1.16.77,1.88,2,1.83A5.61,5.61,0,0,1,364,18.94c.33,0,.61-.05.94-.05,1.33-.28,2.6.22,3.87.28,1,0,2.38-.28,1.55-1.66a30.4,30.4,0,0,1-1.49-3.1c-.72-1.55-1.72-2.43-3.49-1.6a1.2,1.2,0,0,0-1.38-.44,5.2,5.2,0,0,0-.55-.45,9.71,9.71,0,0,0-1.33-2.15c-.94-1-2-2.1-3.32-2.27-.77-.11-1.27,1.27-1.27,2C357.51,11.15,357,13.09,359,14.25Z"/><path class="cls-3" d="M372.34,16.57c.27,1.38.49,2.76.83,4.14.38,1.72.94,2.66,2.37.67.34-.5,1-.72,1.5-1.05,1.71-1,1.88-2.27.44-3.65-1.22-.44-2.27-1.33-3.65-1.16,0-.28-.06-.56-.06-.78-1.27-.11-1.88.28-1.54,1.39C372.17,16.24,372.23,16.4,372.34,16.57Z"/><path class="cls-3" d="M343.47,15a1,1,0,0,0,.44-.33c0-.17-.11-.39-.28-.78-.27.56-.39.72-.44.89S343.36,15,343.47,15Z"/><path class="cls-3" d="M117.87,25.63c.39,2.16,1.44.28,2.16.33.22.22.44.39.66.61a1.49,1.49,0,0,0-.11.44c-.61.34-1.22.61-1.82.94-1.05.67-.28,1.27,0,1.94.16-.06.33-.06.49-.11l.5.16c.22,1.11,1.38,1.16,2,1.83-.55.44-.83,1-.33,1.6a2.86,2.86,0,0,0,3.21.66c2.21-.88,4.42-.66,6.69-.38,1.16.22,1.83-.83,2.77-1.22,0-.22,0-.39.11-.61,1.27-.61,2-2.26.77-2.54-2.32-.5-2.05-1.71-1.77-3.26.11-.5.22-1.16-.44-1.44s-1.16.22-1.61.61-.55,1.27-.77,1.88c-.44,1.27-.72,2.82-2.6,2.71a10.31,10.31,0,0,0-1.6-5.7,3.12,3.12,0,0,1,.83-3.37,3.74,3.74,0,0,0,1.1-3.2c-.27-.06-.61-.06-.88-.11l-2.33-.34a3.23,3.23,0,0,0-1.82.83c-.94.61-1.88,1.28-2.82,1.88a18.59,18.59,0,0,0-4.48,1.55c-1.44.72-.5,1.49-.06,2.32A4,4,0,0,1,117.87,25.63Z"/><path class="cls-3" d="M326.71,18.28c.66,0,1.05-.66,1.1-1.33s-.22-1.54-1-1.6-1.05.66-1.16,1.38S325.82,18.28,326.71,18.28Z"/><path class="cls-3" d="M438,27c.72-.06,2,.22,1.88-1s-1.55-1.38-2.54-1.54-1.33.49-1.39,1.43C436.1,27.4,437.21,27,438,27Z"/><path class="cls-3" d="M434.06,23.37c-.39,0-.5.33-.39.66a.93.93,0,0,0,.72.77c.44-.05.44-.38.39-.66C434.72,23.7,434.56,23.37,434.06,23.37Z"/><path class="cls-3" d="M17.82,57.58a.79.79,0,0,0,1-.94,3.29,3.29,0,0,0-2.77-2.71c-.39.11-1.05.55-.77.94A6.34,6.34,0,0,0,17.82,57.58Z"/><path class="cls-3" d="M382.18,18.78l-1.94-.33C380.69,19.55,381.35,19.5,382.18,18.78Z"/><path class="cls-3" d="M134.08,32.54a1.69,1.69,0,0,0,0,1.49c.6-.05,1.32-.05,1.21-.88S134.57,32.54,134.08,32.54Z"/><path class="cls-3" d="M130.43,17.89c.38.83.27,1.94,1.38,2.38,1.6,1.55,2.21,1.44,3.65-.83.27,0,.55-.05.88-.05h.34c.88-.28,1.54-1,2.43-1.28a2.63,2.63,0,0,0,1-3.42c-.33-.55-.6-1.16-1.38-1-.33,0-.61,0-.94,0-1.05.44-2.65-.78-3.32,1,.06.33.06.61.11.94a1.26,1.26,0,0,1-1.38.94c-.5-.17-.94-.28-1.44-.44C130.43,16.13,130.2,16.84,130.43,17.89Z"/><path class="cls-3" d="M127.55,22c-.17.22-.11.44.17.5.11.05.27-.11.38-.17,0-.16,0-.33-.16-.39A.46.46,0,0,0,127.55,22Z"/><path class="cls-3" d="M425,19c.22.55.45,1.16.67,1.71.27.11.49.17.77.28.44.16.89.28,1.33.44,1.66,1.55,2.6.61,3.32-1.05,1.66-1.55,5-1.93,3.54-5.58-1.22.11-2.44-1.05-3.71-.06a3.49,3.49,0,0,1-.72-.05c-1.1-.67-2.1-1-2.27.94-.49,0-1,0-1.49,0-.61-.55-1.33-1.32-2.1-.55a1.89,1.89,0,0,0-.28,2.32C424.43,18,424.71,18.45,425,19Z"/><path class="cls-3" d="M423.83,20.38c-.23-.88-.5-1.77-1.5-2C422.28,19.44,422.61,20.22,423.83,20.38Z"/><path class="cls-3" d="M144.58,22.43a1,1,0,0,0,.72.38c.17.06.39-.11.45-.16-.17-.67-.45-.83-.72-.83S144.42,22.09,144.58,22.43Z"/><path class="cls-3" d="M144.64,18.94c1.22.56,2.27,1.28,2.21,2.88,0,.66,0,1.32.72,1.49,1.05.17,1.22-.66,1.33-1.49.94-.5.66-1.55,1-2.32,1.16-1.88.94-2.93-.94-3.87-.16-.5-.38-.94-.55-1.44-.28-1-1-1.1-1.77-.83s-1,1.05-.83,1.88.33,1.71-.66,2.21a.67.67,0,0,0-1.11.28C143.64,18.39,144,18.72,144.64,18.94Z"/><path class="cls-3" d="M155.37,13.36c.61.06.72-.5.77-.94s-.22-.94-.77-.94a.72.72,0,0,0-.78.89A.91.91,0,0,0,155.37,13.36Z"/><path class="cls-3" d="M150.34,331.56c.38.22.83.44,1.21.66.56-.11.72-.44.45-1C151.44,331.17,150.67,330.07,150.34,331.56Z"/><path class="cls-3" d="M505.73,76.21c.28,0,.56.05.78.05.28-.61,1-1.44-.06-1.66C505.62,74.44,505.68,75.49,505.73,76.21Z"/><path class="cls-3" d="M481.57,220.13c.11-.38-.78-.44-1.17-.27-1,.38-.83,1.32-.71,2.15a9.08,9.08,0,0,1,.05,1.16c.39.11.61,0,.44-.44.06-.17.06-.39.11-.44C481.51,222,481.4,220.91,481.57,220.13Z"/><path class="cls-3" d="M478.19,228H478c-.06.44-.06.89-.11,1.33C479.19,229.09,478.69,228.53,478.19,228Z"/><path class="cls-3" d="M488.59,129.82c-1.49-.11-1.49,1.1-1.55,2a1.84,1.84,0,0,0,1.61,2.15c.55-.05,1-.22.94-.94-.06-1.54,1.1-1.65,1.88-1.16,2,1.28,2.6-.05,3.15-1.6,1.1-.16,2.16-.33,1.38-1.88v-.5c-1.05-.94-2.49-.22-3.59-1-1.05-.94-1.77-2.43-3.6-2.49.22,1.33.94,2.43.66,3.59C489.31,128.66,490.14,129.87,488.59,129.82Z"/><path class="cls-3" d="M499.93,122.58a2.44,2.44,0,0,0-2.05,2.21c.11,0,.33.16.33.11A6,6,0,0,0,499.93,122.58Z"/><path class="cls-3" d="M272.84,36c-.72,2.26-.66,2.32,2.38,3.48,1.66.55.88,1.88.94,3a1.28,1.28,0,0,0,.39.61,1.35,1.35,0,0,0,1.1.28c.28.28.5.55.78.83s.49.77.77,1.1c.39.5.61,1.44,1.44,1.16s.5-1.16.61-1.76c.66.11.77-.39.88-1a5.78,5.78,0,0,1,.44-1.93,5.93,5.93,0,0,1,.11-1.39c.17-.71.06-1.93.89-1.93,1.11-.06,1,1.16,1,2s-.11,1.93,1.06,2c.83,0,1.88.61,2.59-.28a2.38,2.38,0,0,0,0-2.87c-.82-1.33-1.6-2.71-3.2-3.21A1.47,1.47,0,0,1,284,34.64a1.1,1.1,0,0,1,1.43-.88c1.61.55,2.82-.33,4.1-1a5.93,5.93,0,0,1,.05-.94c1.38-2.93,1.16-3.15-1.71-4-1.66-.5-3.15.39-4.76.22v-.44c-1.33-1.1-2.43-.55-3,.72-.44,1.05-1.27,1.22-2,1.6-1.44,1.72-3.49.06-5,1a1.14,1.14,0,0,0-.45.88v.06c-.55.27-.27.83-.16,1.32A8.5,8.5,0,0,1,272.84,36Z"/><path class="cls-3" d="M242.75,18.94c-1.05-.44-.83.45-.94.94C242.7,20.16,242.75,19.55,242.75,18.94Z"/><path class="cls-3" d="M244.14,18.94c-.34-.44-.61-.94-.94,0A.63.63,0,0,0,244.14,18.94Z"/><path class="cls-3" d="M328.37,60.18a4.09,4.09,0,0,0-.78,0c-.72.61-.55,1.49-.55,2.27A18.86,18.86,0,0,0,332.79,66a2.72,2.72,0,0,0,3-.28.91.91,0,0,0,.39-.06c.22-1.71-1.11-2.1-2.22-2.76-.44-.66-.88-1.27-1.32-1.93-1.5-3.87.49-7.52.88-11.22.06-.72.66-1,1.27-1.17a15.1,15.1,0,0,1,5.81-7.4c2.16-1.44,2.16-2.32.28-4.2-1.5-.39-2.27.27-2.6,1.77a4.26,4.26,0,0,1-2.6,2.1,6.32,6.32,0,0,0-3.6,2.21c-1.1,2.43-3.43,4.42-2.82,7.57.11.55-.33,1.22-.5,1.77-.27.22-.55.39-.83.61.34.72.61,1.49.95,2.21C327.65,56.8,328.53,58.57,328.37,60.18Z"/><path class="cls-3" d="M349.94,53a.79.79,0,0,0,.88-.83,1.06,1.06,0,0,0-.88-.94.76.76,0,0,0-.83.83C349.16,52.6,349.38,53,349.94,53Z"/><path class="cls-3" d="M360.94,51.06a.85.85,0,0,0-.27.55c.11.61.66.5,1.05.55a2.09,2.09,0,0,1,0-.55C361.5,51.39,361.39,50.89,360.94,51.06Z"/><path class="cls-3" d="M359.56,40a2.39,2.39,0,0,0,.39.39c.05-.11.16-.22.27-.39a2,2,0,0,0-.49-.27C359.73,39.67,359.5,40,359.56,40Z"/><path class="cls-3" d="M372.17,29a.94.94,0,0,0,.83-.77c.05-.39-.17-.55-.5-.44a.82.82,0,0,0-.66.83C371.84,28.73,372.06,28.89,372.17,29Z"/><path class="cls-3" d="M400.87,34.53a.81.81,0,0,0-1-.77c-1.05.11-1,1-1.11,1.77C399.55,35.25,401,36.58,400.87,34.53Z"/><path class="cls-3" d="M.29,95.22c.72-.44,1.66-.66,2-1.94-.72.28-1.11.5-1.55.67A10.63,10.63,0,0,1,.29,95.22Z"/><path class="cls-3" d="M5.32,92.23c-1,0-1.33.94-1.93,1.5a2.78,2.78,0,0,0-.39.55c.33,0,.61-.06.94-.06.44-.66,1.66-.55,1.66-1.71A.37.37,0,0,0,5.32,92.23Z"/><path class="cls-3" d="M16,69.63c-.39,0-.83.11-.72.61a.88.88,0,0,0,1,.6c.44,0,.66-.27.72-.77C16.88,69.46,16.38,69.63,16,69.63Z"/><path class="cls-3" d="M139.16,27.4q-.49-1.16-1,0c-.28.5-.55,1-.89,1.49a6.56,6.56,0,0,0,1.39,3.76,6.86,6.86,0,0,1,.44,3.32,3.65,3.65,0,0,0,.44.44,3.82,3.82,0,0,0,2.82,0,3.28,3.28,0,0,0,.44-.5c.67-.27.67.39.94.72-.66,1.11.23,1.6.94,2.16,1,.22,2.11.83,2.33-.89a1,1,0,0,0,.38,0,1.6,1.6,0,0,0-.05-2.32l-.44-.45c0-.16.05-.38.05-.55-1.82.17-2.38-.72-1.93-2.43.33-.78.6-1.55.94-2.27V29c-1.39-.06-2.49-2.16-4.1-.55C140.38,29.72,139.66,29,139.16,27.4Z"/><path class="cls-3" d="M152.94,27.18c.33.11.88-.06.88-.5.06-.88-.61-1.32-1.33-1.66a1.81,1.81,0,0,1,1.33-.94,1.61,1.61,0,0,0,1.38-2,6.45,6.45,0,0,0-1.44-2.65c-1.43-1.33-2.26-.67-2.82.94-.11,1.6-.16,3.2-.27,4.75S151.88,26.9,152.94,27.18Z"/><path class="cls-3" d="M155.76,29.34c.6-.06,1.32-.06,1.21-1a.58.58,0,0,0-.44-.44C155.65,28,155.87,28.78,155.76,29.34Z"/><path class="cls-3" d="M140.05,24.36c.88-1.55.88-1.55.16-2.49A1.79,1.79,0,0,0,140.05,24.36Z"/><path class="cls-3" d="M481.12,228.92c1.05-.44,2.16.11,3.21,0a4.9,4.9,0,0,1,.06-.94,10.11,10.11,0,0,0-4.1,0A1.14,1.14,0,0,0,481.12,228.92Z"/><path class="cls-3" d="M471.44,237.87c0-.77-.33-.94-.88-.44v-.05c-1.38.61-2.6-.61-4-.28a2.2,2.2,0,0,0-.83.55.73.73,0,0,0,.05.67C467.74,239.15,469.62,238.59,471.44,237.87Z"/><path class="cls-3" d="M476,239.26c.44-.17.94-.34,1.38-.5s.72-.28,1.1-.44c0-.17-.11-.33-.16-.5-.44.17-.89.28-1.38.44-.67.11-1.44-.16-2,.44-.55.17-1.16.34-1.71.45-.44.77-1.49,1.32-.5,2.43C473.82,240.8,474.93,240,476,239.26Z"/><path class="cls-3" d="M463.09,238.81a.8.8,0,0,1,.34-.05c.49-.28,1.21-.33.88-1.22-1.16.22-2.38.45-3.65.67C461.43,239.2,462.32,238.65,463.09,238.81Z"/><path class="cls-3" d="M464.81,239.92c.94.11,1.33,1.6,2.38,1,.11,0,.11-.49.05-.6C466.52,239.64,465.75,239.15,464.81,239.92Z"/><path class="cls-3" d="M484.77,155.35c.23-.11.39-.22.61-.33a1.13,1.13,0,0,0,.5.28,1.49,1.49,0,0,0,1.71-1.22l.12-.11c1.38-.72,3.09-.88,4.09-2.37.16-.5.27-.94.44-1.44.39.28.66,1,1.27.55a1.2,1.2,0,0,0,.44-1.44,9.94,9.94,0,0,1-.38-3.37,1.73,1.73,0,0,0-.72-1.54.17.17,0,0,1-.11-.06v-.22a1.17,1.17,0,0,0,.88-1.05c.56-2.65-.44-4.92-1.82-7-1.83-.94-2.66-.55-2.88,1.33-.05.55-.05,1-.11,1.6.72,1.38.06,3.09,1,4.42a1.39,1.39,0,0,0-.17.72l-.17-.06a1,1,0,0,0-.38,1s.05,0,.05.11l-.05.05c-.11.23-.28.39-.39.61,0,0,0,.06-.05.06a5.44,5.44,0,0,0-2.83.05c-.82.83-.66,2.21-1.49,3.1-.94,1.1-2.38.94-3.59,1.49a2.42,2.42,0,0,0-.56.44,4.45,4.45,0,0,0-.22.44c-.44.34-1,.56-.88,1.17-.06.05-.11.05-.17.11a1.91,1.91,0,0,0-.83,1.76c.06.17.11.28.22.34-1.32,1.76-1.32,1.76-.44,2.76.17.28.28.55.44.83a1.69,1.69,0,0,0,0,1.82c.39.94.83,1.72,1.77.45h.06c.66-.83.44-1.77.44-2.66a.17.17,0,0,1,.11.06,2,2,0,0,0,1.33-.94,1.7,1.7,0,0,1,.05-.5l.5-.17c.11-1.1.94-.88,1.61-.94v.06C484.44,155.58,484.61,155.58,484.77,155.35Z"/><path class="cls-3" d="M472.44,222.18a2.42,2.42,0,0,0,2.77-2.16c-1.5,1.66-3.27,1-4.87.67a4,4,0,0,0-4.15,1.1c-.22.83.06,1.82-.77,2.49-.17.27-.34.55-.45.77-.22.94-.44,1.94-.66,2.88a1,1,0,0,0-.22.88.81.81,0,0,0,.33.5,1.76,1.76,0,0,0,.89.16c.88,1-.28,2.05.11,3,1.93.39,1.6-1.16,1.82-2.21.55.39,1.27-.44,1.83.22.16.28.27.56.44.83v.78c.11,0,.28.05.44.05a.55.55,0,0,0,.39-.39c.33-.44.83-.77.88-1.43.17-.06.39-.06.56-.11a.89.89,0,0,0-.06-.39c-1.6-.83-1.77-2.38-1.88-3.92a.76.76,0,0,0,.28-.5,1.78,1.78,0,0,0,1.16-1.38l-1.94.16,0-.05c-.11-.06-.17-.06-.28-.11a1.71,1.71,0,0,1-2.32,0c.05-.67-.17-1.33.39-1.88A14.63,14.63,0,0,1,472.44,222.18Zm-5.2,5.75c.06,0,.06,0,0,0h0a.26.26,0,0,1,.11.16c0-.05-.05-.05-.11-.16a1,1,0,0,1,.06.38l-.17-.33C467.19,228,467.24,228,467.24,227.93Z"/><path class="cls-3" d="M325.66,71.67c0,.61.16,1.11.83,1.16a1.23,1.23,0,0,0,1.38-1.21c.05-.67-.44-.94-1-1.05C326.1,70.51,325.71,70.9,325.66,71.67Z"/><path class="cls-3" d="M33.58,80.63c-.27.66-1.82,1.66.39,1.71V80.57C33.8,80.18,33.69,80.18,33.58,80.63Z"/><path class="cls-3" d="M455.07,237.43c.39.33.78.94,1.28.5s.27-1.11-.22-1.6c-.06,0-.17,0-.23,0a3.61,3.61,0,0,0-1.21-1,4,4,0,0,0-1.11-.77c-2-1.49-4,0-6,0a.66.66,0,0,0-.28.27.74.74,0,0,0,.11-.38c-.77-2.27-2.82-1.33-4.31-1.88-.94.5-1.38,1.21-.83,2.26A30.21,30.21,0,0,0,455.07,237.43Z"/><path class="cls-3" d="M469.18,189.57a1.81,1.81,0,0,0-2-1.5c-1.17,0-1.22.94-1.39,1.77-.11.67-.33,1.39-.44,2-.11.33-.28.61-.39.94.11.61,0,1.21.45,1.71a12.76,12.76,0,0,0,.66,1.6c.66.83,1.22,2.05,2.54,1.28s.56-1.77.23-2.71a2.42,2.42,0,0,1,.16-2.05A4,4,0,0,0,469.18,189.57Z"/><path class="cls-3" d="M469.56,210.79a8.75,8.75,0,0,1,.94-.44c.17-.55.28-1.11.45-1.66l2.65.33c.06.28.06.61.11.89-.11,1.43.67,2,1.88,1.93,1.05-.05.94-.72.5-1.44,1.83-.71,1.83-2.1,1.27-3.7a1.29,1.29,0,0,1,0-.44c-.5-.44-1-1-1.77-.61,0,.11,0,.28,0,.39a3.15,3.15,0,0,0-1.77,1.49c-1.33-1.44-2.16,0-3.21.5-.83.61-.33,1.71-.94,2.43C469.56,210.52,469.56,210.68,469.56,210.79Z"/><path class="cls-3" d="M449.65,224.55c.5,1.11-.27,2.93,1.44,3.27,1.11.22,2.05.82,3.15,1.05.56.33,1.11,0,1.66,0,1-.17,1.44.82,2.22,1,1.27.27,1.49-.67,1.77-1.55,1-2.93,1.77-6,4.42-8-1.71-.94-1.6-2.82-2.16-4.36.78-.94,1.55-1.94,2.33-2.93-.72-.83-1.72-1.16-2.22-2.1-.27-.5-1.1-.78-1.38-.33-1.1,2.15-3.7,2.7-4.81,4.8l-2.21,2c-1.66,0-1.72,2.32-3.32,2.43-1.83-.55-2.66,0-2.38,1.77C448.33,222.73,448.27,224.11,449.65,224.55Z"/><path class="cls-3" d="M427.14,195c.39,1.77,1.44,3.26,2,5a13.56,13.56,0,0,0,.66,1.61c-.06,2-.22,3.92-.44,5.91a1.78,1.78,0,0,0,.83,1.55c.38.22.77.38,1.16.61a4.91,4.91,0,0,0,1.44,1.6c.11.05.16.11.27.16a5.36,5.36,0,0,0,.83,2.27v.11c-.88.39-.33,1-.22,1.6a.57.57,0,0,0,.28.5c.16.06.27.06.44.11a9.72,9.72,0,0,0,5,3.87c.61-.61.22-1.21,0-1.82a7.45,7.45,0,0,1,.06-1.16c-.22-.34-.44-.72-.89-.72a11.17,11.17,0,0,0-.55-3.54c-.61-.5-1.27-.94-1.88-1.44-.89-.71-1.83-1.43-2.71-2.15a.44.44,0,0,1,.05-.22,4.69,4.69,0,0,0-1.38-3.37,2.89,2.89,0,0,1-.55-3.38.65.65,0,0,0-.06-.33c.06-.05.17-.05.28-.11a2,2,0,0,0,.44-.55,6.1,6.1,0,0,0,.33-1.77c.06,0,.12,0,.17-.11.11.22.28.44.39.66a1.24,1.24,0,0,0,.55.39,11.57,11.57,0,0,0,1.83.55c1.43,1.38,2.87,2.82,4.31,4.2.05.5.05.94.11,1.44a.44.44,0,0,0,.61.06.26.26,0,0,1,.16-.11c.83.22,1.22-.72,1.94-.89.22-.61,1-.94,1-1.71,3.7-1.22,4.48-2.49,4.09-6.75-.22-.16-.39-.33-.61-.49v-.5c-.06-2-1.22-3.26-2.6-4.42-2.27-1.83-3.26-2.71-3.37-4,.44-1,.55-2.21,1.21-3a1.2,1.2,0,0,0,.45-1c.16.16.33.27.55.16a2.81,2.81,0,0,1,3.76.94c.5.61,1.22.45,1.77-.11a4.59,4.59,0,0,1,1.49-1.38A2.49,2.49,0,0,0,451,183c.67-.39,1.44-.39,2.1-.77a4,4,0,0,1,1.88-.78c2.88-.38,4.76-2.26,6.59-4.31,1.05-1.16,1.05-2.76,1.88-4a29,29,0,0,1,1.93-4.2,4.75,4.75,0,0,0,.11-4.86,3.58,3.58,0,0,1-.55-2,6.29,6.29,0,0,1-.5-1.44v-1h-.16v-.39c-.78-1.33-1.83-2.49-2.55-3.93a2,2,0,0,0-1.93-1.38c-.45-.61-.72-1.16-.12-1.88.83-1.05,1.39-2.48,2.94-2.76.71-.11,1-.66,1-1.38s-.33-1.22-.88-1.22c-1.5,0-2.93-1.6-4.54-.16-.66.6-1.44-.06-2.05-.56-.44-.38-.82-1.1-.44-1.43,1.33-1.05,1.5-3.15,3.27-3.82.44.78.33,1.77,1.1,2.27a1.77,1.77,0,0,0,1.27.44c1.05-.72,2.55-.55,3.6-1.38.05,0,.05.11.11.16.83.67.61,1.66.66,2.55.11,1.6.89,2.43,2.55,1.93a2.67,2.67,0,0,0,.61-.5c.83.61,1.43,1.22.49,2.55,0,1.1.39,2.15.22,3.26a1.63,1.63,0,0,0,1.17,1.82,1.42,1.42,0,0,0,1.88-.94c0-.11.05-.27,0-.38a.32.32,0,0,0,.22-.06c2.1.55,2.49-.61,2.21-2.38.11,0,.22.06.33.06-.05-.22-.16-.39-.22-.61l-.5-1.33c-.16-.22-.27-.44-.44-.66.06-.05.06-.05.11-.05a.44.44,0,0,0-.05-.61l-.12,0a2.43,2.43,0,0,0-1.76-2.43,2.76,2.76,0,0,0-.45-1.16c-.16-.39-.44-.72-.61-1.11a3.24,3.24,0,0,0-.44-.49c-.05-.06-.11-.06-.16-.11.49-1,1.43-1.77,1.77-2.88-.06-.05-.11-.05-.17-.11a2.39,2.39,0,0,0,.66-1.82c0-2.65.78-3.43,3.27-3.59,1.93-.17,2.82-1.11,3-3.32.61-.06.94-.55,1.22-1.11,2.21-5.19,3.87-10.44,3.2-16.25a1.51,1.51,0,0,0-.16-.71c-1.5-1.44-1.11-3.49-1.66-5.2,0,0,0,.06.05.06a5,5,0,0,0,1.39,1.27,2.9,2.9,0,0,0,.38.16,9,9,0,0,0,1.88,6.19c-.05.11-.16.22-.22.33-.22,1.22.61,2.33.44,3.54.06.22.12.44.17.67a7.43,7.43,0,0,0,1.38,2.59c.11.06.22.06.33.11.28.11.72.72.89.11.5-1.65,1.16-.88,1.88-.22h.33c.83-.88-.39-1.21-.5-1.82a3.67,3.67,0,0,0-1.38-1.27c-1.77-1.11-1-3.21-1.66-4.76a.56.56,0,0,0,0-.44l.61-.33c.5,0,1.05,0,.66-.77-1.77-3.49-4.31-6.58-5.53-10.34.11-1.16-.66-1.71-1.43-2.32a12.32,12.32,0,0,1-.45-1.38c-.6,0-1.32-.17-.94.88.22.22.34.55.67.55-.33.39-.78.67-.89,1.22a10.4,10.4,0,0,0-3.21-2.32,3.57,3.57,0,0,0-2.26.16c-.45.34-.94.72-1.44,1.06a1.09,1.09,0,0,0-.44.27c-.45-.61-1.17-1-1.11-2,.33,0,.77.11.94-.27a.6.6,0,0,0-.17-.56.9.9,0,0,0-1.27.44.78.78,0,0,1-.22.23l0-.06c-.89-.88-.17-1.71,0-2.6.55-2.82,1.88-5.47,2.37-8.29.72-4.36,1-4.7,5.15-5.58.05-.11.11-.17.16-.28a1.32,1.32,0,0,1,.39-.72c.33-.11.61-.16.94-.27.66,0,1.38.11,1.72-.39a5.82,5.82,0,0,1,.44-.66,4.53,4.53,0,0,1,4.2-.44,4.43,4.43,0,0,0,1.11.38c-.22.45-.17.72.88.56s1.38-1.22,2.38-1.17a.86.86,0,0,0,.11.39l.17,0h.16c-.22-.56,2-1.5-.22-1.83a1.48,1.48,0,0,1-1-1.16,1.35,1.35,0,0,1,.05-.44V75a6.63,6.63,0,0,0,.44-2.54,7.37,7.37,0,0,0,.11-1.93c0-.11-.05-.17-.05-.28v-.16a8.31,8.31,0,0,0,.77-1.77,3.18,3.18,0,0,1,3.65-.39c.34.39.61.72.83,1a2.09,2.09,0,0,0,1.61,1.11c.66.11.72-.44.77-.94a8.58,8.58,0,0,0,.61-.66,4.54,4.54,0,0,1,.5-1.61,1.18,1.18,0,0,1,.83-.38v.44c.05.55.33,1,.16,1.6-1,2.82-.66,5.81-.94,8.74-.16,1.93-.49,3.48-1.82,4.8,0,.11,0,.17.11.28,1.27.44,1.33,1.44.88,2.49-.61,1.43-.22,2.71.17,4.09a20.1,20.1,0,0,0,2.49,5.3c1.6,2.66,3.32,5.25,4.86,7.91.39.66.45,1.77,1.39,1.6s1-1.27,1.16-2.1c.28-1.44-.83-2.71-.33-4.15,1.21-.33,1.6-.88.44-1.87-.17-1.22-.61-2.77.72-3.43,1.88-1,.94-1.71.16-2.82s-1.77-2.43-.16-3.76c.33.17.61.11.66-.22s-.16-.88-.72-.94c-.05-1.33-2-1.49-1.71-3,.39-1.83-.28-2.21-1.83-1.5-1-.38-1-1.32-1-2.15a16.17,16.17,0,0,0-.44-3.93c-.45-1-.45-1.93.71-2.48.06-.06.06-.11.12-.17a4.65,4.65,0,0,0,.55.28c.22-.61.39-1.16.61-1.77h.77c0,.39,0,.94.39,1,.66,0,.5-.6.5-1,1.49-2.32,2-2.48,4.31-1.1a2.36,2.36,0,0,0,1.66.5c-.72-4.87,1-9,3.93-12.66.94-.39,2.37.77,2.76-.67s-.83-2.59-2-3.31a7.21,7.21,0,0,1-2.49-2.54c0-.23-.16-.45-.22-.67-.39-.88-2.1-.83-1.55-2.32,1.05-3.37.78-4.42-1.77-6.58-.61-.49-.94-1.1-.44-1.76.77-1,.83.27,1.22.49a3.33,3.33,0,0,0,1.88.67c.33-1.22.55-2.55,2.32-1.77.94,1.55,2.1,1.21,3.32.49a.93.93,0,0,0,1.32,0c.5,0,.89-.16.83-.77-.05-.77-.66-.94-1.21-1.1,0-.11-.06-.17-.17-.23a2.32,2.32,0,0,0-1.21-2.76,2.08,2.08,0,0,1-.5-1.38c1-.66,1.55-1.38.5-2.49.27-1.55-.45-2.21-1.89-2.32l-2.82-.83c-.44,1.11-1.88,1.22-2.26,2.38l-1.39-.5c-.77-.28-1.49-1.16-2.32-.17-.77-1.05-1.88-.77-2.93-.88-1.94-.28-4-.28-5.86-.72-3.54-.94-7-1.77-10.57-.11a4.15,4.15,0,0,1-2.93.39c-1.66,1.49-.05,2.15.78,2.93s2.43,1.55,1.77,3.09c-1.16-1.21-2.77-1.71-4.15-2.54-.17-.17-.28-.39-.44-.55,0-.83-.5-1.22-2.05-.78.06.17.11.28.17.45l-.06.05a2.28,2.28,0,0,1-2.49,2.32,3.39,3.39,0,0,0-2.27.5h0a8.07,8.07,0,0,0-2,1c-1.83,1.38-3.32,1.05-4.37-.88a3.31,3.31,0,0,0-1.05-1.22c-.17-.17-.28-.33-.44-.5a6.4,6.4,0,0,0-7.47.67c-2.1,1.65-3.71,1.82-5.48-.17-1.49.72-3.65.55-4-.61-1.11-3.48-2.88-2.15-4.82-1.27l-1.43.17a5.57,5.57,0,0,0-3.54.22c-1.22.5-3.43-1.11-3.49,1.71-.55.22-1.21.28-1.16,1.11.06.49.33.6.78.38.44,1.27,3.31,2.77-.23,3.82-.77.11-1.49.22-2.26.38-.5.11-1.05.23-1.55.39-.67,1.27-1.94.72-3,.94-.05.06-.11.06-.16.11-.23-.22-.45-.33-.67-.16-.39.33-.22.66,0,.94A1.09,1.09,0,0,0,432,40a15.56,15.56,0,0,0,.5,2.82c-2.6-.23-4.26-2.55-6.64-3.21,0-.22-.05-.5-.05-.72.44.11,1.05.39,1.05-.33,0-.88-.67-1.33-1.5-1.44a.75.75,0,0,0-.16-.44c-.28-.61-.61-1.16-.89-1.77-1.32-.66-2.49-2.43-4.2-.72a8.27,8.27,0,0,0-2.21-.6c-.89,0-1.94.22-1.61,1.65.11.67,1.22,1.39,0,1.94s-2.37,1.71-3.76.44c-.22,0-.38.06-.6.06a2.44,2.44,0,0,1-1.33.33c-.11-.06-.28-.11-.39-.17a2.25,2.25,0,0,1-.55-1.6c-1.72.33-3.43.61-5.09.94A4.3,4.3,0,0,1,400,38c-1.11-.39-2.05-.72-1.83,1.1.11.33.23.61.34.94-.67,1.22-1.33,2.43-2.94,2.49-.11-.17-.27-.33-.38-.5,1.49-3.65,2-7.63,3.21-11.38-.45-.5-.95-1-1.39-1.55v-.44c-1.66-2.16-4-3.15-6.36-4.26h-.05a12.34,12.34,0,0,1-1.88.88c-.34.23-.67.45-1,.72-1.16.56-.72-.94-1.33-1.1a2.46,2.46,0,0,0-.88-.17c-1.22.28-2.49,1.11-2.66-1.27,0-.88-1.32-.88-2.15-1s-1.28.55-1.44,1.27c-.44,1.88-.72,3.76.77,5.3v1.5c-.33,0-.66.05-1,.05-.11.28-.17.55-.28.83s-.11.33-.16.5a4.3,4.3,0,0,1-.56.44c-.77.61-1.27,2.32-2.49.28-.22-.39-1.66.49-2.43,1.43-.39.06-.55.45-.61,1-.44.94-1.38,1.21-2,1.82-2.11,1.83-4.26,3.59-4.32,6.75.44.16.89.27,1.33.44s.66.38,1,.55c.34.44.72.83.45,1.44-.28,0-.61,0-.89.11a10.86,10.86,0,0,1-4.15,1.93c-1.38.39-1.49,1-1,2.43.77,2.1,2.71,2.77,4.2,4,.17,1.22-.72,1-1.38,1.05-.11-.05-.17-.05-.28-.11-1.32-.88-2.65-1.88-4.42-1.32a.8.8,0,0,0-.89-.83c-.38.61-.66,1.16,0,1.77-.33.16-.61.38-.94.55V56l.11.11s0-.11-.11-.11l-1.32-.5c-.23-.33-.39-.6-.61-.94a8,8,0,0,1-.33,2.33c-.12,0-.28,0-.39,0-.55,1.55-.72,3,.55,4.26a.89.89,0,0,1,.22.27.69.69,0,0,0-.22-.16c-2.05-1.22-2.32-3.21-2.65-5.31a2.95,2.95,0,0,0-3.76-2.21c-.61.11-1.33.39-1.28,1.11,0,.16.06.33.06.44a1.21,1.21,0,0,0-.22,1c0,.39.11.78.16,1.11-.11,1.05-.33,2.1-.55,3.2v.06a1.52,1.52,0,0,0-.11.72c-.06.5-.11,1-.17,1.43a7.3,7.3,0,0,1,.89,2.6,3.93,3.93,0,0,0,2.38,3.43l.11,0c-1.88-.82-4-.82-5.92-1.71-1.22,0-2.49-.55-3.6,0a5.46,5.46,0,0,1-3.15-2c-1.16.61-1,1.27-.05,1.88.72.5,1.49.89,2.26,1.33a.74.74,0,0,0,.06.38c.94,1.77.44,2.33-1.38,1.77a1.05,1.05,0,0,0-.67.17,1.94,1.94,0,0,0-.44.27h-.72c-1.05.23-2.32,1.06-3,.67-1.82-1-3,0-4.37.77a7.84,7.84,0,0,0-.66.72,3.41,3.41,0,0,0-.78.22,1.15,1.15,0,0,0-.49.39.92.92,0,0,1-.17.55c-.22.17-.5.28-.72.44s-.61.34-.88.5c-.89.33-1.11,1.11-1.39,1.88-.38.44-.66,1.33-1.38.88s-.22-1.21-.11-1.87h.06c-.06-2.11-.89-2.93-2.66-2.77-2.05.22-1.49,1.49-1.11,2.71a9.89,9.89,0,0,1,.11,1.88,1.36,1.36,0,0,0,.28.61.05.05,0,0,0,.06,0l-.06.06a.24.24,0,0,0,.11.33c.33.83.22,1.38-.77,1.38-.72,0-1.88.72-2-.88.44-.83,0-1.22-.67-1.55h-.05l-.11-.11a.72.72,0,0,0-.17-.78c-1.05-1.71-3.15-1.76-4.53-3A7.56,7.56,0,0,0,306.74,72c-2-.66-4.26-.89-5.09-3.32-1.82-.6-3.54-1.77-5.53-.94-1.43-.38-2.87-.88-4.14.5l-.06,0a6.5,6.5,0,0,1-.61.38,3.46,3.46,0,0,0-.61.39,7.38,7.38,0,0,1-1.55.66c-.82,1.44-2.48,1.27-3.7,1.88a6.35,6.35,0,0,0-.89.83,8.9,8.9,0,0,0-1.43,1.38,3.46,3.46,0,0,1-1.39.61,2.53,2.53,0,0,0-1.21,3.21,2.12,2.12,0,0,1,.16.77,2.68,2.68,0,0,0-.05,1.16,2.62,2.62,0,0,1-1.22,1.49,1,1,0,0,0-.17,1.33c.06.06.12.06.12.11s-.17.11-.28.17c-1.49,1.54-1,4.14-2.93,5.52-.33.45-.89.61-1.11,1.11-.88,2.26-2.82,3.43-4.59,4.86-2.71,1.83-3.32,3-2.38,5.59a13,13,0,0,1,.67,4.58c-.06,2.55,1.82,4,4.2,3.26a8.57,8.57,0,0,0,3.71-2.1c-.12,1.16.6,2.16.94,3.26a2.91,2.91,0,0,0,1.54,1.39s0,0,.06.11c.05.22.11.44.17.66a8.61,8.61,0,0,0,.49.77,3.44,3.44,0,0,1-.05.72,2.2,2.2,0,0,0-1.61.72,1.63,1.63,0,0,1-.49,0c-.11,0-.17,0-.28,0s.06-.16.06-.28c1.05-1.27.33-2.48-.06-3.7a1.3,1.3,0,0,0-1.6-.94,3.82,3.82,0,0,0-2.33,5.53v.05h-.16a1.57,1.57,0,0,0,.11,1.83,2.77,2.77,0,0,1,.27.66,4.21,4.21,0,0,1-.94,1.11c-.11,0-.16,0-.27.11-1.83.83-4.26.66-5.09,3.09a4.41,4.41,0,0,1-3.65,3.1,2.1,2.1,0,0,1,.17-2,1.56,1.56,0,0,0-.67-2.21c-.33-.56-.94-.28-1.44-.56a1.63,1.63,0,0,0-.05-.49c.72-.83.27-1.44-.44-1.88-1.17-1.72-3-3.37-3-5.47a5.36,5.36,0,0,0-1.38-4.15c-.72-.77-.94-2.15-2.33-1.44s-3.59,1.39-3.09,3.26c.72,2.77.38,4.37-2.44,5-.11,0-.16.28-.22.39-.44.49-.94.94-1.38,1.43-1,.22-1.44.83-1.44,2,0,.94.61,1.83.06,2.77-.89,1.77-.45,2.93,1.27,3.2a6.62,6.62,0,0,0,1.82-.22,7.91,7.91,0,0,1,2.49-.94c1.33-.55,2.38-1.33,1.44-2.93.94.06,1.11-.77,1.22-1.49a3,3,0,0,1,1.21-2.1c.06-.06.06-.17.11-.22l.67.33c.33.28.61.61.94.88l-.06.23h-.83c.06.16.17.33.22.49a3.64,3.64,0,0,0-1.16.83,6.25,6.25,0,0,1-.55.67c-.61.44-.39.88,0,1.32l.11.11a.05.05,0,0,0-.05.06,1.57,1.57,0,0,0-.28.66v.44c-.44.17-.89.39-.72,1.16a3.69,3.69,0,0,0,.77,0c.34.83-.44,1.55-.44,2.37-.44.28-.88.61-1.27.89-.39,1,.39.88.94.94a2.87,2.87,0,0,1,.44.5,2.78,2.78,0,0,0,1.44.22,5.44,5.44,0,0,1,1.22-.44,9.25,9.25,0,0,1,1.49-.78,2.62,2.62,0,0,1-1.49.78,3.38,3.38,0,0,1-1.22.44,2,2,0,0,0-1,1.16,1.19,1.19,0,0,1-.05.44,2.81,2.81,0,0,0,.05,2.87,1,1,0,0,0,1,.28,1.59,1.59,0,0,0,.89.22c2.71,2.27,3.31,3.82,2.32,6.14-.39,1.77-1.83,1.54-2.93,1.32a60.19,60.19,0,0,0-7.69-.44,3.63,3.63,0,0,0-1.16,4,6.52,6.52,0,0,1-.28,4.09c-.11.66-.5,1.33-.11,1.88-.28,0-.5.06-.77.06v.44c.27.66.6,1.27.88,1.93-.88,1-.55,1.77.5,2.38.61.16,1.22.28,1.88.44a2.37,2.37,0,0,1,2.38,1.94c0,.44-.06.94-.06,1.38,0,.11.06.22.06.33a1.64,1.64,0,0,1-.28.33,2.43,2.43,0,0,1-1.55,1.66,6.35,6.35,0,0,0-4,5.36c-.34,3.15-2,4.7-4.65,5.75-.94.39-1.38,1-.83,1.93a7.93,7.93,0,0,0-3,4.2c-.05.28-.11.56-.16.83-2.05.72-1.94,3.15-3.32,4.42-.22.61-.66,1.11-.33,1.83.16.16.27.33.44.5a.52.52,0,0,0,.44.22v.27c-.39,2.16,0,4.31-.61,6.47a1.55,1.55,0,0,0,.06.55c-.5,1.55-1.66,3-.83,4.81.33.33-.06.72,0,1.11a1,1,0,0,1-.06.38c-.33.61.11,1,.45,1.39h.11v1h2.65A15.26,15.26,0,0,0,240,205.1c0,.44.06.94.06,1.38.16.17.33.33.44.44s.06.33.06.5c.38,1.66,1.6,2.32,3.09,2.71.17.05.33.16.5.22.11.83.83,1.1,1.44,1.38.55,1,1.49,1.33,2.38,1.88a2.15,2.15,0,0,0,2.54.11,10.75,10.75,0,0,1,7.08-.77c2,.83,3.54-.22,5.14-1.22,2.27-.66,4.54-1.38,6.92-.5.16.34.33.67.49,1s.45.88.67,1.27c1.38,1.88,3,.94,4.59.55a1.41,1.41,0,0,0,.88,1,2.56,2.56,0,0,1,1.72,3.15v.06c-.22.05-.33.33-.44.55a5.55,5.55,0,0,0-.11.94H278c-1.61,4.09-.33,7.19,3.15,9.51a3.65,3.65,0,0,1,.44.55.93.93,0,0,0,.22.39c.06.27.12.6.17.88.28.17.5.33.77.5a2.46,2.46,0,0,0,.83,2.71c.34,2.26.28,4.53,1.17,6.68a2.92,2.92,0,0,1-.72,3.27c-2.16,2.1-2.55,4.86-2.66,7.73a3.74,3.74,0,0,0,.67,3c1.38,2.44,2.93,4.92,3.31,7.69.61,4.36,1.17,8.73,4.26,12.16a.48.48,0,0,1,.06-.28c.05,0,.11,0,.11.06s-.11.16-.17.22c.28,2.54,1.55,4.75,1.5,7.46-.06,2.1,1.66,2.76,3.81,2.32,1.72-.33,3.38-1.05,5.2-.89a10.66,10.66,0,0,0,7.52-2.37c3.15-2.27,4.92-5.81,7.52-8.57a3.54,3.54,0,0,0,.83-3.09c.39-.94.83-1.94,1.22-2.88a4.86,4.86,0,0,0,3.1-7.51,3.61,3.61,0,0,0-.17-.45c.17-.72.28-1.43.44-2.1,1-.83,2.05-1.66,3.05-2.48a2,2,0,0,0,1.54-1.22l.67-.66c3.37-.94,4.59-2.55,4.64-6,0-1.5,0-3,.06-4.48a2.34,2.34,0,0,0-1.05-2.38c-.44-1.82-.28-3.81-.83-5.52-.61-2,.11-3.21.83-4.81.88-1.94,2.65-3,3.59-4.81a.83.83,0,0,0,.22-.39c2.38-1.82,4-4.64,6.92-5.8.33-.28.66-.55.94-.83a.46.46,0,0,0-.06-.66c.06-.11.11-.17.17-.28a1.42,1.42,0,0,0,.44-.11,1.83,1.83,0,0,0,.55-.39,6,6,0,0,0,.89-.77.75.75,0,0,1,.39-.11c.44-.67.83-1.33,1.27-2a1.91,1.91,0,0,1,.55.06c.61-1.44,1.27-2.82,1.88-4.26.11-.16.17-.33.06-.44a.26.26,0,0,1,.16-.11c.45-1,1.33-1.71,1.66-2.82.44-1.33,1.16-2.82.28-4.09-1-1.44-2.43-.22-3.65-.17-3.21.23-6.25,2.05-9.57,1.11,0-.06.06-.11.06-.17a.5.5,0,0,0-.17-.38,1.43,1.43,0,0,1,1-1.72,16,16,0,0,0,1.77-.33,51.72,51.72,0,0,0,5-1.66c.72-.38,1.66-.49,1.66-1.65,0-.06-.05-.17-.05-.22s-.06-.06-.06-.12v0c.06,0,.06.11.11.17s.17.16.22.22a6.87,6.87,0,0,0,4.48-1.22,26,26,0,0,1,2.49-3c2.05-.28,3.32-1.77,4.76-3.1,1.1.28,1.66-.77,2.49-1.11a8.39,8.39,0,0,1,1.44-3c2.26-2.59,2.15-2.81-.28-5.47l-.06.06c-1.05-.22-2-.39-3.09-.61-.5-.77-1-1.55-1.5-2.38,0-.16.06-.33.06-.49-.17-.56.39-1.5-.5-1.66-.39-.11-.39.72-.5,1.1-.61.5-1.16,1-1.77,1.55-.16.44-.33.89-.49,1.38-.45.17-.89.39-1.33.56-1.16-.5-2.55-.34-3.65-1-.17-.61-.33-1.28-.45-1.94l.45-.44a1.26,1.26,0,0,0-1-.94c-.11.33-.16.72-.27,1.05-.39-.22-.72-.44-1.11-.66a4.17,4.17,0,0,0-2.21-3.38c-.33-.6-.67-1.21-1.05-1.87a2,2,0,0,0-.61-1.44,12.24,12.24,0,0,1,.38-1.27,5.77,5.77,0,0,1,1-.11,4,4,0,0,1,2.27,1.65,16.17,16.17,0,0,0,3.92,3.87,2.65,2.65,0,0,0,.94.5,5.51,5.51,0,0,0,1.33.33,2.33,2.33,0,0,0,1.72.17,5.63,5.63,0,0,1,1.38.27c1-.16,1.66.56,2.38,1.11a9.65,9.65,0,0,0,7.85,1.33c0,.27.22.49.44.72a4.27,4.27,0,0,0,1.83.22c2.65-.34,5.42-1.33,7.41,1.71a1.14,1.14,0,0,0,1.71.28c.06,1.32,1.5,1.76,1.94,2.93,1.16,3,2.16,3.37,5.09,2.21,1.16,0,.72,1,.88,1.54a11.57,11.57,0,0,0,.28,3c2,6.14,5,11.78,7.63,17.58.72,1.66,2,1.88,3.38.72a7.8,7.8,0,0,0,2.43-3v-.06c.44-.16.55-.77.61-1.32.38-4.09.94-8.13,3.48-11.55l1.72-1.55c2.65-2.6,4.64-6.14,8.24-7.46a4.8,4.8,0,0,0,1.71.22,5.48,5.48,0,0,1,2.66-.17,2.73,2.73,0,0,0,1,2.6c2.05,2.21,3.93,4.42,3.71,7.79,0,.39.33.67.61.94a3.71,3.71,0,0,0,2.87-.16C425.87,193.16,426.81,193.55,427.14,195ZM360.33,76.37a4.7,4.7,0,0,0,.56-.88,28.24,28.24,0,0,0,.61-3c0-.16.05-.33.05-.5a4.29,4.29,0,0,0-.22-2.1,3.18,3.18,0,0,0,.77.72v.28c-.33.39-.33.88-.55,1.38-.05.11-.05.17-.11.28a10.9,10.9,0,0,1-.61,3,1.41,1.41,0,0,1-.5.83C360.33,76.43,360.39,76.32,360.33,76.37ZM313.05,143c-1.33.61-2.55,1.27-3.82,1.93a2.73,2.73,0,0,1-2.54-1.43,2.47,2.47,0,0,1,0-2.33c.16-.33.27-.66.44-1,.33-.66.66-1.38-.11-1.93l.33-.34a1.28,1.28,0,0,0,.33-.55,1.92,1.92,0,0,0,.44-.88c.78.38.95-.61,1.22-1.11.83-1.38,1.88-1.71,3.15-.66.06,0,.17,0,.23,0V135l.66.5a1.36,1.36,0,0,1-.11.44c1.27,2.71,1.44,2.82,3.15,1.5a.05.05,0,0,0,.06.05.74.74,0,0,0,.88-.11,3.2,3.2,0,0,1,3,0,5.47,5.47,0,0,0,1,.89,24.77,24.77,0,0,1,6.08,5,2.12,2.12,0,0,1-.16.77,6.57,6.57,0,0,0-1.44.22,11.18,11.18,0,0,1-5.86-.88A8.3,8.3,0,0,0,313.05,143Zm34.4,10.39c-2.05.5-4.65-1.11-5.64-3.26a3.29,3.29,0,0,0,.33-1.77c.77-2-.39-3.54-1.33-5.08a1.11,1.11,0,0,0-.88-.34c0-1.71-1.22-2.93-1.88-4.36-.78-1.77-.72-2.93.77-4v0c1.16.33,2.21-1.27,3.48-.83-2.21,3.7-2.15,4.42.67,7.63a7.37,7.37,0,0,1,1.16,1.71,1.8,1.8,0,0,0,1.16,1.21c.72,2.6,2.38,4.76,3.54,7.13A2,2,0,0,1,347.45,153.42Zm-30.7-17.74-.33-1.33a13.5,13.5,0,0,1,1.38-.28,1.37,1.37,0,0,0,.78-.71c1.1.49,1.82-.5,2.65-1a3.51,3.51,0,0,0-1.38,2.38A4.92,4.92,0,0,0,316.75,135.68Zm-19.19,9a.21.21,0,0,1-.11-.06c.06,0,.11,0,.22,0-.05-.11,0-.17.06-.11s0,.05,0,.11a.19.19,0,0,0-.11,0S297.67,144.69,297.56,144.69Zm26.6,21.66Zm-1.49-59.14h0Zm-1.33,25c.06-.05.11-.05.17-.11S321.4,132.25,321.34,132.25Zm-5.42-46.76a.75.75,0,0,1-.72-.28c-.11-.11-.16-.22-.27-.27-.39-.17-.72-.39-1.05-.55a6.54,6.54,0,0,0-1.83,0,1.69,1.69,0,0,1,1.83,0,1.77,1.77,0,0,1,1.05.55,3.78,3.78,0,0,0,.88.27A1,1,0,0,0,315.92,85.49ZM296,268.16Zm-34.29-66.38Zm20.8-88.93.39-.17a4.13,4.13,0,0,0,2.48-1.65,3.25,3.25,0,0,0,.61-2.49,5.79,5.79,0,0,1,.22-2.54,2.82,2.82,0,0,1,.67-.94c2.15-2.27,2.15-2.82.05-5.2a2.71,2.71,0,0,1-.66-1.66,7.48,7.48,0,0,1,1.38-5.3c.78-.94,1.55-1.88,2.27-2.88.05.06.17.06.22.11.33,0,.72-.16.72-.49a6,6,0,0,1,2.6-4.76c.11.45.61.72.72,1.16a2.18,2.18,0,0,0,.11.61,3.2,3.2,0,0,1-1.16,2.93,8.27,8.27,0,0,0-2.05,8.4c.39,1.66,2.82,4.48,4.37,4,2.21-.61,4.7-.5,6.58-2a3.57,3.57,0,0,1,.17,2.26c-2.33-.6-4.65-1.1-6.64.94-.05.11-.05.22-.11.33-1.22.89-2.93,1.5-1.77,3.65-1.83,2.38-2.27,4.42-1.33,6.08a.78.78,0,0,0,.17.39l.05.05a1.93,1.93,0,0,1-2.21.45c-3.37-1.27-5.92.49-8.41,2.37a4,4,0,0,0-2.59-.77c.16-.33.27-.61.44-.94C280.14,113.18,282.08,114.18,282.52,112.85Zm-27.21,43a4.37,4.37,0,0,0,2.76-.44c2.55-1.27,5-2.54,4.43-6.25a2.15,2.15,0,0,1,1.32-2,6.83,6.83,0,0,0,3.77-4.48c.16-.66.66-1.1,1.16-.83,2.71,1.44,4.26-.49,6-2,.44-.5,1.16,0,1.66-.33,0,.05,0,.11.05.11.61.49.56,1.49,1.44,1.77.33.05.22.22.22.38.5,2.27,2.05,3.26,4.1,3.76.33.17.6.39.94.55.16,0,.38,0,.55,0a.21.21,0,0,1-.06.11c.11.66.34,1.1,1,.94a1.36,1.36,0,0,0-.22.66c.55,1.55,1.05,2.93-1.44,3.15a2,2,0,0,0-1.82,2.05,1.63,1.63,0,0,0,1.65,1.49c.23-.11.39-.22.61-.33,1,.33,2,1.05,2.77-.28.05,0,.11.06.16.06.78-.22,1.17-.89,1.83-1.27,0-.28,0-.61,0-.89l-.11-.11c.83-1.27.39-2.76.56-4.14.44-.12,1,0,1.21-.45s-.27-.72-.6-.88c-.67-.39-1.39-.72-2-1.11-1.16-1.32-3.32-1.65-3.71-3.76-1.1-1.1-2.6-2-2.32-3.86a.06.06,0,0,1,.06-.06c1.21,1.71,3,2.87,4.48,4.31.94,0,1.93.83,2.87.39,0,.05.06.05.06.11a4.18,4.18,0,0,0,1.66,1c-.17.78.38,1.39.77,2,.33.28.61.55,1.05.44a2.57,2.57,0,0,0,.06.28,1.38,1.38,0,0,0,1,1.05h.17a.76.76,0,0,0,.05.33c-.22,1.22.89,1.88,1.28,2.87-.45,0-.89.06-1.33.06.05.61.05,1.21.11,1.77h1.16c.17.77.44,1.38,1.44,1,1.77,2.32,1.77,2.32,3.59-.11a9.09,9.09,0,0,1,.72-.83c.17-.06.39-.11.61-.17h.22a1.13,1.13,0,0,0,0-1.71c-.55,0-1.1.05-1.66.05-.11-.05-.16-.11-.27-.11-.11-.44-.28-.88-.39-1.32a1.79,1.79,0,0,0,.11-.56c1.55-.27,2.54-2.1,4.31-1.93a5.66,5.66,0,0,0,.5,6.36,3.54,3.54,0,0,1,.44.16c-.05.5.11.78,1,.67,0,.05,0,.05.05.11,2.44,3.75,6.53,1.71,9.74,2.81a2.41,2.41,0,0,0,2.21-.27c.28-.17-.05.05.17-.17a1.88,1.88,0,0,1,2.93.33c-.94.5-.28,1.39-.22,2.16a1.83,1.83,0,0,1,.33.61,2.79,2.79,0,0,1-.39.49,1.19,1.19,0,0,0-.28.56v.77c-.16.06-.33.17-.49.22a1.42,1.42,0,0,0-.33.94c0,.06,0,.17.11.22-.89.72-1,1.88-1.33,2.93v.06c-.22,0-.5.05-.72.05-1.6.17-3.15-1.21-4.65-.49-2.43,1.1-4.59.05-6.85-.23-.83-.11-1.61-.55-2.44-.27,0,.05,0,.05,0,.11-1.5-.66-2.93-1.33-4.43-1.94-1.1-.82-2.15-.22-3.26,0-1.38,1.11-.55,3-1.38,4.26a1.56,1.56,0,0,1-1.28.33v0c-.22-1.11-1.27-1.22-2-1.66s-2-.22-2.77-1.05c-.88-1.6-2.38-2.1-4-2.32-.83-.11-1.72,0-2.44-.56a1.09,1.09,0,0,0-1.38-.11c0,.06,0,.17-.06.22-.38-.11-.72-.27-1.1-.38-.11-.22-.17-.39-.28-.61.06-.06.06-.11.11-.17a1.39,1.39,0,0,1,.78-1.38,2.78,2.78,0,0,0,.77-1.93c-.11-.83-.05-1.61-.17-2.43a2.31,2.31,0,0,0-2.26-1.5,3.09,3.09,0,0,0-2.05.45c-2.32-.06-4.65.38-7,.33a11.5,11.5,0,0,0-5.53,1.32c-2.65,1.44-5.25,2.44-8.29,1.94C253.32,156.29,254.64,156.18,255.31,155.85Zm76.76,40.85c-.72-.5-1.49-1-2.21-1.44a1.28,1.28,0,0,0-.61-1.11c-.27-.11-.5-.27-.77-.38-.06-.11-.06-.17-.11-.28a.39.39,0,0,0,.05-.61c-.77-.83-.61-2.32-1.88-2.82a6.81,6.81,0,0,1-2.1-4.2,6.47,6.47,0,0,0-1.55-3.75c-.83-.61-1.71-1.17-1.27-2.44a1.5,1.5,0,0,0-1.11-2.32c-1.32-1.16-1.77-2.82-2.43-4.36a1.64,1.64,0,0,1,1.22-1.05c.05.16.16.27.22.44,2.43,4,6,7.29,7.19,12.1a1.66,1.66,0,0,0,.61,1c2.26,1.66,3.2,4.36,5,6.35a4.3,4.3,0,0,0,1.22,1.22c-1.16,1.55.11,3,.66,4.42.06.11.06.22.11.28C333.46,197.91,332.85,196.59,332.07,196.7ZM359,66.7c.61,1.16,1.49,1.55,2.65.83a6.08,6.08,0,0,1,.61-.28c.11,0,.22-.16.33-.22s.11.06.17.06l-.5.16c-1,.72-1.44,1.33-1.27,2A2.91,2.91,0,0,0,358.73,68a.49.49,0,0,1-.11-.23,4,4,0,0,0,.06-1.82C358.79,66.26,358.9,66.48,359,66.7Zm4.81,100.48v.39a.45.45,0,0,0-.33.17,1.18,1.18,0,0,1,.22-.39C363.71,167.29,363.76,167.24,363.82,167.18Zm3.76-123.36c-.06,0-.17,0-.22.11S367.47,43.87,367.58,43.82ZM357,63.33a1.62,1.62,0,0,0,.16-1.83,3.26,3.26,0,0,1,.61,1.72,7.51,7.51,0,0,0,.33,1.54,3.87,3.87,0,0,0-1.38-1.27C356.85,63.44,356.91,63.38,357,63.33Z"/><path class="cls-3" d="M317.69,157.73a1.79,1.79,0,0,0-2.71.55C316,159.06,316.92,158.73,317.69,157.73Z"/><path class="cls-3" d="M307.57,155.85a.57.57,0,0,0-.94,0,5,5,0,0,0,.06.94C307,156.46,307.3,156.18,307.57,155.85Z"/><path class="cls-3" d="M241.81,33.2a1.62,1.62,0,0,0-.88,1.39A1.18,1.18,0,0,0,241.81,33.2Z"/><path class="cls-3" d="M228.32,74.33a5.28,5.28,0,0,0,1.21-.61A7.7,7.7,0,0,0,233,69.85a3.12,3.12,0,0,0,.83-3.54c-.16-.44-.27-.94-.44-1.38s-.11-.61-.17-.94-.11-.61-.16-.94,0-.61,0-.94c1.17-.83.94-2.43,1.88-3.37.34-.11.61-.28.94-.39l1-.94c.77-1.54,1.54-3.15,2.32-4.7,1.27-.33.44-1.21.44-1.87a4.4,4.4,0,0,0-1.71-1.61c-.23-.44-.39-.83-.61-1.27,0-1-.89-1.82-.44-2.93.6,0,1.27.06,1.88.06,1.93.22,1.71-1.49,1.05-1.94-1.33-.83-1-1.88-1.11-2.87V39.12a4.27,4.27,0,0,0,1.11-2.71V36.3a10.75,10.75,0,0,0,.55-2.27A10,10,0,0,1,242,31c.45-.38,1-.72.45-1.43v-.5c1.1-.11,1.82-.61,1.77-1.88.27-.22.55-.39.83-.61s.71-.55,1.1-.83c0-.94.89-1,1.38-1.38,1.66-1.33,1.55-2.87-.33-3.87-1-.5-2.38-.94-3.09-.22-1.22,1.16-3,1.05-4.15,2.16-.89-.5-.22-1.33-.44-1.94.11-.66.44-1.38-.23-1.93-.38-.33-1-.28-1.21.16-.78,2.05-2.6,1.16-3.93,1.5v-.67c1.16,0,1.71-.61,1.66-1.82,0-.17,0-.39,0-.55,1.83-.61,3.88-.34,5.54-1.55.11-.78.11-1.49-.89-1.72-.44-.16-.88-.38-1.27-.55-.61-.5-1.22-.94-1.83-1.44.61-1.65-.49-1.32-1.43-1.32a5.76,5.76,0,0,1-.12-.94c.61-.89,0-1.33-.71-1.55-2.33-.77-4.54-1.88-7-1.88-1.05,0-2.15-.11-2.87,1-.67-.11-1.17,1.38-1.94.11-.39.27-.55,1.27-1.11,1-2-1.21-3.59.28-5.25.89L218.25,11c-1.66.72-3.54,1.28-2.6,3.82a4,4,0,0,1-.55,2c-.5-.61-.61-1.49-1.33-1.94-.44-1.21-.33-2.87-2.32-2.81-.06.77-.17,1.54-.22,2.32-.11,1.43-.78,2.1-2.21,1.77.44-1.39-.06-2.77.11-4.15-.17,0-.34-.06-.45-.06a2.39,2.39,0,0,0-3.26-.38c-2,.11-3.65.11-4.09-2.71-.22-1.27-.55-3.48-2.82-3.48-2.21-2.55-5.2-3.43-8.35-3.82-.17-.27-.34-.6-.5-.88-.28,0-.61-.06-.89-.06a11.28,11.28,0,0,1-3.92.56C183.52,1,181.25.82,180.42,3c-.66.55-1.38,1-2.26.55-.45-.33-.95-.6-1.44-.11a4.5,4.5,0,0,1-4.15,1.11,3.77,3.77,0,0,0-3.65.88c-.28.17-.61.33-.89.5v.88a3.82,3.82,0,0,1,.83.06c0,.28.06.55.06.88a.86.86,0,0,0-.5.56,1.19,1.19,0,0,1,0,.44c-.06.94-.78,1.88,0,2.87a1.38,1.38,0,0,1,0,.45,1.48,1.48,0,0,1-1,1.05c-.45-.34-.89-.67-1.33-1.05a15.83,15.83,0,0,0,.33-3.93,1.6,1.6,0,0,0-1.11-1.38.74.74,0,0,0-1.1.5c-.39,1.6-2,1.88-2.82,3-2.1,1.27-2.38,3.87-3.71,5.63a3.25,3.25,0,0,0,1,2.77,1.91,1.91,0,0,1-.06.55c-.44.17-.88.33-1.38.5,0,.77-.5,1.49-.11,2.26a.43.43,0,0,0-.06.5c-.22,1.83.67,2.82,2.88,2.76,1.66,0,2.16.45,1.44,2a4.44,4.44,0,0,0-.89.06c.28,2.27-.55,3.59-2.87,3.76a4.4,4.4,0,0,1-5.26-.39,5.74,5.74,0,0,0-.72-.55l-1.49-1.83c-.77,0-1.6,0-1.71,1.11s0,2.27,1,2.71c1.94,1,1.77,2.49,1.22,4.14-.28.34-.61.61-.89.94C148.73,37.9,149,39,149,40a3.51,3.51,0,0,0,1.39,1.44,19.7,19.7,0,0,1,2.43,1.22,1,1,0,0,0,.94,0l.39.16c2.26.72,4.64.78,6.85,1.77a1.28,1.28,0,0,0,1.89-1.11c.11.06.16.06.27.12a2.53,2.53,0,0,0,2.16-2.6,3.06,3.06,0,0,0-1.72-3,4.94,4.94,0,0,0-3.7-.78,5.84,5.84,0,0,1-4.2-.6c-.12-.06-.17-.11-.28-.17a1.33,1.33,0,0,1,1.82-1.22c.56.11,1.05.22,1.5-.22v0a.42.42,0,0,1,.11.22c1.55.77,3.48.22,4.86,1.55.89.49,1.44,1.65,2.66,1.6a.38.38,0,0,0,.17.39c.55.33.94-.39,1.38-.56a1.08,1.08,0,0,1,.44-.72,1.39,1.39,0,0,0,.28-.16s.11-.06.16-.06.06,0,.11,0l.67-.33a2.27,2.27,0,0,0,.66-.78,5.41,5.41,0,0,0,.22-1.93c-.11-.66.61-1.22.33-1.88.78.44,1.33,0,1.77-.61a1.49,1.49,0,0,1,1.33-.77c1.22.16,1.88-.61,2.77-1.33,1.88-1.55,2.49-4,4-5.8A12.83,12.83,0,0,0,186,21.6a34.92,34.92,0,0,0,2.82-2.1c.72-.72,1.88-.94,2.16-2.05,0,.06,0,.06,0,.11a2,2,0,0,0,.61.33,2.49,2.49,0,0,0-1.83,1.55c0,.11-.11.17-.16.28a1.47,1.47,0,0,0-1.44,1.71A1.51,1.51,0,0,0,189.88,23c.11,0,.17-.06.22-.06-.22.72-.72,1.39-.28,2.16a71.79,71.79,0,0,0-9,1.93c-1.66.5-2.88,1.55-2.6,3.32a5,5,0,0,0,2.1,3.76c-.16,0-.33,0-.5,0a2.07,2.07,0,0,0-1.93,1.66c.33,1.44.33,2.93.77,4.31a3.64,3.64,0,0,0,3.76,1.61c1.94-.34,3.82.82,5.76.49.11.11.16.22.27.33s.11.12.17.12c.39,1.6,1.33,2.92,1.55,4.69.49,4.15,1.66,8.24-.22,12.33a2.24,2.24,0,0,0,0,1.38c0,.06.05.11.05.17s-.28.16-.39.22c.22.5.67,1.27,1.11,1a3.47,3.47,0,0,1,.55-.22c.11,0,.22,0,.33,0a1.59,1.59,0,0,1,1.61,1.77,10.94,10.94,0,0,1-.28,1.49,4.3,4.3,0,0,0-2.71-.83L190,65a1.3,1.3,0,0,0-.05.44,2.32,2.32,0,0,0-.56,1c0-.06-.11-.06-.16-.11a1,1,0,0,0-.67.11,2,2,0,0,0-.94,2.26,2.77,2.77,0,0,0,1.22,2.49c.72.33.72.77.39,1.49-.56,1.27-1.77,1.88-2.33,3a9.74,9.74,0,0,0-.72,5.25c.34,2.21.12,4.76,1.88,6.58.06,0,.06.06.12.06-.28,2.93.94,5.52,1.82,8.23.33.94.89,1.66,2,1.55.06,0,.06-.06.11-.06.33,1.72,2,1.11,3,1.5-.49,1.27.28,1.88,1.5,2.21a1.91,1.91,0,0,0,1.82-.56h.44c.83-.27,1.11-1,1.33-1.76a2.93,2.93,0,0,1,.5-.94c.33-.89.33-1.94,1.05-2.71a1.92,1.92,0,0,0,.22-.61c.33-2.1,2.1-3.15,3.1-4.75,0-.06,0-.11,0-.17s.06,0,.06,0c1.16-2.16,3.32-3.21,5.09-4.65a.59.59,0,0,0,.11-.44,1.73,1.73,0,0,0-.11-.55l.16-.17a12.59,12.59,0,0,0,2.11.22,5,5,0,0,0,3.54-2.43,8.31,8.31,0,0,1,6.08-3.81c1.88-.33,3.82-.61,5.36-1.94a1.4,1.4,0,0,0,.28-.77C227.88,74.49,228.1,74.38,228.32,74.33ZM195.19,16a5.47,5.47,0,0,1,.55-.5c.67-.72,1.27-1.49,2.38-1.49,0,0-.05,0-.05.11s-.12.06-.12.11c-.44.94-.88,1.88-2,2A1,1,0,0,0,195.19,16Zm39.65,29.13c0-.06.06-.06.06-.11v.16ZM180.37,2.86h0l-.06-.06A.06.06,0,0,0,180.37,2.86Z"/><path class="cls-3" d="M443.18,227.93h0c1.61-.56-.38-1.33.17-1.94l-.17-.44-1.32.5c-.23-.17-.39-.34-.61-.5-1.61-1.49-1.77-4-3.43-5.42-1.05-.33-1.66-1.38-2.77-1.66a2.64,2.64,0,0,1-.94-.22,4.8,4.8,0,0,0-.61-.33,4.24,4.24,0,0,1-.6-.44c-.06-2.32-1.94-2.54-3.49-3.21-.05,0-.11.06-.16.06a2,2,0,0,0-.83-1.05,1.41,1.41,0,0,0-1.05-.33,10.42,10.42,0,0,1-1.22-.22c-.5-.11-1-.67-1.44-.06s.06,1.22.5,1.6a.48.48,0,0,0,.28.22,2.94,2.94,0,0,0,.27.67c.89,1.55,1.77,3.15,3.65,3.65a.76.76,0,0,1,.33.05c0,.06.06.17.06.22a7.72,7.72,0,0,0,.39,2,15.55,15.55,0,0,0,1.16,1.6c.38.67.94,1.28,1.33,1.94l.33.5a14.41,14.41,0,0,1,1.1,2.48,1.61,1.61,0,0,0,.39.5,10,10,0,0,1,1.11,1,2.61,2.61,0,0,0,.44.44,9.94,9.94,0,0,1,1.49,1.55,1.07,1.07,0,0,0,1.11.39,5,5,0,0,0,4,.94A15.9,15.9,0,0,1,443.18,227.93Z"/><path class="cls-3" d="M471.06,196.53a9.37,9.37,0,0,1-.89-.72c-1,1.22,0,1.27.78,1.38v.39c1,.66.88,2,1.77,2.77.33.22.72.38,1,.6s.55.22.77.33c.61.5.94.23,1-.44,0-.33,0-.61-.11-.94-.61-.38-1.21-.77-1.82,0-.11-.16-.28-.27-.39-.44C472.77,198.36,472.61,196.86,471.06,196.53Z"/><path class="cls-3" d="M449.6,185.81a2.19,2.19,0,0,0-3.26.22,1.32,1.32,0,0,0-.17,1.88c.72,1,1.66.39,2.49.11C449,187.3,449.32,186.53,449.6,185.81Z"/><path class="cls-3" d="M469.62,203.22a1.69,1.69,0,0,1,1.05.39,0,0,0,0,1-.05,0c-.23.44-.5.94-.17,1.44a4.56,4.56,0,0,0,.5.55l.94-.16c.05-.06.11-.12.11-.17.44-.72.88-1.38,1.33-2.1-.17-.28-.28-.55-.45-.88-.61.27-1.05-.12-1.44-.5a1,1,0,0,0-1.21-.67c-.78.17-.44.94-.55,1.5A1.88,1.88,0,0,0,469.62,203.22Z"/><path class="cls-3" d="M466.74,198l1.33,1.83C468.62,198.24,468.29,197.8,466.74,198Z"/><path class="cls-3" d="M303.92,157.79c-1.44-.45-2.71-1.16-3.7.44C301.38,158,302.65,159.06,303.92,157.79Z"/><path class="cls-3" d="M288.66,109.31a1,1,0,0,0,.49-1c0-.33-.27-.61-.6-.44s-.34.49-.39.77S288.21,109.37,288.66,109.31Z"/><path class="cls-3" d="M202.21,230.63a8.64,8.64,0,0,1-3.32-2,9.42,9.42,0,0,0-5.86-2.43c-2.43-.11-4.86-.17-6.91-2a4.82,4.82,0,0,0-3.87-1.21,1,1,0,0,1-1.11-.39,1.64,1.64,0,0,0-.72-.5c-.11,0-.22,0-.33,0-.66-2-1.66-3.82-2.49-5.7-.33-.49-.72-.94-1.38-.77l-.06,0a.76.76,0,0,0,0-.33c-.44-1-1.44-1.32-2.16-2s-1.27-.94-2-.55a2.12,2.12,0,0,0-.05-.28c-1.77-1.88-3.38-2.16-5.37-.94-1-1.49-2.65-2.43-3.76-3.81a.82.82,0,0,0-1-.06c.23-1.38-1.16-1.6-1.82-2.32-1-.89-2.21-1.44-3.21-2.38-1.44-.44-2.93-.05-4.37-.11-2-.05-4,.11-5.69-1.38-1.55-.66-3,.39-4.54.33a1,1,0,0,0,.5-.72c-.39-1.93-1.55-1.54-2.77-.88a14.87,14.87,0,0,1-2.54,1.6c0,.06-.06.11-.06.17-2.43-.22-3,2-4.25,3.31-1,.94-1.66-.11-2.44-.44-2.16-.94-3.7-.5-4.59,1.38a1.15,1.15,0,0,0-1.38-.05c-.06.05-.06.11-.11.11-.39-.17-.78-.28-1.16-.44l-.67-.83c-.27-.22-.55-.5-.83-.72-.88-2,.06-4,0-6,.83-2.92.28-3.81-2.65-4.25a20.59,20.59,0,0,0-5.26.11l-.6-.44a3.28,3.28,0,0,0,.44-2.27c.22-.61.5-1.27.72-1.88.83-.33.83-1.05.83-1.77a3.22,3.22,0,0,1,1.43-2.82,1.17,1.17,0,0,0-.49-1.82c-4.32.44-5.2.55-6,2.71a4.92,4.92,0,0,0-.66,1.38c0,.06,0,.11,0,.17a2.07,2.07,0,0,0-1.11.27c-1.49.55-3.21,1.33-4.59.89-2.49-.83-3.93-2.93-4.48-5.64-.39-2,.55-4-.22-6,0-.28.11-.55.16-.83a3.38,3.38,0,0,0,.94-1.66,3.13,3.13,0,0,0-.16-1.6c0-.06,0-.11,0-.17a2.67,2.67,0,0,0,.17-.66c.66-2.32,2.93-2.54,4.53-3.59.28-.11.61-.17.89-.28a5.47,5.47,0,0,1,4,0l.61.16a2.17,2.17,0,0,0,.94.28,1.51,1.51,0,0,0,.94-.11c.61-.22,1.16-.5,1.27-1,.06-.06.11-.06.17-.11a3.51,3.51,0,0,0,.55-.39c2.1-1.05,4.09-.66,6.08-.06a1.64,1.64,0,0,0,1.33.45c.5.16.94.33,1.44.49a2.22,2.22,0,0,1,1.27,2.33,7.49,7.49,0,0,0,1.5,4.31c.16.27.27.55.44.88,0,.06,0,.11.11.17l0,.11c.61,1,1.22,1.05,1.83-.06s1-2.37.22-3.65a32,32,0,0,0-.77-3.92v-.17a7.55,7.55,0,0,1-.06-3,12.11,12.11,0,0,1,.66-1.38,7.12,7.12,0,0,1,1-1.22,16.2,16.2,0,0,1,1.71-1c.34,0,.61-.06.94-.06.06-.11.11-.27.17-.38a4,4,0,0,0,.77-.39c.5-.33,1-.67,1.5-1.05a15.62,15.62,0,0,1,1.88-1.6,1,1,0,0,0,.83-.28c1.88-1.55,2.27-2.71,1.44-4.48a2.41,2.41,0,0,0,1-.39,8.86,8.86,0,0,0,2.77-3.15c1.66-2.1,3.26-4.25,6.08-4.86,1.71-.94,2-2.65,2.43-4.31.83-1.49,2.49-1.49,3.76-2.16a11.42,11.42,0,0,1,1.77-.83c.06,0,.11-.05.23-.11s0,.06,0,.06a1.27,1.27,0,0,0,.06.77c.77,1.22,1.66.94,2.6.28a11.54,11.54,0,0,1,1.1-1.22,5.32,5.32,0,0,1,.55-.33,2.47,2.47,0,0,1,2-.66,2,2,0,0,0,1.1-.66.42.42,0,0,0,.06-.23h.83a3.25,3.25,0,0,1,1.49-1,1.21,1.21,0,0,0,.39-2c-.56-.77-1-.22-1.55.23s-.72.82-1.38.66a4.24,4.24,0,0,1-3.38-3.1,3.51,3.51,0,0,1,.78-1.65c.77-2.49-.11-3.54-2.71-3.32a1.57,1.57,0,0,0,.55-.77,10,10,0,0,0,2.88.16h.05a5.81,5.81,0,0,1,.55,1.27c.67-.33,3.21,2.27,2-1.16a12.54,12.54,0,0,1,1.5.06c2.1-.39,4.59.11,5.53-2.66h.05c.34.78-.16,1.77.45,2.44a4,4,0,0,0-1.16,2,1.66,1.66,0,0,0-1.06-.11,2.22,2.22,0,0,0-.6.44c-1.22,2.82-.94,3.42,2,3.7a6.09,6.09,0,0,1,2,.44.48.48,0,0,0-.06.56c1.05,1,2.49.6,3.71.94.16,0,.33-.06.5-.06.94,0,2-.44,1.66-1.38-.61-1.72.44-4.31-1.66-5-2.49-.94-2.38-2.05-1.72-4.26.78-2.43,2.21-5.36-1.1-7.24-.17-.33-.34-.61-.5-.94-.28-.83-1-1.16-1.61-1.6-1.82-1.38-4-2.6-2.71-5.58a1,1,0,0,0-.11-.89c-1.05-1.71-1-3.81-1.55-5.64.06-1.43.06-2.81-1.32-3.75l-.5,1.32a5.85,5.85,0,0,0-1.44,2.38c-1.33.61-2.38,2.65-4,1.49s-1.44-3.31-1-5.19a4.75,4.75,0,0,0,.28-1.11c0-.39-.11-1-.33-1-2.27-.72-2.43-3.32-4.15-4.53-1.16-.78-2.54-.33-3.82-.89-2.15-.88-2.71-.27-3.26,2-.66,2.66,0,5.86-2.71,7.85a1.74,1.74,0,0,0-.22,2.21c1.71,3.49,1.22,6.3-1.82,8.35a1.57,1.57,0,0,0-.89-.11c-.72.28-1.49.39-1.88,1.21a1.64,1.64,0,0,0-.22.56c-.06,0-.06.11-.11.16a14.73,14.73,0,0,0-.44,5.14,4.64,4.64,0,0,1-.12.45c-.05.22-.16.44-.22.66a2.82,2.82,0,0,1-.44,1.38,1.67,1.67,0,0,1-1.82.11,1.48,1.48,0,0,0,.05-.44c.22-1.16-1-1.77-1.05-2.82.39.11.77.17.94-.28.17-.66-.33-.77-.88-.88a3.33,3.33,0,0,1,.11-.77c0-.72.33-1.39.44-2.1.5-2.6.22-3-2.27-3.49a4.42,4.42,0,0,1-3-1.54c-1.49-1-2.43-2.6-3.92-3.6-2.1-1.38-4.87-2-4.48-5.58v-.11s-.06,0-.11-.11c-1.33-1.44-.72-2.87-.06-4.31s1.83-2.1,2.77-3.1c.83-2,2.6-2.93,4.31-3.87.89-.49,1.88-.88.94-2.1h.11c.06,0,.06,0,.11-.22a.52.52,0,0,0-.05-.27c2.54-.17,5-.45,7-2.49a2.58,2.58,0,0,0,.72-1.66,2.27,2.27,0,0,0,.82.5c-.05,0-.11.16-.16.22-.39.77-.72,1.55-1.16,2.32-.56,1,.16,1.66.66,2.27.61.77,1.22.16,1.77-.28,1.44-1,2.77-1.44,4,.33.22.28.67.33,1,.5.16,0,.33,0,.55,0,1.77.12,1.88-1.16,1.44-2.32-.61-1.54-1.16-3.2-2.66-4.2a36.85,36.85,0,0,1,4.71-4c1-.83,2.1-1.94.55-3.21,0-.11.05-.22.05-.33,1.28-1.27,2.6-2.49,2.71-4.53.06-.94.72-1.05,1.44-1.11.5-.27,1.27-.33,1.5-.94a1.77,1.77,0,0,0,1.21-1.05,2.64,2.64,0,0,0-.27,1.16,11.76,11.76,0,0,0,.94,2.49v1.55c-.17,1.38-2.05,1.1-2.33,2.38a.43.43,0,0,0-.11.55c.06,0,.11,0,.17.11.33,2,.77,2.15,2.49.83l.11.11a1.44,1.44,0,0,0,.94,0c.16-.11.39-.17.55-.28h1.27c.06,0,.11,0,.11.06.17.33.28.61.45.94-.28.6-.61,1.21-.94,1.82v.06c-.23.16-.5.38-.78.6s-.39.23-.55.34c-.55.55-1.33,1-1.44,1.82a2.42,2.42,0,0,1-2.65,2.32c-.39,0-.83-.11-1.28-.16a2.1,2.1,0,0,0-2.48.66,1.5,1.5,0,0,0-.12,1.77c.61,1,1.5.94,2.44.77a5.48,5.48,0,0,1,2.1,0,5,5,0,0,1,2.32,2,1.5,1.5,0,0,1,.11.5A6.26,6.26,0,0,0,160,87.48a5.82,5.82,0,0,0,1.88,1.77c.77.55,1.66,1,2.43,1.55,1.55,1,1.88.27,1.77-1.22.11-.33,0-.88.45-.88A3.59,3.59,0,0,0,168,89.86c2.38-1.49,2.88-2.88,2.11-5.42-.45-1.38-1.55-2.6-1.33-4.42,1,.55.88,1.77,1.93,1.88.5.11,1.17.61,1.55.11a37.79,37.79,0,0,1,4-3.87.88.88,0,0,0-.11-1.44c-2.16-1-2.77-3.53-4.7-4.75-1.61-1-2.27-2.43-.39-4a2.23,2.23,0,0,0,.61-1.71c.72-.78.33-1.5-.06-2.27a2.34,2.34,0,0,0-.27-1.05,1.63,1.63,0,0,0-.56-1l-.16-.17a13,13,0,0,0-2.1-2.43c-.06-.16-.11-.38-.17-.55,0-.39-.5-.55-.88-.66a.9.9,0,0,1-.34-.11,9.35,9.35,0,0,1-1.65-2.1c-.06-.17-.06-.34-.12-.5a5.37,5.37,0,0,0-.77-1.94c-.17-1.6.5-3.15-.39-4.64-.38-.17-.72-.28-1.1-.44-.06-.11-.11-.17-.17-.28a1.89,1.89,0,0,0-.61-.27,3.91,3.91,0,0,1-.83-.06c-.83-.28-1.6-.55-2.43-.88a9,9,0,0,0-1.27,0,3.91,3.91,0,0,0-.83-.06,3.23,3.23,0,0,0-.67.11l-.33.17A2,2,0,0,1,155,45.92h-.39c-.33-.17-.6-.39-.94-.56a1,1,0,0,0-.05-.38h-.94a8.28,8.28,0,0,0-1.22,0,1.39,1.39,0,0,0-1,.49c-.17.11-.34.28-.5.39a6.73,6.73,0,0,0-2.55,2.71c-.27-.17-.49-.11-.71.17-.78,1.27-1.55,2.48-2.33,3.75h-.44c-.39,1.55-.22,3.21-.66,4.81a1.47,1.47,0,0,0,.66,1.83c.77.66,1.55,1.27,2.32,1.93a5.78,5.78,0,0,1,1.11,1c-1.22.49-.5,2-1.22,2.76,0,0,0,.05,0,.22a1.42,1.42,0,0,0-1.11.44,5.73,5.73,0,0,1-3.15,3.1,3.28,3.28,0,0,1-.17-1.27c.06-.22.11-.45.17-.67,1.05-.83.72-2,.77-3.15h-.49A6.53,6.53,0,0,1,140,62.11a3.29,3.29,0,0,1,0-1,2.45,2.45,0,0,1,.06-2,1.44,1.44,0,0,0-.17-2.1c.56-1.66,1-3.32.28-5.08-.22-.61.17-1,.39-1.5V49.9c.33-.28.72-.5,1-.78a1.32,1.32,0,0,1,1.6-1.27c2.55.17,3.26-2.21,4.76-3.59.16-.11.11-.61,0-.89-.83-1.54-4.21-2-5.53-.88a8.53,8.53,0,0,0-2.05,2.82c-2.16,1.21-1.11-.83-1.44-1.49l1-1.83a3.64,3.64,0,0,1,.44-.44c-.33-.5-.61-.94-.88-1.44-.45.11-.94.28-1.39.39-1.05.06-2.1.06-3.15.11,0,.28-.05.61-.05.88s-.06.34-.06.45c-.28.05-.5.05-.77.11a1.59,1.59,0,0,0,.33,1.32c-.17.72.16,2.05-1.27,1.39-.67-.34-1.17-1.22-1.88-.28a2,2,0,0,0-.06,2.43A14.78,14.78,0,0,1,133,51.66l-.06.06a.67.67,0,0,0,.06.72c1.6.5,1.32,1.6.88,2.82-1.22.38-.33,2.6-1.88,2.54-1.38-.06-2.05.77-2.71,1.77-.28,0-.61,0-.89.11-.16.28-.33.61-.49.88h-.89c-.44.17-.72.45-.5.94,1.77.67.78,1.83.45,2.82-.34.17-.61.39-.94.55h-2.44a10.79,10.79,0,0,1-1.21-.55c-.11-1.66-.94-2.43-2.77-2.76v-.11h.06a6.05,6.05,0,0,0,1.21-.83c0-.06.06-.06.06-.11s.16.16.27.22c1.5-.17,3.71.94,3.77-2a2.22,2.22,0,0,0-.61-.77h.77c2.55,0,3-.77,2-3.21A15.46,15.46,0,0,0,125,50.45a1.22,1.22,0,0,0,.6,0,1.28,1.28,0,0,0,.5-.44c.61-3.32,1.72-6.3,4.81-8.13a1.41,1.41,0,0,0-.22-1.71l0,0c-.45-.16-.89-.38-1.28-.55-.44-.33-1.16-.61-1.43-.22a4.77,4.77,0,0,1-3.32,1.82c-.17.06-.22.56-.39.83-.33.83-.61,1.61-.94,2.43-.88-.27-.83-1.27-1.33-1.82-1-.44-1.49,1-2.43.83-.17-.33-.33-.61-.5-.94a1.79,1.79,0,0,0-1.77-2.27c-.22-.16-.38-.38-.61-.55a1.67,1.67,0,0,0-.44-1.49c0-1.55.5-3.1-.39-4.59-1-.83-2.71-.39-3.26-2v-.05c-1.77-1.39-5-1.5-5.53-.06-1.11,2.93-3.7,4.42-5.53,6.69a3.78,3.78,0,0,0-.61,1c-.39,1.28-.5,2.88.28,3.76s2.32.44,3.43.06,1.21-1.83,2.38-2.05c.6.11,1.21.11,1,1.05-.89.5-.94,1.33-.89,2.27a2.58,2.58,0,0,0,.39.16c-.17.45-.28.89-.44,1.33l-.39.39-.17-.17c-1.66.67-1.71,1.05-.44,2.66l.5.49c.44.17,1,0,1.16.78-.66.33-1.49,0-2,.72-1.43.55-.83,1.76-.94,2.81a1.67,1.67,0,0,0,.5,0,3.29,3.29,0,0,0,1.66,1.44c1,.27,1.16,1,1,1.93a1.91,1.91,0,0,0,0,2.32,1.75,1.75,0,0,0,1.16.22,5.75,5.75,0,0,0,3.6.33c.11,0,.27,0,.38-.11a1.79,1.79,0,0,1,1.28,1.66c-.11.06-.17.06-.28.11A2,2,0,0,0,113,62.61c-.06,0-.06.11-.11.16a6.66,6.66,0,0,1-.67-.49,2.18,2.18,0,0,0-.77-1.22c-.83-.55-1.71-.33-2.65-.33-1.11.05-2.38.11-2.6-1.55,1.1-1.55.38-2.49-1.11-3.09-.72-.28-1.44-.5-2.21-.72-1-1.16-2.55-1.83-3.21-3.32-.28-1.16-1.16-2-2.16-1.49-2,1.16-1.77-.44-1.93-1.49a2.89,2.89,0,0,0-1.88,1.49c-.39-.28-.78-.5-1.11-.77.11-.83.33-1.66.39-2.49.11-1.49-.67-.66-1.22-.44-.77.16-1.55.55-2.32,0a1.21,1.21,0,0,0-.11-.39c-1.83-1.32-3.49.28-5.26.39-.61.06-1.43,1.05-1.71-.39l.16-.11c-1.27-1.27-2.48,0-3.76.06a2.06,2.06,0,0,1-1.38.44,3.43,3.43,0,0,1-1-2.38c-.12-.33-.23-.6-.34-.93a7.43,7.43,0,0,1-2.76-1.5l-.5.17c-1.55-2.54-4.53-2.76-6.69-4.37-1-.66-1.11-2.32-2.66-2.32-.49-.17-1.32-.11-1.38-.66-.16-2.6-2.71-3.48-3.65-5.53-.5-.61-1-.39-1.66-.17-2.43.94-5,.5-7.58,1.61-1.76.77-3.65,1.32-5.14,2.71-1.71,1.27-3.37,2.43-5.7,1.6-1.27-.44-2.93,1.49-2.48,2.93.71,2.1.44,4.2.55,6.3.33,1.16.16,2.49,1.22,3.37-2,1.44-4.21,1.38-4.1-.11.22-3-1.55-1.71-2.71-1.44-1.55.39-3,1.05-4.48,1.55-.22.06-.49.11-.77.17a1.9,1.9,0,0,0,.33.94v.27a2.65,2.65,0,0,1-.5,2.21c-.66,1.27-.61,2.44.89,3.1.88.27,1.82,0,2.71.39a3.41,3.41,0,0,0,.66.22,1.51,1.51,0,0,0,.44.05l.45.28c.16-.11.27-.22.44-.33s.5-.06.72-.11a1.06,1.06,0,0,0,.55-.72c.39-.06.89-.17,1,.22.44.88-2.1,4.92-3.1,4.81-1.16-.11-2.21.49-3.37.44-.77.11-1.49-.77-2.32-.11-.28,0-.55.16-.83.22-.17.55-.28,1.11-.44,1.66-2.22,1.43-5,2.43-4,6.13.11.33-.22.72-.33,1.11-1.21,3,1.05,3.54,2.93,4.31-.22.44-.38.94-.55,1.38-.83.55-.28,1.71-1,2.32.34.83,1.17.5,1.66.78,1.28.77,3.93.11,3.43,3a8.79,8.79,0,0,1-3.54,3.43l-.66.83a3.58,3.58,0,0,0-1.83.94,2.46,2.46,0,0,0-2,2c-.83-.28-1.82-.83-2.54-.06a11.15,11.15,0,0,1-5.42,2.49c-.33.39-.61.83,0,1.1s1.33-.05,1.77-.6c1-.89,2.6-.45,3.59-1.44.5-.17,1-.28,1.5-.44a2.21,2.21,0,0,0,1.71-.56c.94-.16,1.88-.38,2.82-.55.83-1.55,2.71-1.6,3.82-2.71,1.05,0,1.38-1.21,2.21-1.54.44.16.89.27,1.38.44a1.28,1.28,0,0,0,0,1.88c.56.55,1.17.16,1.72-.11,1-.5,2-1.16,3-1.72-.38-1.38-1.43-1-2.37-.94a1,1,0,0,1-.5-.27.17.17,0,0,0,.11-.06c.83-.55,1.94-.94,1.6-2.26l.11-.12c1.66,0,1.94-.44,1.66-2.92.06,0,.11-.06.17-.06A2.45,2.45,0,0,0,36.29,77a.83.83,0,0,0,.34-.5h0a2.24,2.24,0,0,0-.11.55A1.79,1.79,0,0,0,37,78.14a1.76,1.76,0,0,0-1.27.88,2.07,2.07,0,0,0,2.43-.16,3.73,3.73,0,0,0,1.27.33,3.59,3.59,0,0,0,1.83-.55c.83-.72,2-.78,2.71-1.72.49.39,1.43.17,1.77.89,1.54,1.49,3,3,5.31,3.26.44.05.77.5,1.05.83a3.89,3.89,0,0,0,.38.5c.94.77,1.88,1.6,1.88,3C55.15,86.93,55,89,57,89.75c.06,0,.11-.06.17-.06.11.22.22.5.33.72A13.39,13.39,0,0,0,57.59,92a2.79,2.79,0,0,0,0,2.21,5.26,5.26,0,0,1,.83,3.43c.06.11.17.11.28.11a.56.56,0,0,0,.22.38c.5.17.33,1.44,1.16,1l.17.16a1.14,1.14,0,0,0,.44.11c-.11.94.44,1.28,1.38,1.44-.11.06-.22.06-.27.17-.83.94-1.11,1.88-.06,2.76-.22,2.32.94,4.48.77,6.74a.85.85,0,0,0,.45.72H63a1.12,1.12,0,0,0-.61.89H62c-1.28.88-.94,2-.39,3.09.44.89,1,1.72,1.44,2.66a5.39,5.39,0,0,0,.33.6c1.88,1.83.77,4.09.83,6.14,0,.61-.33,1.27-.06,1.88a2.34,2.34,0,0,0-.22.55c-1.1,3.76-2.71,7.3-3.37,11.22-1.33,2.54-.5,5,.16,7.46a3,3,0,0,1,.94,1.16c.11.61.28,1.22.39,1.83s0,1.43.11,2.1l.17.49a.42.42,0,0,1-.06.23c.5,2.1,1,4.09,3.32,5a3.15,3.15,0,0,1,2.38,2.82,7.12,7.12,0,0,1,.77,1.44c.67,1.87.94,3.92,2.1,5.63.83,1.22,2.38,2.32.61,4a.53.53,0,0,0,.17.83c2.49,1.05,3.26,3.2,3.82,5.63,0,.23.44.39.71.61.39.45.78.94,1.22,1.38s.55,1.44,1.27.89.11-1.27-.33-1.6c-1-.72-1.1-1.83-1.55-2.77-.38-3.09-2-5.58-3.48-8.18a8.13,8.13,0,0,1-1.16-3.76,3.24,3.24,0,0,0,.49-.44,1.48,1.48,0,0,1,1.5-.16,2.39,2.39,0,0,1,.66,1.1,7.55,7.55,0,0,0,.17,1.16c0,.28,0,.5,0,.78a.7.7,0,0,1,.17.22,1.75,1.75,0,0,1-.06.55c0,1.55.89,2.54,1.77,3.7,1,1.33,3,2,2.49,4.31-.11.39.39.67.72.89,1.49.94,2.32,2.43,3.37,3.76,1.28,1.65,2,3.42,1.39,5.63a2.74,2.74,0,0,0,1.27,3,38.49,38.49,0,0,0,7,4,3.6,3.6,0,0,1,2.27,1c1.77.28,3.31,1.38,5.14,1.33,1.6-.06,3.26-.56,4.59,1.16a10.49,10.49,0,0,0,6.08,3.48c1.94.5,3.88,1.05,5,3a.5.5,0,0,0,.55,0c.28.27.61.5.89.77.11.78-.22,1.72.94,1.94.44.22.88.38,1.33.6,1.16.78,1.55,3,3.65,2.27.27.06.55.17.83.22.22.44.44.83.66,1.27.66-.38,2.1,1.27,2.1-.83a4.61,4.61,0,0,0,.55-.6,2.68,2.68,0,0,1,2.33.44,7.85,7.85,0,0,1,1.66,6.69c.83,1.38-.11,2.15-1,2.81a3.51,3.51,0,0,0-1.6,2.33,6.07,6.07,0,0,0-2.77,7.24v1.77c-1.38,1.49-1.66,4.14-.22,5.08,1.6,1,2.27,2.65,3.49,3.92a14.92,14.92,0,0,0,1.16,2.82c2.49,3.54,3.26,8.46,7.74,10.45a22.84,22.84,0,0,1,5.48,3.81,6.59,6.59,0,0,1,1,3.76c.11,4,.22,7.91.38,11.89v.88a26,26,0,0,0-.55,9.67c.22,2.21.83,4.48-.39,6.58a23.35,23.35,0,0,1-1.05,5.14c-.5.39-.33.88-.33,1.38h.39c1.21,2.43.22,5,.5,7.57a4.1,4.1,0,0,1,.44.17c-.28.72-.56,1.44-.83,2.15.61.5,0,1.83,1.27,1.88.22-1.1-.22-2.37.44-3.42h.06a.7.7,0,0,0,.5-.17c-.67,1.44,0,3.1-.28,4.59.05.66-.17,1.33-.11,1.93-.5.61,1.16.17.39.89-.34.44-.61,1-1.22,1.16a2.15,2.15,0,0,0-1.05.72,3.77,3.77,0,0,0-.33,1.32,1.71,1.71,0,0,0,.16.72c.33.94,1.83.55,1.94,1.77.16.28.33.61.5.89-.06.16-.12.33-.17.49a1.8,1.8,0,0,1,.11.5v1.44c0,.49-.06,1-.06,1.43.45.17,1,.28,1.39.45a4,4,0,0,0,.38,2.26c.17.22.28.39.45.61.16.61.33,1.27.55,1.88.39,1.27,1.11.83,1.77.28l.66.66a1.54,1.54,0,0,0-.22.39c-1.6,1.27-1.27,2.15,1.44,3.37a9.17,9.17,0,0,0,.55.94,11.74,11.74,0,0,1,1.33.05c.17-.33.28-.61.44-.94h.06c.39.67.66,1.38,1.49,1.44a1.06,1.06,0,0,0,0,.72c-.83-.55-1.44-.17-1.94.72.89,1.66,2.93,1.16,4.15,2.26.28.22,1.16.11.77-.83,1,.23,1.72-.66,2.6-.66.61,0,1.11-.28,1.16-.88s-.6-.67-1-.83a9.5,9.5,0,0,1-3.1-1.94,4.63,4.63,0,0,0-.94-1.88c-.33-.33-.61-.66-.94-1a.76.76,0,0,0,0-.33,1,1,0,0,1,.44-.11v-.45c-.11-.55-.5-.77-1-1h-.11c-1.33-3.1.89-5.36,2.16-7.79.88-1.66,1.55-2.77-.72-3.82s-2.16-2.54-.28-4c.72-.61,1.44-1.27,1.33-2.32-.17-1.5.55-2.71.94-4,.28.22.55.61.94.39a.52.52,0,0,0,.17-.78c-.39-.55-.94-.27-1.44-.16-.33-.11-.66-.28-.94-.39.55-.77-1.38-3,1.16-2.49,2.32.56,3-.22,2.88-2.43-.11-1.71.27-2.48,2.26-2.32,2.77.22,4.93-1.21,5.53-3.31.61-1.94-.83-3.32-1.38-5,1.66-.66,3.49.72,5.09-.5.22-.27.44-.6.66-.88.56-.72,1.17-1.38,1.72-2.1a.47.47,0,0,0,.22-.22,1.76,1.76,0,0,0,.22-1.49l.11-.17c.28-.39.61-.77.89-1.22h.44c.44-.44.94-.83.94-1.54a3.06,3.06,0,0,0,1.38-2.33c.72-1.27,1.49-2.59,2.21-3.86.78-1.66,0-3.76,1.55-5.14l1.27-1.28h.06a3.54,3.54,0,0,0,.44-.16c.61.05,1.22-.17,1.83-.11a3.63,3.63,0,0,0,1.66-.83c.49-.33.88-.89,1.49-1a3,3,0,0,1,.66-.11c1.11-.11,2.22-.27,2.33-1.6a1.37,1.37,0,0,0,.33-.28,1.19,1.19,0,0,0,1.44-.83c.44-1.65,1.6-3,2.15-4.58a20.83,20.83,0,0,0,1.11-7.57c-.5-1.83-.39-3.43,1.33-4.54a3.77,3.77,0,0,0,.94-1.32c.44-.61.72-1.33,1.1-1.88a3.44,3.44,0,0,0,1.22-1.94,1.22,1.22,0,0,0-.39-.94c2-.88,1.5-2.76,1.44-4.36A3.21,3.21,0,0,0,202.21,230.63ZM91.93,63.05a.47.47,0,0,0,.39-.11h.28c.38.39,1.32-.11,1.38.88a2.17,2.17,0,0,0,1.1,1.66,5.58,5.58,0,0,0,1.33.17v.11a2.14,2.14,0,0,1-1.33.11,2,2,0,0,0-1.71.44,2.84,2.84,0,0,0-.39.5c-.66,0-1.32,0-2,0-.44,0-.94.61-1.38.5l.11-.11a3.24,3.24,0,0,0,.94-1.33,1.51,1.51,0,0,1,.11-.38,1.11,1.11,0,0,0,.72-1,.56.56,0,0,0-.55-.6l-.34-.5s0-.06-.11-.06.06-.16.06-.22A2.27,2.27,0,0,0,91.93,63.05Zm35.4,63.45c-.78,1.61-1.88,2.05-3.49.83a3,3,0,0,0-2-.39c1.21-1,2.93-1,4.26-2C125.89,125.89,126.17,126.5,127.33,126.5Zm-25.72-24.15h-.16v-.17ZM98.79,82.17a2.26,2.26,0,0,0-.55.39c-.11.11-.22.28-.33.39a5.43,5.43,0,0,0-1,.22,3.78,3.78,0,0,0-.88-.22c-.88.27-1.77.39-2.65.72a6.91,6.91,0,0,1,3.7-1.83,4.74,4.74,0,0,0,1.27-.11A.78.78,0,0,1,98.79,82.17Zm25,51.9a1.56,1.56,0,0,0-.11.5c-.22.17-.28.55-.39.94a.08.08,0,0,0-.11,0,5.27,5.27,0,0,1,.94-1.93Zm-7.36-27.47ZM131,134.9c-.44-1.49-.05-1.76,1.77-1.93a.38.38,0,0,1,.11.22C131.59,133.47,131,133.91,131,134.9ZM90.11,178.4c0,.11.11.22,0,.33C90.16,178.62,90.11,178.51,90.11,178.4ZM158.24,62.11c-.05.11-.11.17-.16.28A1.39,1.39,0,0,1,158.24,62.11Zm13.61,2c0-.06.06-.11.11-.17S171.91,64.1,171.85,64.16ZM133.14,64a.56.56,0,0,1-.28.22,4.76,4.76,0,0,0-.55.55c-.17-.11-.28-.38-.23-.88.06-.06.17-.11.23-.17A2.21,2.21,0,0,0,133.14,64Zm-21-23.66a0,0,0,0,1,0,0h.12C112.23,40.28,112.17,40.33,112.12,40.33ZM57.7,92a.47.47,0,0,1,.16.33ZM169.08,263.85c.06,0,.06,0,.12.06s-.12,0-.12-.06S169.08,263.91,169.08,263.85Zm.12.06c-.06,0-.06.11-.12.11S169.14,264,169.2,263.91ZM146,243.51c.06.06.06.11.11.17s0,0-.11,0S146.08,243.62,146,243.51Z"/><path class="cls-3" d="M430.63,225.05c.05.55.5.66.94.78a.78.78,0,0,1,.05-.34c-.22-.27-.49-.49-.71-.77C430.74,224.89,430.57,224.94,430.63,225.05Z"/><path class="cls-3" d="M466.25,174.59c-.67-.28-.94.22-1.28.72-1.43,2-1.21,3.76.83,6.08.34-1.88.67-3.71.94-5.59C466.8,175.36,466.8,174.81,466.25,174.59Z"/><path class="cls-3" d="M236.78,91c1.82-.11,3.1-1.38,4.42-2.37a2.08,2.08,0,0,0,.72-2.93c-.66-1.22-1.32-2.71-3-2.44-1.33.23-2.65.67-4,1-1.27.17-2.6,1.11-3.65-.61-.39-.61-1.27-.27-1.88.17a5,5,0,0,0-.5.66c.89,1,.72,2.1.89,3.32.16,1.49.33,3.59,2.87,3.15A3.18,3.18,0,0,0,236.78,91Z"/><path class="cls-3" d="M57.7,102.13c-.89,1.1-.5,2.26-.06,3.7.94-1.27,1.55-2.27,1-3.59C58.58,101.91,58,101.85,57.7,102.13Z"/><path class="cls-3" d="M140.93,106.6l.5.5c.67-.22,1.44-.22,1.61-1.1a.59.59,0,0,0-.5-.67C141.54,105.11,141.16,105.72,140.93,106.6Z"/><path class="cls-3" d="M140.44,189.57a.29.29,0,0,0,.22.11,2.59,2.59,0,0,0,2.54.11,7.72,7.72,0,0,1,4.2-.66c.12-.17.28-.39.39-.56-.77-.5-1.49-.94-2.27-1.43-1.27-1.11-2.82-.78-4.25-.78-.45-.16-.89-.33-1.22.06s.11.55.33.72a1.09,1.09,0,0,0,.11.38c-.05.44-.05.94-.11,1.38a8.18,8.18,0,0,0-3-.33.4.4,0,0,1-.06.28C138.22,189.84,139.39,189.4,140.44,189.57Z"/><path class="cls-3" d="M145.86,89.14a.63.63,0,0,0,.38.44c.94-.11,1-.88,1.16-1.66V87.7C146.52,87.7,145.8,88,145.86,89.14Z"/><path class="cls-3" d="M150.39,85.05a.35.35,0,0,0-.28.28c-.05.77.56.77,1,.88C151,85.71,151.17,85.05,150.39,85.05Z"/><path class="cls-3" d="M166.87,92.4a7.14,7.14,0,0,1,.44,1c.95-.49,1.11-.93,0-1.43Z"/><path class="cls-3" d="M151.94,84.83c0,.11.22.44.39.44.55,0,.61-.55.72-.94C152.55,84.39,152.05,84.27,151.94,84.83Z"/><path class="cls-3" d="M156.75,65.26c-.77-.22-1.27.39-1.88.61a1.32,1.32,0,0,0,.89,1C156.2,66.37,157,66.15,156.75,65.26Z"/><path class="cls-3" d="M398.88,205.71c-1.27.38-.88,1.6-1.1,2.65.38,1.16-.17,3,1.71,3.26,1.16.17,1.72-.83,1.83-2S399.6,205.54,398.88,205.71Z"/><path class="cls-3" d="M135.79,186.42c.55-.17,1.38-.06,1.55-.78s-.72-.88-1.11-1.32a9.32,9.32,0,0,1-.83-.56c-.77-.16-1.55-.33-2.32-.44-.66-.33-1.27-1.1-1.94,0-.11.33-.22.61-.33.94C132.47,185,133.63,187,135.79,186.42Z"/><path class="cls-3" d="M144.14,85.82c-1.44-.11-2.82-.11-3.15,1.83C142.43,87.76,143.81,87.65,144.14,85.82Z"/><path class="cls-3" d="M123.79,180.45a3.08,3.08,0,0,0-2.27.77c-.55.55-.33.94.39,1.11.61-.45,1.27-.83,1.88-1.27,2.21.66,4.26,2.1,7.13,1.32-.72-.61-1.16-1-1.6-1.38C127.49,180.61,125.72,179.62,123.79,180.45Z"/><path class="cls-3" d="M131.64,189.62a.66.66,0,0,0,.72.67c.39,0,.78-.11.83-.56s-.33-.6-.72-.66S131.64,189.13,131.64,189.62Z"/><path class="cls-3" d="M338.05,250.48c-1.61.33-2.33,1.65-2.16,3.37-.39.61-.17.94.44,1.05a6.41,6.41,0,0,1-1.1,4.48c-1.44,1.82-1,3.92-.61,5.85a2.45,2.45,0,0,0,3.2,1.94,23.86,23.86,0,0,0,2.6-.94l4-11.28h1.1c.06-.16.06-.33.11-.49-.16-.28-.33-.61-.5-.89a24.21,24.21,0,0,1,.89-3.37,5.47,5.47,0,0,0-.83-6.08C343.24,246.77,341.64,249.76,338.05,250.48Z"/><path class="cls-3" d="M274.72,148.22c.06.67,0,1.55.94,1.55.77,0,.83-.77.89-1.44a4.46,4.46,0,0,0-.56-2.92,3.64,3.64,0,0,0,.28-.61c.22-.83.5-1.66-.22-2.38a.67.67,0,0,0-1,.17,1.8,1.8,0,0,0,.22,2.48c.11.11.22.17.33.28A4.26,4.26,0,0,0,274.72,148.22Z"/><path class="cls-3" d="M158.41,203.72c.39.16.72.33,1.11.49v-1.43a1,1,0,0,1-.45-.06C158.24,202.72,158.24,203.16,158.41,203.72Z"/><path class="cls-3" d="M149.73,189.57c-.11.55.44.72.88.77.61.06,1.22.06,1.55-.61.06-.72-.5-.72-.88-.77C150.67,189,149.89,188.79,149.73,189.57Z"/><g class="cls-4"><path class="cls-5" d="M348,151.15c-13.85-8.36-22.42-3.85-26.17,0s-6,6.24-3.4,16.84c2.83,11.91,18,40.44,18,40.44s9.28-16.7,14.09-28.64S361.81,159.52,348,151.15Zm-7.68,21.22c-4.64,2.48-7,1-10.91-3.89s-.18-10.22,4.85-11c6.27-.94,7.16,1,7.16,1s4.49,1.05,4.46,4.8C345.84,167.78,345,169.88,340.28,172.37Z"/></g></g></svg>