<svg id="Layer_1" data-name="Layer 1" xmlns="http://www.w3.org/2000/svg" width="393" height="116" viewBox="0 0 393 116"><defs><style>.cls-1{fill:#fff;}</style></defs><path class="cls-1" d="M124.61,5.68c.88,0,1.76-.11,2.64-.11l1.34.08a7.51,7.51,0,0,1,1.33.14,22.29,22.29,0,0,1,2.64.5c.43.11.88.22,1.31.36l1.26.47a4.68,4.68,0,0,1,.64.25l.63.29,1.23.57,1.2.68.6.36a3.17,3.17,0,0,1,.56.4l1.13.75c.35.25.7.57,1.09.82.74.54,1.37,1.19,2.07,1.76a75.43,75.43,0,0,1,7.18,8c2.18,2.73,4.29,5.45,6.51,8a37.24,37.24,0,0,0,7.22,6.5,21,21,0,0,0,8.51,3.26A22.44,22.44,0,0,0,176,39l1.16,0c.39,0,.78,0,1.16,0l1.16,0c.39,0,.78-.1,1.13-.14l.56-.07a3.82,3.82,0,0,0,.57-.11l1.12-.25a22.3,22.3,0,0,0,8.27-4c.32-.21.64-.5.95-.75s.64-.5.92-.76a23.45,23.45,0,0,0,1.79-1.68c1.2-1.15,2.32-2.41,3.45-3.66,2.25-2.59,4.4-5.35,6.65-8a63.85,63.85,0,0,1,7.43-7.75,23,23,0,0,1,2.14-1.65c.39-.26.74-.54,1.13-.79l1.16-.72a8.2,8.2,0,0,1,1.2-.65c.42-.21.81-.43,1.19-.61l1.27-.5.63-.25.64-.22L223,6c.42-.11.88-.22,1.3-.29l.67-.14a3.35,3.35,0,0,1,.67-.11L227,5.25a30.83,30.83,0,0,1,5.35-.11,25.29,25.29,0,0,1,10.31,3c.21.11.42.22.6.33l.56.35c.39.26.77.47,1.16.72l1.09.79.56.4.53.43,1.06.86,1,.9a12.38,12.38,0,0,1,1,.93l1,1c2.46,2.62,4.68,5.38,6.86,8.11a101,101,0,0,0,6.69,7.79c.59.57,1.16,1.18,1.79,1.72l.92.82.95.76.42.36.49.35,1,.69,1,.61.49.28a3.17,3.17,0,0,0,.53.25,21.07,21.07,0,0,0,8.83,2.37l1.16,0h.6c.21,0,.39,0,.6,0l1.16-.07a3.44,3.44,0,0,0,.56,0l.57-.08,1.12-.18.57-.1.56-.15c.35-.1.74-.18,1.09-.28l1.06-.36a23,23,0,0,0,7.67-4.92,55.06,55.06,0,0,0,6.4-7.5c2-2.76,4.05-5.63,6.27-8.5.56-.72,1.12-1.44,1.72-2.12l.91-1c.32-.36.64-.68,1-1,.63-.69,1.33-1.33,2-2,.35-.33.7-.65,1.09-1a14.43,14.43,0,0,1,1.13-.94l1.16-.86.28-.21.32-.22.63-.39.63-.4c.22-.14.43-.25.64-.36l1.3-.68a9,9,0,0,1,1.34-.61c.45-.18.91-.39,1.37-.57l1.41-.43.7-.22.71-.14,1.44-.32a3.67,3.67,0,0,1,.74-.11l.74-.07c.49-.08.95-.11,1.44-.18l1.44,0,.71,0h.7l1.44.07a24.79,24.79,0,0,1,2.89.36l.7.1.71.18,1.4.36,1.38.47c.45.18.91.32,1.37.54a21.68,21.68,0,0,1,2.6,1.29c.42.25.85.46,1.27.75l1.2.83a13.91,13.91,0,0,1,1.16.86l1.09.9c.7.64,1.41,1.25,2,1.93l1,1,.92,1,.46.54.42.54.84,1.07c2.22,2.87,4.16,5.85,6.13,8.72,1,1.44,2,2.87,2.95,4.24a48.5,48.5,0,0,0,3.17,4c.56.61,1.13,1.26,1.72,1.8.32.28.6.57.92.86l.95.82c.18.15.32.29.46.4l.49.36,1,.75,1.05.65.53.32c.17.11.35.18.56.29a24.8,24.8,0,0,0,9.64,2.76v.64a23.8,23.8,0,0,1-10.48-1.47,4.68,4.68,0,0,1-.64-.25l-.59-.28-1.24-.58L374.26,39l-.6-.36a3.28,3.28,0,0,1-.56-.39L372,37.44c-.35-.25-.7-.57-1.09-.82-.74-.54-1.37-1.19-2.08-1.76a73.92,73.92,0,0,1-7.21-8c-2.22-2.73-4.37-5.45-6.58-8a34.57,34.57,0,0,0-7.25-6.38,20.55,20.55,0,0,0-8.48-3.13A17.8,17.8,0,0,0,337,9.23l-1.16,0c-.39,0-.78,0-1.16,0l-1.16.08a8.85,8.85,0,0,0-1.13.18l-.56.07a2.3,2.3,0,0,0-.57.11l-1.09.28a21.21,21.21,0,0,0-7.92,4.13,44.94,44.94,0,0,0-6.65,7c-2.11,2.62-4.11,5.45-6.3,8.29a59.12,59.12,0,0,1-7.42,8.18,26,26,0,0,1-2.25,1.79l-1.16.87-1.24.78a7.88,7.88,0,0,1-1.26.72c-.43.22-.88.47-1.31.68l-1.37.58-.67.29-.7.21-1.41.43a14.3,14.3,0,0,1-1.41.32l-.7.15a6,6,0,0,1-.7.11l-1.45.18-.7.07c-.25,0-.49,0-.7,0l-1.45,0a5.44,5.44,0,0,1-.7,0l-.7,0-1.41-.07-.35,0-.36,0-.7-.11-1.41-.21-1.4-.36a9.12,9.12,0,0,1-1.38-.4,24.78,24.78,0,0,1-2.71-1c-.42-.21-.88-.39-1.3-.64l-1.23-.72a33.74,33.74,0,0,1-8.34-7.43c-2.32-2.8-4.29-5.78-6.27-8.68a93.39,93.39,0,0,0-6.08-8.37,29.06,29.06,0,0,0-7.5-6.64l-1.09-.61c-.35-.18-.74-.35-1.13-.53A18.43,18.43,0,0,0,237,8c-.39-.14-.81-.21-1.2-.32l-1.19-.29-1.23-.17-.64-.08-.31,0h-.32a24,24,0,0,0-9.82,1.25A23.59,23.59,0,0,0,214,13.76a55.76,55.76,0,0,0-6.4,7.93c-1.94,2.87-3.84,5.81-5.92,8.72a44.68,44.68,0,0,1-7.35,8.22l-1.13.89-.28.22-.28.21-.6.4-.6.39-.59.4-1.27.72c-.42.25-.88.43-1.3.64s-.88.4-1.34.58l-1.37.46-.71.22-.7.18-1.41.32a2.43,2.43,0,0,1-.7.11l-.71.11c-.49.07-1,.14-1.44.18l-1.41.07-.7,0a4.08,4.08,0,0,1-.7,0l-1.41-.07a19.73,19.73,0,0,1-2.85-.32l-.71-.11-.7-.18L170,43.76c-.46-.15-.91-.29-1.37-.47s-.91-.29-1.37-.5a21.65,21.65,0,0,1-2.61-1.26c-.42-.25-.84-.46-1.26-.71l-1.2-.79c-.42-.26-.77-.58-1.16-.87s-.74-.57-1.13-.89c-.7-.65-1.41-1.26-2-1.94l-1-1-.92-1-.46-.5-.42-.54-.88-1c-4.5-5.7-7.88-11.77-12.35-16.83-.56-.61-1.13-1.25-1.72-1.79-.32-.29-.6-.58-.92-.86l-.95-.83a4,4,0,0,0-.46-.39l-.49-.36-1-.76-1.05-.64-.53-.33-.56-.28a25.1,25.1,0,0,0-9.61-2.84Z"/><path class="cls-1" d="M-.35,73.66c1,0,2.07-.11,3.09-.11l1.55.07a11,11,0,0,1,1.55.15,30.28,30.28,0,0,1,3.1.5c.52.11,1,.21,1.55.36l1.51.46c.24.08.49.15.74.25l.74.29,1.44.58,1.41.68.7.36a3.67,3.67,0,0,1,.67.39L19,78.4c.42.25.84.57,1.26.82.88.54,1.62,1.18,2.43,1.76a83.58,83.58,0,0,1,8.45,8c2.57,2.76,5.07,5.49,7.67,8a42.81,42.81,0,0,0,8.45,6.5,27.29,27.29,0,0,0,10,3.27c.91.07,1.79.21,2.71.21l1.37,0c.46,0,.92,0,1.37,0l1.38,0c.45,0,.88-.11,1.33-.15l.67-.07a5.2,5.2,0,0,0,.67-.11l1.3-.25a28,28,0,0,0,9.72-3.95,11.69,11.69,0,0,0,1.09-.75L80,100.9c.7-.54,1.44-1.08,2.11-1.69,1.41-1.15,2.71-2.4,4.05-3.66,2.64-2.58,5.13-5.35,7.81-8a73.25,73.25,0,0,1,8.73-7.75,27.49,27.49,0,0,1,2.53-1.65c.42-.25.84-.54,1.3-.79l1.37-.72A10.57,10.57,0,0,1,109.3,76c.49-.21,1-.43,1.44-.61l1.48-.5.74-.25.78-.21,1.51-.4c.49-.11,1-.21,1.55-.29l.77-.14a5.23,5.23,0,0,1,.78-.11l1.58-.18a41.36,41.36,0,0,1,6.3-.1,33.27,33.27,0,0,1,12.1,3c.25.11.5.22.71.33l.67.36c.45.25.91.46,1.33.71l1.31.79.63.4.6.43,1.23.86,1.16.9c.39.28.78.61,1.16.93l1.13,1c2.88,2.62,5.52,5.38,8.09,8.11s5.14,5.42,7.85,7.79c.7.57,1.37,1.18,2.11,1.72l1.09.83,1.13.75.56.39.56.36,1.17.68,1.19.62.6.28a5.54,5.54,0,0,0,.6.25A28.22,28.22,0,0,0,183.59,107l1.37,0h.67c.21,0,.46,0,.67,0l1.37-.07a3.77,3.77,0,0,0,.67,0l.67-.07,1.34-.18.67-.1.63-.15c.42-.11.88-.18,1.3-.29l1.27-.35a27.77,27.77,0,0,0,9-4.92,59.24,59.24,0,0,0,7.53-7.5c2.39-2.76,4.75-5.64,7.35-8.51.67-.71,1.31-1.43,2-2.11l1.06-1c.35-.36.74-.69,1.13-1,.74-.68,1.54-1.32,2.35-2,.39-.32.85-.64,1.27-1s.85-.65,1.3-.94l1.38-.86.35-.21.35-.22.74-.39.74-.4a7.21,7.21,0,0,1,.74-.36l1.54-.68a12.72,12.72,0,0,1,1.59-.61c.53-.18,1.05-.39,1.62-.57l1.65-.43.85-.22.84-.14,1.69-.33a6,6,0,0,1,.84-.1l.85-.08c.56-.07,1.12-.1,1.69-.18l1.69,0,.84,0h.85l1.69.07c1.12,0,2.25.22,3.37.36l.85.11.84.18,1.66.36c.56.14,1.09.32,1.62.47s1.09.32,1.61.53a25.72,25.72,0,0,1,3.07,1.3c.49.25,1,.46,1.47.75l1.41.83a11.83,11.83,0,0,1,1.34.86l1.3.89c.81.65,1.66,1.26,2.39,1.94l1.13,1,1.09,1,.53.54.49.53,1,1.08c2.64,2.87,4.89,5.85,7.18,8.72,1.16,1.44,2.29,2.87,3.49,4.24a53.74,53.74,0,0,0,3.73,4,21.77,21.77,0,0,0,2,1.79l1.05.87,1.09.82a3.88,3.88,0,0,0,.57.4l.59.35,1.17.76,1.23.64.63.33.63.28a33,33,0,0,0,11.34,2.77v.64a32.73,32.73,0,0,1-12.32-1.47,5.37,5.37,0,0,1-.74-.25l-.74-.29-1.44-.57-1.41-.68-.7-.36a3.71,3.71,0,0,1-.67-.4l-1.34-.75c-.42-.25-.84-.57-1.27-.82-.84-.54-1.61-1.19-2.42-1.76a75.71,75.71,0,0,1-8.45-8c-2.6-2.73-5.1-5.46-7.74-8A39.72,39.72,0,0,0,262,80.58a26.79,26.79,0,0,0-10-3.12,23.47,23.47,0,0,0-2.67-.18l-1.34,0c-.46,0-.91,0-1.34,0l-1.33.07c-.46,0-.88.11-1.31.18l-.66.08a3.41,3.41,0,0,0-.64.1l-1.27.29a26.53,26.53,0,0,0-9.29,4.13,50.13,50.13,0,0,0-7.81,7c-2.46,2.62-4.82,5.45-7.42,8.29a65.23,65.23,0,0,1-8.73,8.18,29.75,29.75,0,0,1-2.64,1.79l-1.37.86-1.45.79a8.76,8.76,0,0,1-1.51.72c-.53.22-1,.47-1.55.68l-1.58.58-.81.28-.81.22-1.65.43c-.57.14-1.13.22-1.66.32l-.84.15a8.2,8.2,0,0,1-.85.1l-1.69.18-.84.08c-.28,0-.56,0-.85,0l-1.68,0a8,8,0,0,1-.85,0l-.84,0-1.69-.07-.42,0-.43,0-.84-.11-1.66-.22L178,112a12.36,12.36,0,0,1-1.62-.4,32.6,32.6,0,0,1-3.17-1c-.49-.21-1-.39-1.51-.65l-1.48-.71a39.17,39.17,0,0,1-9.82-7.43,104.2,104.2,0,0,1-7.35-8.69,105,105,0,0,0-7.14-8.36,32.72,32.72,0,0,0-8.84-6.64l-1.26-.61-1.34-.54a25.83,25.83,0,0,0-2.71-.86c-.46-.14-.95-.21-1.41-.32L129,75.45l-1.44-.18-.74-.07-.35,0h-.35a32.59,32.59,0,0,0-11.54,1.25,28.9,28.9,0,0,0-9.75,5.38,55.94,55.94,0,0,0-7.53,7.94c-2.29,2.87-4.51,5.81-7,8.72a48,48,0,0,1-8.62,8.21l-1.31.9-.31.22-.35.21-.71.4-.7.39-.71.4-1.47.71a16.33,16.33,0,0,1-1.55.65c-.53.18-1,.4-1.59.57l-1.61.47-.81.22-.85.18-1.65.32a3.54,3.54,0,0,1-.85.11l-.84.1c-.56.08-1.13.15-1.69.18l-1.69.08-.84,0a6,6,0,0,1-.85,0l-1.69-.07a27.14,27.14,0,0,1-3.34-.32l-.85-.11-.84-.18-1.65-.32c-.57-.15-1.1-.29-1.62-.47s-1.09-.29-1.59-.5a31.68,31.68,0,0,1-3.06-1.26c-.49-.25-1-.46-1.48-.72l-1.4-.79a11,11,0,0,1-1.34-.86c-.42-.28-.88-.57-1.3-.89-.81-.65-1.66-1.26-2.43-1.94l-1.16-1-1.09-1-.53-.5-.49-.54-1-1c-5.28-5.71-9.26-11.77-14.5-16.83a24.64,24.64,0,0,0-2-1.79l-1.06-.87-1.09-.82a3.17,3.17,0,0,0-.56-.4l-.6-.36-1.16-.75-1.24-.64-.63-.33c-.21-.11-.42-.18-.63-.28A33.38,33.38,0,0,0-.39,74.34v-.68Z"/></svg>