<svg id="Layer_1" data-name="Layer 1" xmlns="http://www.w3.org/2000/svg" xmlns:xlink="http://www.w3.org/1999/xlink" width="378" height="115" viewBox="0 0 378 115"><defs><style>.cls-1{fill:none;}.cls-2{clip-path:url(#clip-path);}.cls-3{fill:#fff;}</style><clipPath id="clip-path"><rect class="cls-1" x="-0.4" y="-0.46" width="378" height="115"/></clipPath></defs><g class="cls-2"><path class="cls-3" d="M-.4,3c1.24,0,2.53-.13,3.77-.13L5.26,3a12.89,12.89,0,0,1,1.89.17,37.86,37.86,0,0,1,3.77.6c.65.13,1.25.26,1.89.43l1.85.56a6.33,6.33,0,0,1,.9.3l.9.34,1.76.69,1.72.82.85.43a5.46,5.46,0,0,1,.82.47l1.63.9c.52.3,1,.69,1.55,1,1.07.64,2,1.42,3,2.1A101.42,101.42,0,0,1,38,21.32c3.18,3.27,6.18,6.53,9.36,9.58a52.42,52.42,0,0,0,10.3,7.78,33.89,33.89,0,0,0,12.18,3.91c1.12.08,2.19.25,3.31.25l1.67,0c.56,0,1.12,0,1.68,0l1.67,0c.56,0,1.07-.13,1.63-.17l.81-.09a4.66,4.66,0,0,0,.82-.13l1.59-.3A34.61,34.61,0,0,0,94.9,37.39a15.49,15.49,0,0,0,1.33-.9c.43-.31.9-.61,1.33-.91.86-.64,1.76-1.29,2.58-2,1.71-1.37,3.3-2.87,4.93-4.38,3.22-3.09,6.27-6.4,9.53-9.62a88.57,88.57,0,0,1,10.64-9.28c1-.69,2-1.37,3.09-2,.51-.3,1-.64,1.59-.94l1.67-.86a12,12,0,0,1,1.72-.77c.6-.26,1.16-.52,1.76-.73l1.8-.6.9-.31.86-.25,1.84-.48c.6-.12,1.25-.25,1.89-.34l.94-.17a8,8,0,0,1,.95-.13l1.93-.21a50.42,50.42,0,0,1,7.68-.13,41.19,41.19,0,0,1,14.76,3.56c.3.13.6.26.86.39l.82.43c.55.3,1.11.56,1.63.86l1.58.94.78.47.73.52,1.5,1,1.41,1.08c.48.34.95.73,1.42,1.11l1.37,1.16c3.52,3.14,6.74,6.45,9.87,9.71s6.27,6.49,9.57,9.32c.86.69,1.67,1.42,2.58,2.06l1.33,1,1.37.9.69.48.68.43,1.42.81,1.46.73.73.35c.25.13.51.21.73.3a35,35,0,0,0,12.66,2.83l1.67,0h.81c.26,0,.56,0,.82,0l1.67-.08a4.52,4.52,0,0,0,.82,0l.81-.08,1.63-.22.82-.13.77-.17c.52-.13,1.07-.21,1.59-.34l1.54-.43a33.74,33.74,0,0,0,11-5.89,72.47,72.47,0,0,0,9.18-9c2.92-3.31,5.8-6.75,9-10.19.82-.85,1.59-1.71,2.49-2.53l1.29-1.25c.43-.43.9-.81,1.37-1.24.9-.82,1.89-1.59,2.87-2.41.48-.38,1-.77,1.55-1.16s1-.77,1.59-1.11l1.67-1,.43-.26.43-.26.9-.47.9-.48a9.19,9.19,0,0,1,.9-.43l1.89-.81a14.45,14.45,0,0,1,1.93-.73c.65-.22,1.29-.47,2-.69l2-.51,1-.26,1-.17L294.22.1a7.25,7.25,0,0,1,1-.13l1-.09c.69-.08,1.37-.12,2.06-.21l2.06,0,1,0h1l2.06.09c1.37,0,2.75.26,4.12.43l1,.13,1,.21,2,.43c.68.17,1.33.39,2,.56s1.33.39,2,.65a32.16,32.16,0,0,1,3.74,1.54c.6.3,1.24.56,1.8.9l1.72,1a16.2,16.2,0,0,1,1.63,1l1.58,1.08c1,.77,2,1.5,2.92,2.32l1.38,1.2,1.33,1.25.64.64.6.64L335.24,15c3.22,3.44,6,7,8.76,10.44,1.41,1.72,2.79,3.44,4.25,5.07s3,3.22,4.54,4.77a32,32,0,0,0,2.49,2.15l1.29,1,1.33,1a4.19,4.19,0,0,0,.69.47l.73.43,1.41.9,1.5.77.78.39c.25.13.51.22.77.34A40.66,40.66,0,0,0,377.6,46v.78a40.65,40.65,0,0,1-15-1.77,6.33,6.33,0,0,1-.9-.3l-.9-.34L359,43.7l-1.72-.81-.86-.43a4.33,4.33,0,0,1-.81-.48l-1.63-.9c-.52-.3-1-.69-1.55-1-1-.64-2-1.41-3-2.1a91.58,91.58,0,0,1-10.3-9.54c-3.17-3.26-6.22-6.53-9.44-9.53a47.85,47.85,0,0,0-10.38-7.65,33,33,0,0,0-12.15-3.74A26.78,26.78,0,0,0,304,7.32l-1.63-.05c-.56,0-1.11.05-1.63.05l-1.63.08c-.56,0-1.07.13-1.59.22l-.81.08a6.51,6.51,0,0,0-.77.13l-1.55.35A32.58,32.58,0,0,0,283,13.12a60.19,60.19,0,0,0-9.52,8.37c-3,3.14-5.88,6.53-9.06,9.93a77.92,77.92,0,0,1-10.64,9.79,36,36,0,0,1-3.22,2.15l-1.67,1-1.76.94a10.81,10.81,0,0,1-1.85.86c-.64.26-1.24.56-1.88.82l-1.94.69-1,.34-1,.26-2,.51c-.68.18-1.37.26-2,.39l-1,.17a7.44,7.44,0,0,1-1,.13l-2.06.22-1,.08c-.35.05-.69,0-1,.05l-2.06,0a8.85,8.85,0,0,1-1,0l-1,0-2.06-.09-.52,0-.51,0-1-.13-2-.25-2-.43a14.3,14.3,0,0,1-2-.48,39.43,39.43,0,0,1-3.86-1.24c-.6-.26-1.24-.47-1.85-.77l-1.8-.86a47.45,47.45,0,0,1-12-8.9,123.5,123.5,0,0,1-9-10.39,121.76,121.76,0,0,0-8.71-10,40,40,0,0,0-10.77-8l-1.54-.73-1.64-.64a28.69,28.69,0,0,0-3.3-1c-.56-.18-1.16-.26-1.72-.39l-1.71-.34-1.76-.22-.9-.09-.43,0h-.43a40.54,40.54,0,0,0-14.08,1.51,35.32,35.32,0,0,0-11.88,6.44,68,68,0,0,0-9.18,9.49c-2.79,3.44-5.5,7-8.5,10.44A57.69,57.69,0,0,1,99.54,42.5L98,43.57l-.39.26-.43.26-.86.47-.85.47c-.3.18-.56.3-.86.48l-1.8.86c-.61.3-1.25.51-1.89.77s-1.25.47-1.93.69l-2,.55-1,.26-1,.22-2,.38a4,4,0,0,1-1,.13l-1,.13c-.69.09-1.37.17-2.06.22l-2,.08-1,.05a8.85,8.85,0,0,1-1,0l-2.06-.09a32.94,32.94,0,0,1-4.08-.39l-1-.13-1-.21-2-.39c-.68-.17-1.33-.34-2-.56s-1.33-.34-1.93-.6A35,35,0,0,1,56.93,46c-.61-.3-1.21-.56-1.81-.86l-1.71-.95a13.73,13.73,0,0,1-1.63-1c-.52-.34-1.08-.68-1.59-1.07-1-.77-2-1.5-3-2.32l-1.42-1.2L44.48,37.3l-.64-.6-.6-.64L42,34.81C35.56,28,30.71,20.72,24.31,14.66a28.68,28.68,0,0,0-2.49-2.15l-1.28-1-1.33-1a3.7,3.7,0,0,0-.69-.48l-.73-.43-1.42-.9-1.5-.77-.77-.39c-.26-.13-.51-.21-.77-.34A41.4,41.4,0,0,0-.45,3.79V3Z"/><path class="cls-3" d="M328.16,54c-1.24-1.5-2.31-2.23-5.66-3.86s-8.8-4.52-13.9-5.93-11.93-3.48-18.11-3.48-10.3-.13-13.3.86c-3.26,1.07-3.78,2.66-2.71,4.16S279,49.5,279,49.5l-2.36,27.88-.3,3.31a2.24,2.24,0,0,0,.51,3.13c1.8,1.47,4.81,4.64,9.57,6.06a93.41,93.41,0,0,0,11.76,2.67c3.39.6,6.78.47,8.79-.48s4.21-.64,4.9-2.79,6.09-16.67,6.6-19,4.12-9.88,4.12-9.88A7.35,7.35,0,0,0,328.12,59C330.05,57.49,329.41,55.56,328.16,54ZM311,59.34a115.15,115.15,0,0,1-13.61-2c-2.87-.64-9.26-2.79-11.07-3.39a36.66,36.66,0,0,1-5.49-3l7.51,3c2.88,1.16,5.24,1.46,8.88,2.41s5.45,1.07,6.61,1.37,6.44.78,6.44.78l11,1.58C321.21,60.11,317.18,59.94,311,59.34Z"/><path class="cls-3" d="M166.73,35.67c-1.54-.22-2.57,0-5.4.86A66.13,66.13,0,0,0,150,40.69c-3.73,2-8.79,4.47-12.36,7.87s-6,5.54-7.2,7.77c-1.29,2.41-.73,3.61.68,3.91A20.22,20.22,0,0,0,135.8,60l13.81,17.44,1.63,2.07a1.76,1.76,0,0,0,2,1.5c1.85-.13,5.28,0,8.84-1.72a73.54,73.54,0,0,0,8.28-4.9c2.28-1.5,4.21-3.43,4.81-5.07s2.1-2.66,1.29-4.29-5.58-13-6.57-14.65a70.24,70.24,0,0,1-3-8,5.94,5.94,0,0,0,2.49-3.82C169.7,36.66,168.28,35.88,166.73,35.67Zm-7.08,12.5a87.27,87.27,0,0,1-9,6.27c-2,1.2-6.91,3.44-8.29,4.08a27.66,27.66,0,0,1-4.84,1.25s3.69-1.46,6-2.32A54.12,54.12,0,0,0,150,54c2.62-1.46,3.74-2.36,4.59-2.79s4.17-3,4.17-3L166.05,43S163.6,45.12,159.65,48.17Z"/><path class="cls-3" d="M240,88.38c-.91-.73-1.63-1-3.78-1.51a47.07,47.07,0,0,0-8.75-1.58c-3.14-.13-7.3-.48-10.86.34s-5.92,1.29-7.51,2.23-1.84,2-1,2.75a13.27,13.27,0,0,0,3.05,1.55l2.27,16.32.26,1.94a1.27,1.27,0,0,0,.73,1.71,15.59,15.59,0,0,0,6.31,2.24,57.8,57.8,0,0,0,7.12,0,9.26,9.26,0,0,0,5-1.42c1-.82,2.31-.9,2.44-2.23s1.33-10.36,1.33-11.77a52.47,52.47,0,0,1,1.08-6.19,4.44,4.44,0,0,0,3-1.5C241.57,90.14,241,89.07,240,88.38Zm-9.19,5.28a67.32,67.32,0,0,1-8.06.65c-1.72,0-5.67-.39-6.83-.52a18.85,18.85,0,0,1-3.56-1s2.92.47,4.68.77a35.18,35.18,0,0,0,5.41.22c2.23,0,3.26-.09,4,0s3.77-.39,3.77-.39l6.52-.52C236.85,92.8,234.49,93.19,230.84,93.66Z"/><path class="cls-3" d="M121.42,79.27c-1.07-.47-1.8-.51-4-.47a45.27,45.27,0,0,0-8.88.69c-3,.64-7.17,1.37-10.39,3.09s-5.4,2.71-6.69,4-1.25,2.4-.3,2.92a15.17,15.17,0,0,0,3.35.77l6.26,15.21.73,1.8a1.32,1.32,0,0,0,1.12,1.51,15.39,15.39,0,0,0,6.65.6,49,49,0,0,0,6.86-1.81,9.46,9.46,0,0,0,4.47-2.62c.77-1,2-1.46,1.8-2.79s-1.33-10.35-1.68-11.73a56.35,56.35,0,0,1-.51-6.27A4.5,4.5,0,0,0,122.79,82C123.35,80.6,122.49,79.74,121.42,79.27Zm-7.55,7.43a64.19,64.19,0,0,1-7.64,2.62c-1.67.43-5.62,1-6.69,1.21a21.88,21.88,0,0,1-3.69-.09l4.72-.43a38.07,38.07,0,0,0,5.32-1.16c2.14-.47,3.13-.9,3.82-1.07s3.56-1.33,3.56-1.33l6.18-2.15S117.26,85.33,113.87,86.7Z"/><path class="cls-3" d="M57.57,65.7c-1.2-1.38-2.23-2-5.36-3.44S44,58.31,39.16,57.15,28.05,54.23,22.3,54.4s-9.53.17-12.28,1.16c-3,1.07-3.43,2.58-2.4,3.91a23,23,0,0,0,4.21,3.35L10.37,88.68l-.17,3.09a2.06,2.06,0,0,0,.55,2.88c1.68,1.29,4.55,4.17,9.06,5.37a89.42,89.42,0,0,0,11,2.19c3.18.47,6.31.26,8.11-.69s3.87-.68,4.47-2.7S48.56,83.22,49,81s3.56-9.23,3.56-9.23a6.86,6.86,0,0,0,5.15-1.42C59.37,68.88,58.77,67.07,57.57,65.7ZM41.74,71.07a97,97,0,0,1-12.66-1.51c-2.66-.51-8.67-2.36-10.34-2.88A34.82,34.82,0,0,1,13.54,64l7,2.62c2.7,1,4.89,1.2,8.28,2s5.06.86,6.18,1.12,6,.56,6,.56L51.22,71.5S47.53,71.45,41.74,71.07Z"/></g></svg>