<svg id="Layer_1" data-name="Layer 1" xmlns="http://www.w3.org/2000/svg" width="125.86" height="80.53" viewBox="0 0 125.86 80.53"><defs><style>.cls-1{fill:#f9ccc2;}</style></defs><path class="cls-1" d="M85.86,40V80.53l40-20.28V13Z"/><path class="cls-1" d="M44.21,26,85.86,40V80.53L44,70.87Z"/><path class="cls-1" d="M44.16,25.92c2.93-2.42,6-4.63,9.07-6.81q2.3-1.63,4.68-3.2c1.56-1.06,3.15-2.07,4.76-3.06,3.22-1.94,6.58-3.75,9.76-5.75S78.72,2.93,81.76.69L82,.56l.29,0c1.85.4,3.7.8,5.52,1.22s3.68.88,5.5,1.34c3.68.9,7.33,1.83,11,2.84,1.82.51,3.62,1,5.44,1.6l2.73.83,2.69.85c3.6,1.14,7.2,2.34,10.74,3.67l0,.21c-3.73-.64-7.43-1.43-11.13-2.26l-2.75-.64-2.78-.69c-1.83-.45-3.68-.91-5.5-1.38-3.65-1-7.27-2-10.9-3.09C90.91,4.58,89.11,4,87.31,3.49s-3.59-1.18-5.39-1.76l.47-.08c-3.25,1.91-6.47,3.88-9.59,6s-6.09,4.47-9.18,6.68c-1.53,1.09-3.12,2.13-4.71,3.17s-3.2,2-4.78,3c-3.23,1.91-6.48,3.83-9.87,5.56Z"/><path class="cls-1" d="M41.46,12.4c-1.74,0-3.46.13-5.21.16L31,12.75l-10.39.32c-1.74.08-3.46.16-5.18.26s-3.47.13-5.18.13c-3.47,0-6.93-.18-10.4-.31l0-.22a17.33,17.33,0,0,1,2.57-.66c.87-.16,1.71-.32,2.59-.43,1.74-.24,3.46-.4,5.21-.5s3.46-.14,5.21-.11l5.2.13,5.21.14,5.21.18c3.47.16,6.93.29,10.4.51Z"/><path class="cls-1" d="M37,22.81l-8.73.58L19.57,24c-1.46.08-2.91.24-4.37.35s-2.9.18-4.36.21H8.67l-2.19,0-2.2-.08c-.37,0-.74,0-1.08,0s-.74,0-1.11-.05l0-.22c.34-.13.68-.26,1-.37s.72-.19,1.09-.29.71-.19,1.08-.24L6.35,23c.71-.14,1.45-.24,2.16-.35s1.46-.19,2.2-.24,1.45-.13,2.19-.16,1.46,0,2.2,0c1.45,0,2.93.06,4.39.06l4.39,0,4.36.08c2.91.08,5.84.14,8.75.27Z"/><path class="cls-1" d="M37,46.89c-2.77.16-5.58.24-8.35.37l-4.18.16-4.18.14c-1.4,0-2.78.13-4.18.18s-2.77.08-4.18,0-2.77-.16-4.17-.29S5,47.16,3.57,46.89v-.21A31.22,31.22,0,0,1,7.75,46c1.4-.16,2.77-.27,4.17-.35s2.78,0,4.18,0,2.78.16,4.18.22l4.18.16,4.18.18c2.77.16,5.58.3,8.35.48Z"/></svg>