<svg id="Layer_1" data-name="Layer 1" xmlns="http://www.w3.org/2000/svg" viewBox="0 0 235.91 61.99"><defs><style>.cls-1{fill:#1d1d1b;}</style></defs><path class="cls-1" d="M235.91,9.62c-2.77-1-5.57-2-8.38-2.85l-2.11-.66-2.11-.64c-1.41-.43-2.83-.83-4.24-1.23-2.84-.79-5.7-1.5-8.56-2.21-1.42-.35-2.85-.71-4.29-1S203.34.37,201.9.05l-.21,0-.15.11c-2.38,1.73-4.79,3.41-7.28,5s-5.1,2.94-7.61,4.46q-1.89,1.14-3.72,2.37c-1.22.81-2.44,1.64-3.64,2.48-2.4,1.7-4.79,3.41-7.08,5.28l0,.07-.17,34.76L204.73,62l31.16-15.73V9.7ZM172.36,19.77C175,18.44,177.49,17,180,15.46c1.26-.77,2.5-1.54,3.74-2.33s2.47-1.6,3.67-2.45c2.4-1.69,4.72-3.52,7.15-5.16s4.81-3.11,7.29-4.55c1.35.44,2.69.89,4,1.3s2.82.85,4.23,1.27c2.82.82,5.65,1.66,8.5,2.4,1.42.37,2.85.73,4.28,1.07l2.15.52,2.15.49c2.85.64,5.71,1.25,8.6,1.74L204.73,30.54Z"/><path class="cls-1" d="M150.74,9.62c-2.77-1-5.57-2-8.38-2.85l-2.11-.66-2.11-.64c-1.41-.43-2.83-.83-4.24-1.23-2.84-.79-5.7-1.5-8.56-2.21-1.42-.35-2.85-.71-4.29-1s-2.88-.63-4.32-.95l-.21,0-.15.11c-2.38,1.73-4.79,3.41-7.28,5S104,8,101.47,9.53q-1.87,1.14-3.71,2.37c-1.22.81-2.44,1.64-3.64,2.48-2.4,1.7-4.79,3.41-7.08,5.28l0,.07-.17,34.76L119.56,62l31.16-15.73V9.7ZM87.19,19.77c2.61-1.33,5.13-2.81,7.63-4.31,1.26-.77,2.5-1.54,3.74-2.33s2.47-1.6,3.67-2.45c2.4-1.69,4.72-3.52,7.15-5.16s4.81-3.11,7.29-4.55c1.34.44,2.69.89,4,1.3s2.82.85,4.23,1.27c2.82.82,5.65,1.66,8.5,2.4,1.42.37,2.85.73,4.28,1.07l2.15.52L142,8c2.85.64,5.71,1.25,8.6,1.74L119.56,30.54Z"/><path class="cls-1" d="M63,9.62c-2.77-1-5.57-2-8.38-2.85l-2.11-.66-2.11-.64C49,5,47.55,4.64,46.14,4.24c-2.84-.79-5.7-1.5-8.56-2.21-1.42-.35-2.85-.71-4.29-1S30.41.37,29,.05l-.21,0-.15.11c-2.38,1.73-4.79,3.41-7.28,5S16.23,8,13.71,9.53Q11.84,10.67,10,11.9c-1.22.81-2.44,1.64-3.64,2.48C4,16.08,1.57,17.79-.72,19.66l0,.07L-.84,54.49,31.8,62,63,46.26V9.7ZM-.57,19.77C2.05,18.44,4.56,17,7.06,15.46c1.26-.77,2.5-1.54,3.74-2.33s2.47-1.6,3.67-2.45c2.4-1.69,4.72-3.52,7.15-5.16S26.43,2.41,28.91,1c1.35.44,2.69.89,4,1.3s2.82.85,4.23,1.27c2.82.82,5.65,1.66,8.5,2.4C47.1,6.31,48.53,6.67,50,7l2.15.52L54.26,8c2.85.64,5.71,1.25,8.6,1.74L31.8,30.54Z"/></svg>