<svg id="Layer_1" data-name="Layer 1" xmlns="http://www.w3.org/2000/svg" viewBox="0 0 134.97 66.06"><defs><style>.cls-1{fill:#1d1d1b;}</style></defs><path class="cls-1" d="M134.69,18.46c-.52-6.36-4.32-15.72-11-16.86S111.15-3.5,98.6,7.87,79,39.25,82.91,49.45s3.92,10.2,16.47,14.91c13.91,5.21,25.11-2.08,30.6-15A63.12,63.12,0,0,0,134.69,18.46Zm-12.88-4.9c-1.85,2-9.39,8.32-10.32,12.6s-6.19,16-6.19,16l-5.28,14s-3.08-15.88.86-22.92S111,17.4,111,17.4l7.15-5.92S123.66,11.51,121.81,13.56Z"/><path class="cls-1" d="M52.86,18.15c-.51-6.37-4.31-15.73-11-16.87S29.33-3.82,16.77,7.56-2.84,38.93,1.08,49.13,5,59.34,17.56,64c13.9,5.22,25.1-2.07,30.6-15A62.93,62.93,0,0,0,52.86,18.15ZM40,13.24c-1.85,2-9.39,8.32-10.33,12.6s-6.19,16-6.19,16l-5.27,14S15.12,40,19.06,32.92,29.19,17.08,29.19,17.08l7.15-5.92S41.84,11.19,40,13.24Z"/></svg>