<svg id="Layer_1" data-name="Layer 1" xmlns="http://www.w3.org/2000/svg" viewBox="0 0 65.48 62.24"><defs><style>.cls-1{fill:#1d1d1b;}</style></defs><path class="cls-1" d="M63.79,21.75C60.47,13.68,56.69,10,48.25,4.63,36.48-2.89,27.1,0,18.07,4.63S-.59,20.5,0,29.83,2.52,44.46,9.05,51a39.93,39.93,0,0,0,24.89,11.2c9,.62,22.71-4.36,26.44-11.51S67.7,31.21,63.79,21.75Zm-28,11.82c-7.16-.62-4.23-2.45-4.23-2.45a121,121,0,0,0,.25-13.44c-.27-7.78.91-11.18.91-11.18s3.07,6.22,3.07,12.31-3.07,12.31-3.07,12.31a102.51,102.51,0,0,1,12.84-1.25c3,0,7.51.52,10.43.88a.45.45,0,0,1,0,.88C51.16,32.47,41.1,34,35.81,33.57Z"/></svg>