<svg id="Layer_1" data-name="Layer 1" xmlns="http://www.w3.org/2000/svg" viewBox="0 0 63.82 61.99"><defs><style>.cls-1{fill:#1d1d1b;}</style></defs><path class="cls-1" d="M63.82,9.62c-2.77-1-5.57-2-8.38-2.85l-2.11-.66-2.11-.64C49.81,5,48.39,4.64,47,4.24c-2.84-.79-5.7-1.5-8.56-2.21-1.42-.35-2.85-.71-4.29-1S31.25.37,29.81.05L29.6,0l-.15.11c-2.38,1.73-4.79,3.41-7.28,5S17.07,8,14.56,9.53q-1.89,1.14-3.72,2.37c-1.22.81-2.44,1.64-3.64,2.48-2.4,1.7-4.79,3.41-7.08,5.28l.05.07L0,54.49,32.64,62,63.8,46.26V9.7ZM.27,19.77C2.89,18.44,5.4,17,7.9,15.46c1.26-.77,2.5-1.54,3.74-2.33s2.47-1.6,3.67-2.45C17.71,9,20,7.16,22.46,5.52S27.27,2.41,29.75,1c1.35.44,2.69.89,4,1.3s2.82.85,4.23,1.27c2.82.82,5.65,1.66,8.5,2.4,1.42.37,2.85.73,4.28,1.07L53,7.53,55.1,8c2.85.64,5.71,1.25,8.6,1.74L32.64,30.54Z"/></svg>