<svg id="Layer_1" data-name="Layer 1" xmlns="http://www.w3.org/2000/svg" viewBox="0 0 235.8 62.24"><defs><style>.cls-1{fill:#1d1d1b;}</style></defs><path class="cls-1" d="M234.11,21.75C230.78,13.68,227,10,218.56,4.63c-11.77-7.52-21.15-4.66-30.17,0s-18.67,15.87-18,25.2,2.49,14.63,9,21.16a40,40,0,0,0,24.89,11.2c9,.62,22.71-4.36,26.45-11.51S238,31.21,234.11,21.75Zm-28,11.82c-7.16-.62-4.23-2.45-4.23-2.45a121,121,0,0,0,.25-13.44c-.26-7.78.91-11.18.91-11.18s3.07,6.22,3.07,12.31-3.07,12.31-3.07,12.31a102.51,102.51,0,0,1,12.84-1.25c3,0,7.51.52,10.44.88a.45.45,0,0,1,0,.88C221.47,32.47,211.41,34,206.12,33.57Z"/><path class="cls-1" d="M148.93,21.75c-3.32-8.07-7.1-11.72-15.54-17.12-11.77-7.52-21.15-4.66-30.18,0s-18.66,15.87-18,25.2,2.49,14.63,9,21.16a40,40,0,0,0,24.89,11.2c9,.62,22.71-4.36,26.45-11.51S152.84,31.21,148.93,21.75ZM121,33.57c-7.16-.62-4.23-2.45-4.23-2.45A121,121,0,0,0,117,17.68c-.26-7.78.91-11.18.91-11.18S121,12.72,121,18.81s-3.07,12.31-3.07,12.31a102.51,102.51,0,0,1,12.84-1.25c3,0,7.51.52,10.43.88a.45.45,0,0,1,0,.88C136.3,32.47,126.24,34,121,33.57Z"/><path class="cls-1" d="M63.76,21.75C60.44,13.68,56.66,10,48.22,4.63,36.45-2.89,27.07,0,18,4.63S-.62,20.5,0,29.83,2.49,44.46,9,51a40,40,0,0,0,24.89,11.2c9,.62,22.71-4.36,26.45-11.51S67.67,31.21,63.76,21.75Zm-28,11.82c-7.16-.62-4.23-2.45-4.23-2.45a121,121,0,0,0,.25-13.44c-.26-7.78.91-11.18.91-11.18s3.07,6.22,3.07,12.31-3.07,12.31-3.07,12.31a102.51,102.51,0,0,1,12.84-1.25c3,0,7.51.52,10.43.88a.45.45,0,0,1,0,.88C51.13,32.47,41.07,34,35.78,33.57Z"/></svg>