<svg id="Layer_1" data-name="Layer 1" xmlns="http://www.w3.org/2000/svg" viewBox="0 0 160.71 104.69"><defs><style>.cls-1{fill:#1d1d1b;}</style></defs><path class="cls-1" d="M6.06,104.69H67.88s4.9-6.61-4.9-15.37S44.51,78.29,45.64,74,60.72,66.24,60,52.1s-12.66-20-20-20.18c-7-.2-14.3,6.25-16.93,12.83s-.41,15,1.86,21.27,5.65,4.33-2.64,10.57S-.73,91.49,0,97.9,6.06,104.69,6.06,104.69Z"/><path class="cls-1" d="M97.67,101.16h61.82s4.9-6.6-4.9-15.36-18.47-11-17.34-15.37,15.08-7.71,14.32-21.85-12.66-20-20-20.19c-7-.19-14.3,6.26-16.94,12.83s-.4,15,1.87,21.27,5.65,4.34-2.64,10.57S90.88,88,91.64,94.38,97.67,101.16,97.67,101.16Z"/><path class="cls-1" d="M68.16,72.77H130s4.9-6.6-4.9-15.36-18.47-11-17.34-15.36,15.08-7.72,14.33-21.86S109.41.21,102.09,0c-7-.19-14.3,6.26-16.94,12.83s-.4,15,1.86,21.28,5.65,4.33-2.64,10.57S61.38,59.58,62.13,66,68.16,72.77,68.16,72.77Z"/></svg>