<svg width="92" height="81" viewBox="0 0 92 81" fill="none" xmlns="http://www.w3.org/2000/svg">
<path d="M89.0108 8.9254C86.5184 6.96192 84.5601 6.24793 78.6852 4.81995C72.8102 3.39197 63.1967 0.833502 54.6514 0.476507C46.0466 0.119511 34.5341 -0.772977 24.8019 1.48799C15.0104 3.68947 8.54199 4.99845 4.15062 7.61642C-0.596802 10.4724 -0.893517 13.2093 1.36151 15.1728C3.61654 17.1363 9.72885 19.5163 9.72885 19.5163L16.7313 69.7931C16.7313 69.7931 15.3071 72.8871 18.6896 74.5531C22.0128 76.219 27.8877 80.146 36.0177 80.6815C44.0883 81.217 49.9633 80.979 55.5415 80.6815C61.1197 80.384 66.4012 79.0155 69.1903 76.7545C71.9795 74.4936 75.5994 74.2556 75.8961 70.6261C76.1928 66.9967 79.516 42.0665 79.516 38.1395C79.516 34.2126 82.5425 21.0632 82.5425 21.0632C82.5425 21.0632 88.002 20.8252 90.9098 16.8983C93.2242 13.7448 91.5032 10.8889 89.0108 8.9254ZM63.4934 44.8034C62.3066 54.4423 47.1742 67.8297 47.1742 67.8297C47.1742 67.8297 33.7627 53.7283 30.7362 46.6479C27.7097 39.5675 31.2109 36.771 38.0947 37.5445C44.9785 38.318 44.8004 47.5999 44.8004 47.5999C44.8004 47.5999 45.2752 43.8515 50.8534 36.4735C56.3723 29.0361 64.7396 35.1646 63.4934 44.8034ZM63.7308 23.5027C53.6425 24.8117 46.284 25.2282 41.5366 25.2282C36.7892 25.2282 25.9294 24.0977 22.8436 23.8002C19.7578 23.5622 13.052 21.0632 13.052 21.0632C13.052 21.0632 21.004 22.3722 25.9294 23.1457C30.8549 23.9787 34.7715 23.5622 40.8245 23.7407C46.9368 23.9192 49.8446 23.5027 51.7436 23.5622C53.6425 23.6217 62.1285 22.4912 62.1285 22.4912L80.0501 21.0037C80.1688 21.0632 73.7597 22.1937 63.7308 23.5027Z" fill="#F9CCC2"/>
</svg>
