<svg width="79" height="82" viewBox="0 0 79 82" fill="none" xmlns="http://www.w3.org/2000/svg">
<path d="M66.9267 16.2848C66.9267 16.2848 58.158 -6.95452 28.5465 3.84548C-1.06507 14.6455 -1.98326 37.499 3.75541 53.3615C9.49408 69.224 23.0833 82.5312 42.7325 81.9044C62.3817 81.2776 69.4517 66.4276 69.4517 66.4276L76.2922 75.2508L79.0008 55.5794L59.673 56.833L66.2381 63.0044C66.2381 63.0044 54.8066 73.1294 40.0238 71.249C25.241 69.3687 19.5023 64.7883 15.2787 53.9883C11.055 43.1883 9.76954 37.499 13.1668 29.5919C16.5641 21.6365 29.1433 12.3794 36.2133 11.7044C43.0079 11.0776 56.3675 11.174 60.9126 18.1651L66.9267 16.2848Z" fill="#FF663E"/>
</svg>
