<svg width="93" height="82" viewBox="0 0 93 82" fill="none" xmlns="http://www.w3.org/2000/svg">
<path d="M89.0323 8.92716C86.5394 6.96316 84.5807 6.24898 78.7046 4.82062C72.8284 3.39226 63.2129 0.833113 54.6659 0.476023C46.0594 0.118933 34.5446 -0.773793 24.8104 1.48778C15.0168 3.68984 8.54714 4.99917 4.15488 7.61783C-0.593506 10.4746 -0.89028 13.2122 1.3652 15.1762C3.62069 17.1402 9.73424 19.5208 9.73424 19.5208L16.7381 69.8111C16.7381 69.8111 15.3136 72.9059 18.6968 74.5723C22.0207 76.2387 27.8968 80.1667 36.0284 80.7023C44.1007 81.238 49.9768 80.9999 55.5562 80.7023C61.1355 80.4047 66.4181 79.0359 69.2078 76.7743C71.9975 74.5127 75.6181 74.2747 75.9149 70.6443C76.2117 67.0139 79.5355 42.077 79.5355 38.1491C79.5355 34.2211 82.5626 21.0682 82.5626 21.0682C82.5626 21.0682 88.0233 20.8302 90.9317 16.9022C93.2465 13.7479 91.5252 10.8912 89.0323 8.92716ZM57.3368 48.9808C55.4375 54.2776 52.4104 58.1461 48.3742 60.4672C45.1691 62.3122 42.0826 62.6693 40.48 62.7288C39.2929 63.0859 36.2659 64.2762 35.3755 65.8236C33.951 68.3232 31.9923 69.573 31.8736 69.6325L31.1613 70.0491L29.2026 67.3114L34.8413 61.3599C35.1975 60.1101 37.0375 53.2659 38.5807 46.1241C40.4207 37.6134 60.72 33.5664 61.551 33.3879L63.0942 33.0903L57.3368 48.9808ZM63.7471 23.5084C53.6568 24.8177 46.2968 25.2343 41.5484 25.2343C36.8 25.2343 25.9381 24.1035 22.8517 23.8059C19.7652 23.5679 13.0581 21.0682 13.0581 21.0682C13.0581 21.0682 21.0117 22.3776 25.9381 23.1513C30.8646 23.9845 34.782 23.5679 40.8362 23.7464C46.9497 23.925 49.8581 23.5084 51.7575 23.5679C53.6568 23.6274 62.1446 22.4966 62.1446 22.4966L80.0697 21.0087C80.1884 21.0682 73.7781 22.199 63.7471 23.5084Z" fill="#B79F7F"/>
</svg>
