<svg width="93" height="81" viewBox="0 0 93 81" fill="none" xmlns="http://www.w3.org/2000/svg">
<path d="M89.9783 8.9254C87.4589 6.96192 85.4793 6.24793 79.5405 4.81995C73.6017 3.39197 63.8836 0.833502 55.2454 0.476507C46.6071 0.119511 34.9095 -0.772977 25.0715 1.48799C15.1735 3.68947 8.63484 4.99845 4.19574 7.61642C-0.60329 10.4724 -0.903229 13.2093 1.37631 15.1728C3.65585 17.1363 9.8346 19.5163 9.8346 19.5163L16.9132 69.7931C16.9132 69.7931 15.4735 72.8871 18.8928 74.5531C22.2521 76.219 28.1909 80.146 36.4092 80.6815C44.5676 81.217 50.5064 80.979 56.1452 80.6815C61.7841 80.384 67.123 79.0155 69.9424 76.7545C72.7618 74.4936 76.4211 74.2556 76.721 70.6261C77.021 66.9967 80.3803 42.0665 80.3803 38.1395C80.3803 34.2126 83.4397 21.0632 83.4397 21.0632C83.4397 21.0632 88.9586 20.8252 91.898 16.8983C94.2375 13.7448 92.4978 10.8889 89.9783 8.9254ZM63.1038 66.8777L59.0846 61.9987C57.345 64.1407 53.5057 67.4727 46.8471 67.7107C46.6071 67.7107 46.3672 67.7107 46.1872 67.7107C36.2292 67.7107 30.1105 60.9277 27.591 54.4423C25.7314 49.6229 25.7914 44.8034 27.651 40.817C29.6906 36.4735 33.7697 33.2011 39.8285 31.1186C51.5861 27.0727 57.7049 33.3796 59.2646 37.366L59.8645 38.8535L54.5255 40.46L53.9257 39.5675C52.486 37.485 47.6869 37.128 44.0277 37.4255C41.4482 37.6635 36.0493 41.293 34.7295 44.268C33.4098 47.1239 33.8297 49.0874 35.6894 53.6093C37.249 57.4173 39.1687 59.3808 45.7673 60.1543C49.7865 60.6302 53.2658 59.0238 55.1254 57.9528L50.8663 54.1448L65.1434 53.2523L63.1038 66.8777ZM64.4235 23.5027C54.2256 24.8117 46.7871 25.2282 41.9881 25.2282C37.1891 25.2282 26.2113 24.0977 23.0919 23.8002C19.9725 23.5622 13.1939 21.0632 13.1939 21.0632C13.1939 21.0632 21.2323 22.3722 26.2113 23.1457C31.1903 23.9787 35.1495 23.5622 41.2682 23.7407C47.447 23.9192 50.3864 23.5027 52.306 23.5622C54.2256 23.6217 62.8039 22.4912 62.8039 22.4912L80.9202 21.0037C81.0402 21.0632 74.5615 22.1937 64.4235 23.5027Z" fill="#FF663E"/>
</svg>
